<svg width="541" height="498" viewBox="0 0 541 498" fill="none" xmlns="http://www.w3.org/2000/svg">
<g filter="url(#filter0_f_14_32)">
<path d="M96.3624 311.922L103.574 359.734C103.627 360.081 103.175 360.261 102.974 359.973L102.162 358.808L100.539 356.479L97.2916 351.82C92.9837 345.639 89.5742 338.878 87.1651 331.74L86.4384 329.587C84.2678 323.156 82.7882 316.511 82.0246 309.766L79.7848 289.982V283.912C79.7848 269.717 80.7924 255.539 82.7999 241.486L83.1732 238.873L84.4211 234.112C88.6639 217.927 94.2925 202.137 101.245 186.917C102.932 182.232 105.225 177.787 108.067 173.697L115.363 163.199C125.512 151.922 136.538 141.466 148.338 131.929L151.224 129.597L162.317 122.386C169.959 117.419 178.111 113.284 186.633 110.051C194.445 107.088 202.528 104.898 210.768 103.514L219.951 101.97C227.957 100.625 236.061 99.9484 244.18 99.9484C253.532 99.9484 262.863 100.846 272.044 102.629L274.241 103.055C282.95 104.746 291.513 107.119 299.85 110.15L309.067 113.502L324.557 119.278C324.96 119.428 325.333 118.997 325.127 118.62L324.527 117.526C323.729 116.071 322.784 114.701 321.708 113.438L320.079 111.525L314.997 106.866C311.613 103.953 308.009 101.307 304.215 98.9525L301.725 97.4071C295.917 94.0344 289.676 91.4684 283.175 89.7798L282.101 89.5008L271.23 86.6771L263.182 84.8418L255.135 83.0064L247.087 81.171L239.04 79.3356L231.134 78.0649L222.663 76.7943L214.333 76.2296H205.438H200.638H198.238H197.038C196.759 76.2296 196.678 75.8502 196.931 75.7356L204.591 72.2764C210.4 69.6532 216.538 67.832 222.837 66.8628L226.192 66.3467L239.04 64.3701L239.663 64.3038C248.083 63.4081 256.559 63.1471 265.018 63.523L274.195 64.5113L283.372 65.4996L301.725 68.3233L316.126 72.2764L330.527 76.2296L345.21 81.4533L347.551 82.2863C355.761 85.207 363.675 88.8989 371.188 93.3128C378.689 97.7196 385.616 103.038 391.811 109.145L392.506 109.831C399.132 116.363 405.224 123.541 410.578 131.15L418.625 142.586L427.096 157.834L430.541 164.033C433.886 170.055 436.724 176.345 439.025 182.838C441.982 191.181 444.038 199.817 445.157 208.598L447.144 224.19V239.883C447.144 247.816 445.849 255.695 443.31 263.211L440.316 272.075C440.163 272.528 439.948 272.957 439.679 273.351L426.925 291.972C426.703 292.295 427.079 292.692 427.414 292.488L428.861 291.605L431.755 289.84C435.574 287.512 438.878 284.428 441.463 280.778L442.888 278.767C445.707 274.787 447.857 270.374 449.254 265.701L455.333 245.367L460.133 220.519L461.941 207.867C463.362 197.919 463.17 187.807 461.372 177.919C460.547 173.383 459.388 168.913 457.904 164.547L455.333 156.987L452.651 151.622L451.309 148.939L450.959 148.239C450.715 147.751 451.298 147.267 451.733 147.598L453.498 148.939L457.027 151.622C461.68 155.158 465.528 159.643 468.317 164.779L474.816 176.752L477.982 183.956C481.314 191.539 483.547 199.558 484.613 207.772C485.421 213.993 485.555 220.283 485.011 226.532L483.005 249.603L480.366 269.234C479.116 278.53 477.069 287.703 474.247 296.649C469.383 312.073 462.259 326.69 453.107 340.025L447.144 348.714L439.492 358.101C430.529 369.096 419.925 378.644 408.054 386.409C395.053 394.914 380.709 401.163 365.628 404.895L356.509 407.151C341.314 410.911 325.72 412.811 310.067 412.811H305.961L272.642 409.14H264.876H260.994H259.053H258.842C258.263 409.14 258.003 409.868 258.453 410.235L259.794 411.329L262.476 413.517L267.841 417.894L268.044 418.059C275.027 423.756 282.779 428.439 291.071 431.971C302.946 437.029 315.72 439.636 328.627 439.636H345.907C353.893 439.636 361.859 438.833 369.684 437.239L387.883 433.532C388.233 433.46 388.57 433.334 388.881 433.156L405.034 423.926C405.58 423.614 406.136 424.317 405.707 424.777L403.236 427.424L398.295 432.718C391.761 439.718 384.004 445.467 375.405 449.68L369.782 452.436C363.392 455.567 356.72 458.085 349.854 459.958L344.208 461.498C332.129 464.792 319.665 466.461 307.145 466.461C292.7 466.461 278.34 464.239 264.571 459.873L257.863 457.746C245.349 453.778 233.29 448.499 221.886 441.997L206.85 433.424L191.06 422.473C178.34 413.651 167.241 402.696 158.253 390.093C150.967 379.876 145.149 368.688 140.969 356.856L139.757 353.424C133.704 336.291 130.611 318.252 130.611 300.08V286.784C130.611 274.252 131.602 261.74 133.575 249.364L133.717 248.474L137.952 228.99L142.47 209.648L146.789 191.993C146.911 191.495 146.281 191.171 145.947 191.559L144.623 193.094L141.976 196.165L136.682 202.307C129.644 210.471 123.518 219.379 118.415 228.874L113.951 237.179L108.081 251.854C105.221 259.003 102.881 266.349 101.077 273.835L100.47 276.353C98.9182 282.793 97.8718 289.345 97.3404 295.949L96.2698 309.256C96.1982 310.145 96.2293 311.04 96.3624 311.922Z" fill="url(#paint0_radial_14_32)"/>
<path d="M96.3624 311.922L103.574 359.734C103.627 360.081 103.175 360.261 102.974 359.973L102.162 358.808L100.539 356.479L97.2916 351.82C92.9837 345.639 89.5742 338.878 87.1651 331.74L86.4384 329.587C84.2678 323.156 82.7882 316.511 82.0246 309.766L79.7848 289.982V283.912C79.7848 269.717 80.7924 255.539 82.7999 241.486L83.1732 238.873L84.4211 234.112C88.6639 217.927 94.2925 202.137 101.245 186.917C102.932 182.232 105.225 177.787 108.067 173.697L115.363 163.199C125.512 151.922 136.538 141.466 148.338 131.929L151.224 129.597L162.317 122.386C169.959 117.419 178.111 113.284 186.633 110.051C194.445 107.088 202.528 104.898 210.768 103.514L219.951 101.97C227.957 100.625 236.061 99.9484 244.18 99.9484C253.532 99.9484 262.863 100.846 272.044 102.629L274.241 103.055C282.95 104.746 291.513 107.119 299.85 110.15L309.067 113.502L324.557 119.278C324.96 119.428 325.333 118.997 325.127 118.62L324.527 117.526C323.729 116.071 322.784 114.701 321.708 113.438L320.079 111.525L314.997 106.866C311.613 103.953 308.009 101.307 304.215 98.9525L301.725 97.4071C295.917 94.0344 289.676 91.4684 283.175 89.7798L282.101 89.5008L271.23 86.6771L263.182 84.8418L255.135 83.0064L247.087 81.171L239.04 79.3356L231.134 78.0649L222.663 76.7943L214.333 76.2296H205.438H200.638H198.238H197.038C196.759 76.2296 196.678 75.8502 196.931 75.7356L204.591 72.2764C210.4 69.6532 216.538 67.832 222.837 66.8628L226.192 66.3467L239.04 64.3701L239.663 64.3038C248.083 63.4081 256.559 63.1471 265.018 63.523L274.195 64.5113L283.372 65.4996L301.725 68.3233L316.126 72.2764L330.527 76.2296L345.21 81.4533L347.551 82.2863C355.761 85.207 363.675 88.8989 371.188 93.3128C378.689 97.7196 385.616 103.038 391.811 109.145L392.506 109.831C399.132 116.363 405.224 123.541 410.578 131.15L418.625 142.586L427.096 157.834L430.541 164.033C433.886 170.055 436.724 176.345 439.025 182.838C441.982 191.181 444.038 199.817 445.157 208.598L447.144 224.19V239.883C447.144 247.816 445.849 255.695 443.31 263.211L440.316 272.075C440.163 272.528 439.948 272.957 439.679 273.351L426.925 291.972C426.703 292.295 427.079 292.692 427.414 292.488L428.861 291.605L431.755 289.84C435.574 287.512 438.878 284.428 441.463 280.778L442.888 278.767C445.707 274.787 447.857 270.374 449.254 265.701L455.333 245.367L460.133 220.519L461.941 207.867C463.362 197.919 463.17 187.807 461.372 177.919C460.547 173.383 459.388 168.913 457.904 164.547L455.333 156.987L452.651 151.622L451.309 148.939L450.959 148.239C450.715 147.751 451.298 147.267 451.733 147.598L453.498 148.939L457.027 151.622C461.68 155.158 465.528 159.643 468.317 164.779L474.816 176.752L477.982 183.956C481.314 191.539 483.547 199.558 484.613 207.772C485.421 213.993 485.555 220.283 485.011 226.532L483.005 249.603L480.366 269.234C479.116 278.53 477.069 287.703 474.247 296.649C469.383 312.073 462.259 326.69 453.107 340.025L447.144 348.714L439.492 358.101C430.529 369.096 419.925 378.644 408.054 386.409C395.053 394.914 380.709 401.163 365.628 404.895L356.509 407.151C341.314 410.911 325.72 412.811 310.067 412.811H305.961L272.642 409.14H264.876H260.994H259.053H258.842C258.263 409.14 258.003 409.868 258.453 410.235L259.794 411.329L262.476 413.517L267.841 417.894L268.044 418.059C275.027 423.756 282.779 428.439 291.071 431.971C302.946 437.029 315.72 439.636 328.627 439.636H345.907C353.893 439.636 361.859 438.833 369.684 437.239L387.883 433.532C388.233 433.46 388.57 433.334 388.881 433.156L405.034 423.926C405.58 423.614 406.136 424.317 405.707 424.777L403.236 427.424L398.295 432.718C391.761 439.718 384.004 445.467 375.405 449.68L369.782 452.436C363.392 455.567 356.72 458.085 349.854 459.958L344.208 461.498C332.129 464.792 319.665 466.461 307.145 466.461C292.7 466.461 278.34 464.239 264.571 459.873L257.863 457.746C245.349 453.778 233.29 448.499 221.886 441.997L206.85 433.424L191.06 422.473C178.34 413.651 167.241 402.696 158.253 390.093C150.967 379.876 145.149 368.688 140.969 356.856L139.757 353.424C133.704 336.291 130.611 318.252 130.611 300.08V286.784C130.611 274.252 131.602 261.74 133.575 249.364L133.717 248.474L137.952 228.99L142.47 209.648L146.789 191.993C146.911 191.495 146.281 191.171 145.947 191.559L144.623 193.094L141.976 196.165L136.682 202.307C129.644 210.471 123.518 219.379 118.415 228.874L113.951 237.179L108.081 251.854C105.221 259.003 102.881 266.349 101.077 273.835L100.47 276.353C98.9182 282.793 97.8718 289.345 97.3404 295.949L96.2698 309.256C96.1982 310.145 96.2293 311.04 96.3624 311.922Z" stroke="#32007F" stroke-width="3"/>
</g>
<g filter="url(#filter1_d_14_32)">
<path d="M452.057 3.48378L434.556 16.0548C434.242 16.2806 433.869 16.4103 433.482 16.4283L412.492 17.4045C411.149 17.467 410.249 18.8106 410.702 20.0765L417.749 39.7582C417.898 40.1755 417.905 40.6306 417.768 41.052L410.644 62.913C410.223 64.2055 411.187 65.5326 412.546 65.5326H434.894C435.281 65.5326 435.659 65.6445 435.983 65.8547L454.128 77.6246C455.251 78.3533 456.76 77.7936 457.136 76.5085L462.976 56.5544C463.094 56.1499 463.338 55.7932 463.671 55.5351L481.201 41.955C482.224 41.1631 482.237 39.6238 481.229 38.8143L463.564 24.633C463.298 24.4193 463.091 24.1408 462.963 23.8243L455.077 4.35728C454.591 3.15662 453.109 2.72803 452.057 3.48378Z" fill="url(#paint1_linear_14_32)"/>
<path d="M160.909 376.493L145.92 387.193C145.607 387.416 145.235 387.545 144.851 387.563L126.917 388.392C125.572 388.454 124.672 389.8 125.128 391.067L131.135 407.742C131.286 408.161 131.293 408.619 131.154 409.043L125.069 427.601C124.645 428.894 125.609 430.224 126.97 430.224H146.086C146.47 430.224 146.846 430.335 147.169 430.543L162.696 440.552C163.818 441.275 165.321 440.717 165.698 439.436L170.684 422.506C170.803 422.101 171.048 421.744 171.383 421.486L186.373 409.946C187.402 409.154 187.415 407.607 186.401 406.797L171.275 394.73C171.008 394.517 170.8 394.238 170.671 393.922L163.923 377.366C163.435 376.17 161.96 375.743 160.909 376.493Z" fill="url(#paint2_linear_14_32)"/>
<path d="M104.443 436.069L94.8114 443.069C94.4956 443.299 94.1195 443.431 93.7295 443.449L82.2476 443.989C80.9081 444.052 80.0089 445.39 80.4562 446.654L84.3131 457.555C84.4592 457.968 84.4657 458.418 84.3313 458.835L80.3995 471.046C79.9837 472.337 80.9467 473.659 82.3033 473.659H94.5883C94.9783 473.659 95.3597 473.773 95.6858 473.987L105.629 480.513C106.754 481.252 108.273 480.69 108.647 479.397L111.837 468.37C111.953 467.967 112.194 467.611 112.524 467.352L122.237 459.738C123.247 458.946 123.26 457.421 122.264 456.612L112.419 448.614C112.155 448.399 111.95 448.121 111.823 447.805L107.475 436.943C106.991 435.733 105.497 435.302 104.443 436.069Z" fill="url(#paint3_linear_14_32)"/>
<path d="M41.4498 53.7081L27.4808 63.7055C27.167 63.9301 26.7949 64.0591 26.4094 64.0769L9.70548 64.851C8.36118 64.9133 7.4608 66.2587 7.91589 67.5252L13.5121 83.0988C13.6625 83.5174 13.6691 83.9741 13.5309 84.3968L7.8574 101.745C7.43455 103.038 8.39797 104.366 9.75832 104.366H27.5728C27.9579 104.366 28.3349 104.478 28.6584 104.687L43.1225 114.035C44.2453 114.76 45.7502 114.201 46.127 112.918L50.7705 97.1113C50.8895 96.7065 51.1334 96.3496 51.4675 96.0918L65.4501 85.2998C66.4761 84.5079 66.4895 82.9643 65.4774 82.1547L51.3606 70.863C51.0937 70.6495 50.8859 70.3711 50.7572 70.0544L44.4665 54.5813C43.9796 53.3836 42.5012 52.9557 41.4498 53.7081Z" fill="url(#paint4_linear_14_32)"/>
</g>
<g filter="url(#filter2_d_14_32)">
<path d="M316.973 244.52H310.479C307.048 244.52 304.267 247.302 304.267 250.732C304.267 254.475 307.301 257.509 311.044 257.509H313.585H323.75H331.939L343.233 258.356L352.834 259.204L364.129 260.333L376.835 262.592L386.436 264.568L391.475 265.903C394.505 266.705 397.43 267.861 400.19 269.347L401.618 270.116C402.789 270.746 403.9 271.481 404.938 272.311L406.588 273.632C408.191 274.913 409.47 276.552 410.325 278.417L410.437 278.663C411.537 281.062 411.837 283.752 411.294 286.335C411.1 287.257 410.8 288.154 410.402 289.007L407.048 296.194L403.378 305.512L400.272 315.395L399.048 320.902C398.36 323.998 398.013 327.16 398.013 330.332C398.013 332.793 398.222 335.251 398.638 337.677L399.06 340.142C399.49 342.649 400.191 345.102 401.151 347.457C402.254 350.167 403.693 352.728 405.432 355.081L405.501 355.175C406.906 357.075 408.494 358.832 410.242 360.422L413.825 363.679C418.898 367.249 424.299 370.374 429.92 372.997L438.956 377.233L451.38 382.88L459.851 388.245L463.295 391.063C465.122 392.558 466.632 394.402 467.736 396.488C468.313 397.579 468.775 398.726 469.114 399.912L470.299 404.058L470.969 407.027C471.143 407.797 472.275 407.67 472.275 406.882V405.481C472.275 403.225 471.967 400.98 471.359 398.807L471.259 398.453C470.623 396.18 469.632 394.022 468.322 392.058C467.384 390.65 466.289 389.353 465.06 388.192L461.828 385.139C455.813 380.44 449.444 376.212 442.779 372.492L440.65 371.303L427.096 363.679L420.909 359.79C418.459 358.25 416.253 356.353 414.363 354.161C411.591 350.945 409.557 347.161 408.405 343.074L408.241 342.496C407.45 339.69 407.048 336.787 407.048 333.871V333.536C407.048 330.677 407.407 327.829 408.115 325.06L410.154 317.089L414.39 306.359L419.094 297.343C420.468 294.709 421.434 291.883 421.958 288.959L422.175 287.75C422.812 284.201 422.64 280.554 421.671 277.08C420.421 272.601 417.894 268.582 414.398 265.515L411.409 262.892C407.783 259.71 403.575 257.262 399.017 255.682L390.569 252.753C386.689 251.408 382.715 250.353 378.679 249.596L366.67 247.344L342.386 244.52H316.973Z" fill="#7F6966" stroke="#7F6966" stroke-width="3"/>
<path d="M464.065 424.572L466.967 425.217C467.808 425.403 468.489 426.018 468.761 426.835C468.844 427.085 468.887 427.346 468.887 427.61V428.559C468.887 429.165 468.82 429.769 468.689 430.361L468.562 430.932C468.402 431.651 468.184 432.357 467.911 433.04C467.435 434.23 466.793 435.349 466.007 436.361L465.861 436.548C465.432 437.1 464.953 437.611 464.431 438.075C463.272 439.105 461.916 439.889 460.446 440.379L460.133 440.483C457.88 441.047 455.689 441.833 453.592 442.832L444.886 446.978L442.062 448.107C441.574 448.302 441.106 447.787 441.346 447.32L450.251 430.036L451.551 427.761C452.174 426.67 453.128 425.807 454.276 425.297C454.79 425.069 455.334 424.915 455.891 424.841L459.286 424.388H462.394C462.956 424.388 463.516 424.45 464.065 424.572Z" fill="#461482"/>
<path d="M488.652 455.449L488.031 453.895C487.698 453.062 487.581 452.158 487.693 451.268C487.767 450.671 487.943 450.091 488.212 449.553L488.652 448.672C488.935 448.013 489.613 446.639 490.064 446.413C490.516 446.187 491.006 445.566 491.194 445.283L492.477 443.786C492.751 443.467 493.05 443.172 493.373 442.903L494.092 442.304C494.415 442.034 494.679 441.701 494.868 441.324L495.334 440.392C495.565 439.929 496.039 439.636 496.557 439.636C496.92 439.636 497.268 439.78 497.524 440.037L498.253 440.766C499.568 442.269 500.746 443.886 501.774 445.598L502.771 447.26L503.449 448.447C503.749 448.971 503.981 449.531 504.14 450.114C504.535 451.563 504.464 453.1 503.936 454.506L503.9 454.602L494.582 472.673L493.735 474.085C493.548 474.459 492.994 474.388 492.907 473.979L489.5 457.99L488.652 455.449Z" fill="#461482"/>
<path d="M467.757 415.917L457.177 440.333C456.928 440.907 457.134 441.577 457.663 441.913L458.58 442.495L460.416 443.66L464.087 445.989C468.969 449.088 474.148 451.691 479.547 453.761L479.899 453.896L484.135 455.519L486.252 456.331L487.311 456.737L487.841 456.94C488.148 457.058 488.495 456.941 488.669 456.661L504.465 431.165L517.454 409.988L518.227 408.482C525.018 395.246 529.892 381.112 532.702 366.503L533.132 362.489C533.4 359.985 532.723 357.471 531.234 355.44C530.709 354.724 530.092 354.08 529.398 353.526L528.503 352.809C526.982 351.592 525.281 350.62 523.461 349.926L522.135 349.422C520.898 348.95 519.63 348.568 518.338 348.278L515.17 347.565C514.811 347.484 514.459 347.374 514.118 347.235C511.679 346.244 508.886 346.773 506.978 348.586L504.465 350.973L496.559 358.738C489.249 367.828 483.174 377.845 478.491 388.528L476.511 393.046L467.757 415.917Z" fill="#F1DFC8"/>
<path d="M480.464 435.118L479.052 434.554L468.887 459.684L466.345 466.179L483.287 436.53L480.464 435.118Z" fill="#461482" stroke="#461482"/>
<path d="M520.56 355.491L518.283 354.298C515.853 353.025 513.543 351.534 511.383 349.843L509.759 348.573L508.948 347.937C508.541 347.619 508.553 347 508.971 346.697L516.324 341.372L517.795 340.594C520.005 339.424 522.359 338.546 524.795 337.984L526.631 337.56L527.549 337.349L527.741 337.304C528.174 337.204 528.623 337.393 528.854 337.772L529.243 338.408L530.019 339.678C531.045 341.357 531.745 343.215 532.083 345.154L532.702 348.714L533.247 359.067C533.257 359.259 533.084 359.409 532.896 359.373L532.525 359.303L531.784 359.162L530.302 358.879C528.33 358.504 526.403 357.925 524.551 357.154L520.56 355.491Z" fill="#461482"/>
<path d="M488.68 399.356L489.444 398.631C492.732 395.512 497.896 395.551 501.136 398.718C504.62 402.122 504.501 407.763 500.877 411.018L500.093 411.722C496.642 414.821 491.333 414.543 488.225 411.1C485.165 407.711 485.366 402.499 488.68 399.356Z" fill="#D48985" stroke="#FEEDD2" stroke-width="4"/>
<path d="M502.233 372.249L502.998 371.523C506.285 368.405 511.45 368.444 514.69 371.611C518.174 375.015 518.055 380.656 514.431 383.91L513.647 384.615C510.195 387.714 504.887 387.436 501.778 383.993C498.718 380.603 498.92 375.391 502.233 372.249Z" fill="#D48985" stroke="#FEEDD2" stroke-width="4"/>
</g>
<g filter="url(#filter3_d_14_32)">
<path d="M308.502 383.727L307.509 381.079C307.049 379.852 306.905 378.53 307.09 377.233L307.232 376.245L307.302 375.751C307.327 375.577 307.553 375.526 307.65 375.672L307.938 376.104L308.502 376.951L309.263 377.82C310.069 378.741 310.736 379.776 311.243 380.891C311.673 381.837 312.219 382.726 312.868 383.538L314.15 385.139C315.842 387.019 317.395 389.019 318.798 391.124L318.95 391.351L320.926 394.175L323.185 396.999L324.369 398.183C325.085 398.898 325.749 399.664 326.356 400.474L326.869 401.157C327.61 402.146 328.474 403.037 329.439 403.809C330.349 404.537 331.343 405.154 332.399 405.647L335.045 406.882L339.563 409.423L340.66 409.88C342.179 410.513 343.783 410.918 345.421 411.082C347.52 411.292 349.64 411.102 351.669 410.522L352.552 410.27L355.694 409.746C356.984 409.531 358.248 409.184 359.467 408.71C361.616 407.874 363.595 406.656 365.308 405.114L365.54 404.905L367.706 402.739C367.767 402.678 367.814 402.603 367.841 402.521L368.862 399.459C368.874 399.422 368.929 399.43 368.929 399.469V399.681V400.105V400.952V402.646V403.541C368.929 405.007 368.71 406.465 368.278 407.866C367.96 408.901 367.528 409.897 366.991 410.837L366.665 411.408C365.917 412.716 365.029 413.938 364.016 415.053L363.565 415.549C363 416.17 362.388 416.745 361.733 417.269L361.164 417.724C360.321 418.398 359.384 418.945 358.382 419.345C357.511 419.694 356.598 419.929 355.666 420.046L354.855 420.147C353.326 420.338 351.779 420.325 350.254 420.107L348.598 419.87L343.516 418.741L343.45 418.722C340.862 417.983 338.335 417.045 335.892 415.917L334.914 415.33C332.747 414.031 330.711 412.525 328.833 410.835L324.597 406.882L322.056 404.058L318.95 400.387L316.126 396.999L315.097 395.764C313.903 394.331 312.827 392.802 311.881 391.194C310.948 389.607 310.144 387.948 309.476 386.232L308.502 383.727Z" fill="#B8AEAC" stroke="#B8AEAC" stroke-width="3"/>
<path d="M220.08 421.161L219.851 421.097C217.646 420.485 215.706 419.16 214.333 417.329L213.274 415.917L212.744 415.211C212.56 414.966 212.778 414.623 213.079 414.685L218.299 415.773C218.751 415.867 219.22 415.826 219.649 415.654L222.918 414.347C224.06 413.89 225.138 413.284 226.122 412.546L227.578 411.454C228.629 410.666 229.623 409.804 230.553 408.874L232.263 407.164C233.948 405.292 235.349 403.182 236.422 400.903L237.063 399.54L239.322 394.175L241.016 388.245L241.527 385.861C242.314 382.19 242.711 378.446 242.711 374.692V370.345C242.711 368.734 242.47 367.132 241.996 365.592L241.881 365.218C241.681 364.57 241.539 363.906 241.455 363.233L241.079 360.224C241.038 359.899 241.096 359.568 241.242 359.275C241.456 358.847 241.849 358.53 242.313 358.414C242.574 358.349 242.847 358.349 243.108 358.414L243.598 358.536C244.481 358.757 245.249 359.299 245.754 360.056L247.229 362.268L247.442 362.665C248.609 364.831 249.401 367.18 249.785 369.611C249.963 370.737 250.052 371.876 250.052 373.016V378.08L249.205 385.704L248.076 393.046L246.381 399.54L244.123 405.752L241.016 411.682L240.224 413.003C239.071 414.925 237.529 416.585 235.698 417.877C234.357 418.824 232.879 419.56 231.316 420.061L229.2 420.738C227.488 421.286 225.7 421.565 223.902 421.565H223.041C222.04 421.565 221.044 421.429 220.08 421.161Z" fill="#B8AEAC" stroke="#B8AEAC" stroke-width="3"/>
<path d="M234.048 373.633L233.186 374.448C231.823 375.735 230.308 376.853 228.676 377.775C226.012 379.281 223.075 380.244 220.037 380.609C218.404 380.805 216.754 380.826 215.116 380.673L213.062 380.48L209.151 380.114C208.808 380.081 208.498 380.318 208.438 380.657L208.332 381.257L208.121 382.457C207.839 384.431 207.697 386.422 207.697 388.417V389.657V395.869V400.952L208.243 405.14C208.443 406.673 208.804 408.181 209.318 409.64L209.886 411.249C210.12 411.911 210.436 412.542 210.825 413.127L211.242 413.752C212.054 414.97 213.261 415.87 214.66 416.3C215.651 416.605 216.7 416.663 217.718 416.469L219.974 416.04C221.383 415.771 222.749 415.31 224.032 414.668L224.619 414.374C225.946 413.711 227.197 412.904 228.348 411.968L229.189 411.285C230.483 410.234 231.686 409.074 232.783 407.82C234.314 406.071 235.632 404.147 236.71 402.089L236.883 401.759C237.754 400.095 238.481 398.358 239.053 396.568L240.452 392.198L241.864 384.857L242.711 376.386V368.48V366.328C242.711 364.76 242.473 363.2 242.005 361.703L241.652 360.715L241.475 360.22C241.42 360.065 241.198 360.072 241.152 360.23L241.052 360.573L240.805 361.42L240.311 363.115L240.155 363.647C239.602 365.543 238.801 367.357 237.771 369.041C236.739 370.73 235.487 372.274 234.048 373.633Z" fill="#E0CFBD" stroke="#E0CFBD" stroke-width="3"/>
<path d="M310.11 377.443L309.349 376.809C308.786 376.34 308.266 375.82 307.796 375.256L307.443 374.833C307.384 374.762 307.271 374.831 307.308 374.916L308.785 378.362L310.761 381.751C312.265 384.382 313.971 386.893 315.864 389.259L316.409 389.94L319.797 394.457L324.597 399.822L328.55 403.776L333.633 408.011L335.448 409.134C338.158 410.812 341.204 411.871 344.37 412.237C346.054 412.431 347.754 412.427 349.437 412.225L351.033 412.033C352.981 411.8 354.898 411.357 356.751 410.712C359.209 409.857 361.533 408.655 363.652 407.142L364.411 406.599L365.478 405.629C366.811 404.417 367.779 402.858 368.274 401.126C368.521 400.261 368.646 399.366 368.646 398.467V395.587C368.646 391.829 368.323 388.078 367.679 384.376L367.517 383.445L365.823 377.515L363.281 371.021L361.544 367.546C360.821 366.1 359.986 364.713 359.046 363.397L358.34 362.409L356.787 360.291C356.483 359.835 355.772 360.081 355.814 360.627L356.209 365.762C356.218 365.879 356.216 365.997 356.203 366.114L355.814 369.614C355.71 370.551 355.531 371.477 355.279 372.384C354.598 374.835 353.395 377.109 351.752 379.05L351.14 379.774L350.152 380.762C348.38 382.534 346.281 383.945 343.972 384.917C342.73 385.44 341.437 385.832 340.113 386.087L338.41 386.414C335.996 386.879 333.521 386.925 331.092 386.551L326.574 385.704C323.191 384.576 319.904 383.178 316.745 381.524L315.561 380.904L313.932 380.026C312.575 379.295 311.294 378.43 310.11 377.443Z" fill="#E0CFBD" stroke="#E0CFBD" stroke-width="3"/>
<path d="M106.892 123.103L122.422 162.634L130.893 179.011L135.129 187.2L137.247 191.294C138.489 193.697 141.215 194.938 143.843 194.298L297.259 156.945C299.844 156.315 301.606 153.924 301.443 151.269L301.161 146.68L300.596 137.503L299.466 119.149L291.843 65.2173L284.279 29.7125C282.608 21.8664 278.004 14.9544 271.409 10.3882C266.144 6.74338 259.893 4.79071 253.49 4.79071H244.5C239.189 4.79071 233.901 5.49281 228.775 6.87876L115.132 37.5997C110.445 38.8667 106.081 41.1156 102.33 44.1973L101.125 45.1868C95.3837 49.9029 91.5842 56.5715 90.4544 63.9151C89.7511 68.4869 90.1082 73.1592 91.4982 77.5709L95.8797 91.4774L106.892 123.103Z" fill="#F7EDE1" stroke="#F7EDE1" stroke-width="3"/>
<path d="M130.893 142.868L138.517 162.352L142.894 173.505L145.082 179.082L146.176 181.87C146.812 183.49 148.506 184.433 150.217 184.12L276.751 160.973C282.222 159.972 286.195 155.206 286.195 149.645L284.501 133.268L276.595 78.2061L272.719 59.6417C271.738 54.9464 269.727 50.5274 266.831 46.7041C260.708 38.6226 251.155 33.8745 241.016 33.8745H234.563C230.6 33.8745 226.653 34.3939 222.825 35.4194L139.839 57.6478C135.794 58.7311 131.993 60.5741 128.638 63.0786C119.351 70.0112 114.382 81.308 115.548 92.8385L115.822 95.5452C116.08 98.0975 116.597 100.617 117.366 103.065L123.834 123.667L130.893 142.868Z" fill="#E1D0BE" stroke="#E1D0BE" stroke-width="3"/>
<path d="M253.48 69.504L134.472 98.4373C132.668 98.8758 130.967 99.6613 129.464 100.75C125.75 103.439 123.552 107.746 123.552 112.33V114.644C123.552 116.322 123.776 117.993 124.219 119.612L131.327 145.592C131.602 146.597 131.985 147.569 132.47 148.491C135.396 154.049 141.594 157.061 147.772 155.926L151.224 155.292L273.232 125.419C274.152 125.193 275.036 124.843 275.861 124.377C279.106 122.543 281.113 119.103 281.113 115.375V112.003C281.113 110.748 280.966 109.497 280.676 108.275L273.606 78.5343C273.157 76.6458 272.287 74.8832 271.061 73.3784C268.344 70.0435 264.14 68.2859 259.858 68.6937L256.258 69.0366C255.322 69.1257 254.394 69.2819 253.48 69.504Z" fill="#F7EDE1" stroke="#F7EDE1" stroke-width="3"/>
<path d="M294.022 145.127H280.577C276.995 145.127 273.614 143.474 271.416 140.647C269.831 138.609 268.971 136.102 268.971 133.521V125.358C268.971 123.106 268.756 120.86 268.329 118.65L266.902 111.255C266.212 107.675 265.254 104.153 264.037 100.716C262.062 95.1424 259.419 89.8291 256.163 84.893L255.977 84.6114C253.538 80.9131 250.779 77.4359 247.732 74.2197L242.146 68.3233L238.381 65.1688C233.956 61.4616 228.95 58.5094 223.565 56.4308C218.292 54.3955 212.725 53.225 207.078 52.9644L205.953 52.9125C200.182 52.6461 194.402 53.2227 188.797 54.624L186.001 55.3229C182.217 56.269 178.547 57.6264 175.058 59.3709L174.266 59.7672C167.466 63.1669 161.538 68.0824 156.938 74.1348C154.456 77.4012 152.388 80.9627 150.781 84.7377L150.062 86.4279C148.393 90.3493 147.118 94.4267 146.255 98.6L145.883 100.396C144.74 105.919 144.164 111.544 144.164 117.183V119.502C144.164 124.15 144.624 128.786 145.535 133.344C146.873 140.035 149.174 146.496 152.367 152.526L152.635 153.033L158.642 161.581C159.458 162.743 159.539 164.27 158.849 165.512C158.661 165.85 158.421 166.157 158.138 166.421L155.347 169.026C154.67 169.658 154.039 170.339 153.46 171.062C151.799 173.139 149.724 174.846 147.366 176.076L144.447 177.599L136.823 180.423L131.176 183.247L130.089 183.926C129.309 184.413 128.487 184.83 127.633 185.172C125.685 185.951 123.916 187.118 122.433 188.601L120.163 190.871L118.082 192.822C116.684 194.133 114.534 194.217 113.037 193.02C112.894 192.905 112.759 192.78 112.633 192.646L111.357 191.285C109.518 189.323 107.424 187.619 105.13 186.217L103.504 185.223L98.421 181.835L91.5196 177.853C91.2312 177.687 90.9042 177.599 90.5713 177.599C89.7067 177.599 88.9514 178.184 88.7344 179.021L87.3983 184.174C87.2177 184.871 86.952 185.543 86.6074 186.175L84.9697 189.177C84.1496 190.681 83.2221 192.123 82.1945 193.493C80.9668 195.13 79.6003 196.658 78.1103 198.061L75.5493 200.471L74.0129 201.751C71.6646 203.708 69.0112 205.266 66.1582 206.364C64.1429 207.139 62.0446 207.678 59.9052 207.969L56.913 208.377H50.9849C50.7965 208.377 50.6091 208.351 50.4279 208.299L48.4641 207.738C47.2541 207.393 46.29 208.772 47.0302 209.789L50.701 214.307L54.0894 218.825L57.7601 224.19L63.1251 230.402L68.2077 235.485L73.5727 241.132L79.22 246.497C82.9728 249.687 87.076 252.44 91.4507 254.702L93.056 255.533L101.809 261.18C105.358 263.048 109.209 264.275 113.184 264.805L115.645 265.133H121.857H128.07L135.129 262.31L142.188 258.356L147.271 255.533L152.635 252.144L153.427 251.579C156.125 249.652 159.906 250.591 161.389 253.556L164.528 259.611C165.07 260.656 165.685 261.661 166.369 262.618C167.562 264.289 168.544 266.1 169.292 268.011L170.707 271.628L172.684 276.993L174.821 282.692C175.08 283.383 175.062 284.148 174.772 284.827C174.517 285.422 174.47 286.086 174.641 286.71L175.225 288.852L176.637 292.805L177.484 295.911L177.749 297.369C177.948 298.466 178.237 299.545 178.612 300.595L179.042 301.798C179.32 302.577 179.692 303.318 180.151 304.006L180.601 304.681C180.967 305.23 181.428 305.711 181.962 306.099L182.434 306.442C183.582 307.277 184.261 308.61 184.261 310.03L184.471 311.61C184.706 313.374 184.726 315.159 184.53 316.927C184.351 318.536 184.351 320.159 184.53 321.768L184.825 324.43V330.36V337.702L185.672 343.914L187.084 350.408L189.343 356.903L191.037 361.985L191.316 362.623C192.444 365.201 193.867 367.64 195.555 369.891L195.792 370.207C197.882 372.993 200.371 375.456 203.179 377.515L205.34 379.136C206.89 380.298 208.691 381.079 210.598 381.416C211.857 381.638 213.142 381.663 214.408 381.49L218.709 380.904C221.901 380.153 225.005 379.071 227.972 377.675L228.31 377.515L230.175 376.309C232.122 375.049 233.885 373.524 235.413 371.778C236.51 370.523 237.48 369.162 238.307 367.715L238.489 367.397C239.791 365.118 240.775 362.67 241.411 360.123L241.581 359.444L242.428 352.385L244.122 348.432L245.534 343.914C246.474 341.094 247.192 338.206 247.68 335.274L247.793 334.596L248.923 328.948L249.947 324.851C250.017 324.572 250.052 324.285 250.052 323.997V322.991C250.052 321.603 251.178 320.477 252.566 320.477C252.772 320.477 252.977 320.452 253.176 320.402L253.421 320.341C255.154 319.908 256.979 320.524 258.095 321.918L258.523 322.454L261.912 326.689L266.429 332.619L270.1 337.137L274.9 343.067L279.418 348.432L285.066 354.361L290.431 360.573L296.36 366.221L302.008 370.456L302.135 370.576C305.616 373.874 309.456 376.77 313.585 379.21L318.667 382.598L321.428 383.978C323.719 385.124 326.149 385.969 328.658 386.491C330.651 386.906 332.683 387.116 334.719 387.116H335.045H338.152C339.649 387.116 341.139 386.901 342.576 386.479C344.319 385.966 345.959 385.155 347.424 384.08L348.158 383.542C349.015 382.914 349.823 382.221 350.574 381.469L351.297 380.746C352.318 379.725 353.216 378.588 353.973 377.359C354.717 376.149 355.319 374.858 355.769 373.511L355.797 373.426C356.453 371.459 356.787 369.399 356.787 367.326V361.703V352.667V352.029C356.787 347.389 356.218 342.767 355.093 338.266L351.422 328.948L350.982 327.789C349.211 323.119 346.894 318.674 344.08 314.547L337.304 302.97L330.527 291.958L322.621 280.663L319.81 275.886C317.977 272.77 317.299 269.109 317.893 265.544C318.033 264.707 318.103 263.86 318.103 263.011V259.204V257.633C318.103 254.173 317.724 250.722 316.973 247.344L316.005 243.083C315.711 241.791 315.203 240.559 314.501 239.436L314.277 239.077C313.27 237.466 311.839 236.165 310.14 235.315L309.764 235.127C309.114 234.803 308.421 234.574 307.706 234.45C304.485 233.89 302.005 231.298 301.587 228.056L301.161 224.755C300.639 221.757 303.44 219.25 306.362 220.098L308.785 220.802L320.079 223.343L330.527 224.755H340.692H349.728H357.916L367.517 223.343L373.729 221.931L381.07 219.672L387.847 216.848L393.273 214.218C395.861 212.963 398.314 211.447 400.595 209.693L402.581 208.165C403.861 207.18 405.021 206.05 406.039 204.798C407.456 203.054 408.58 201.093 409.369 198.99L409.872 197.647L411.534 190.243C411.97 188.3 409.628 186.964 408.178 188.329L407.847 188.587C404.732 191.009 401.044 192.586 397.141 193.165C396.029 193.329 394.907 193.412 393.784 193.412H392.937C390.306 193.412 387.683 193.11 385.12 192.512L384.334 192.329C381.792 191.736 379.336 190.823 377.024 189.612C375.395 188.758 373.846 187.762 372.395 186.633L369.493 184.376L367.146 182.152C365.14 180.252 363.333 178.15 361.755 175.881L361.244 175.147C360.157 173.585 359.218 171.926 358.437 170.191L357.285 167.632C357.142 167.313 357.033 166.979 356.961 166.637C356.4 163.972 353.763 162.286 351.109 162.894L346.715 163.901C343.977 164.528 341.103 163.884 338.894 162.149L338.433 161.787L328.833 156.14L315.279 149.927L305.763 146.932C301.964 145.736 298.005 145.127 294.022 145.127Z" fill="#F7EDE1"/>
<path d="M357.916 224.755L367.517 223.343L373.729 221.931L381.071 219.672L387.847 216.848L393.273 214.218C395.861 212.963 398.314 211.447 400.595 209.693L402.581 208.165C403.861 207.18 405.021 206.05 406.039 204.797V204.797C407.456 203.054 408.58 201.093 409.369 198.99L409.872 197.647L411.534 190.243C411.97 188.3 409.628 186.964 408.178 188.329V188.329L407.847 188.587C404.732 191.009 401.044 192.586 397.141 193.165V193.165C396.029 193.329 394.907 193.412 393.784 193.412H392.937C390.306 193.412 387.683 193.11 385.12 192.512L384.334 192.329C381.792 191.736 379.336 190.823 377.024 189.612V189.612C375.395 188.758 373.846 187.762 372.395 186.633L369.493 184.376L367.146 182.152C365.14 180.252 363.333 178.15 361.755 175.881L361.244 175.147C360.157 173.585 359.218 171.926 358.437 170.191L357.285 167.632C357.142 167.313 357.033 166.979 356.961 166.637V166.637C356.4 163.972 353.763 162.286 351.109 162.894L346.715 163.901C343.977 164.528 341.103 163.884 338.894 162.149L338.433 161.787L328.833 156.14L315.279 149.927L305.763 146.932C301.964 145.736 298.005 145.127 294.022 145.127H280.577C276.995 145.127 273.614 143.474 271.416 140.647V140.647C269.831 138.609 268.971 136.102 268.971 133.521V125.358C268.971 123.106 268.756 120.86 268.329 118.65L266.902 111.255C266.212 107.675 265.254 104.153 264.037 100.716V100.716C262.062 95.1424 259.419 89.8291 256.163 84.893L255.977 84.6114C253.538 80.9131 250.779 77.4359 247.732 74.2197L242.146 68.3233L238.381 65.1688C233.956 61.4616 228.95 58.5094 223.565 56.4308V56.4308C218.292 54.3955 212.725 53.225 207.078 52.9644L205.953 52.9125C200.182 52.6461 194.402 53.2227 188.797 54.624L186.001 55.3229C182.217 56.269 178.547 57.6264 175.058 59.3709L174.266 59.7672C167.466 63.1669 161.538 68.0824 156.938 74.1348V74.1348C154.456 77.4012 152.388 80.9626 150.781 84.7377L150.062 86.4279C148.393 90.3493 147.118 94.4266 146.255 98.6L145.883 100.396C144.74 105.919 144.164 111.544 144.164 117.183V119.502C144.164 124.15 144.624 128.786 145.535 133.344V133.344C146.873 140.035 149.174 146.496 152.367 152.526L152.635 153.033L158.642 161.581C159.458 162.743 159.539 164.27 158.849 165.512V165.512C158.661 165.85 158.421 166.157 158.138 166.421L155.347 169.026C154.67 169.658 154.039 170.339 153.46 171.062V171.062C151.799 173.139 149.724 174.846 147.366 176.076L144.447 177.599L136.823 180.423L131.176 183.247L130.089 183.926C129.309 184.413 128.487 184.83 127.633 185.172V185.172C125.685 185.951 123.916 187.118 122.433 188.601L120.163 190.871L118.082 192.822C116.684 194.133 114.534 194.217 113.037 193.02V193.02C112.894 192.905 112.759 192.78 112.633 192.646L111.357 191.285C109.518 189.323 107.424 187.619 105.13 186.217L103.504 185.223L98.421 181.835L91.5196 177.853C91.2312 177.687 90.9042 177.599 90.5713 177.599V177.599C89.7067 177.599 88.9514 178.184 88.7344 179.021L87.3983 184.174C87.2177 184.871 86.952 185.543 86.6074 186.175L84.9697 189.177C84.1496 190.681 83.2221 192.123 82.1945 193.493V193.493C80.9668 195.13 79.6003 196.658 78.1103 198.061L75.5493 200.471L74.0129 201.751C71.6646 203.708 69.0112 205.266 66.1582 206.364V206.364C64.1429 207.139 62.0446 207.678 59.9052 207.969L56.913 208.377H50.9849C50.7965 208.377 50.6091 208.351 50.4279 208.299L48.4641 207.738C47.2541 207.393 46.29 208.772 47.0302 209.789V209.789L50.701 214.307L54.0894 218.825L57.7601 224.19L63.1251 230.402L68.2077 235.485L73.5727 241.132L79.22 246.497V246.497C82.9728 249.687 87.076 252.44 91.4507 254.702L93.056 255.533L101.809 261.18V261.18C105.358 263.048 109.209 264.275 113.184 264.805L115.645 265.133M357.916 224.755H349.728M357.916 224.755L354.698 221.751C354.023 221.121 353.436 220.403 352.952 219.617V219.617C351.952 217.991 351.422 216.12 351.422 214.212V212.895M349.728 224.755H340.692M349.728 224.755L347.789 223.37C346.453 222.416 345.266 221.27 344.265 219.969V219.969C343.393 218.835 342.67 217.593 342.114 216.274L341.647 215.162C341.012 213.655 340.54 212.085 340.239 210.478V210.478C339.977 209.08 339.845 207.662 339.845 206.241V204.424M340.692 224.755H330.527L320.079 223.343L308.785 220.802L306.362 220.098C303.44 219.25 300.639 221.757 301.161 224.755V224.755L301.587 228.056C302.005 231.298 304.485 233.89 307.706 234.45V234.45C308.421 234.574 309.114 234.803 309.764 235.127L310.14 235.315C311.839 236.165 313.27 237.466 314.277 239.077L314.501 239.436C315.203 240.559 315.711 241.791 316.005 243.083L316.973 247.344V247.344C317.724 250.722 318.103 254.173 318.103 257.633V259.204V263.011C318.103 263.86 318.033 264.707 317.893 265.544V265.544C317.299 269.109 317.977 272.77 319.81 275.886L322.621 280.663L330.527 291.958L337.304 302.97L344.08 314.547V314.547C346.894 318.674 349.211 323.119 350.982 327.789L351.422 328.948L355.093 338.266V338.266C356.218 342.767 356.787 347.389 356.787 352.029V352.667V361.703M340.692 224.755L339.007 223.164C336.762 221.043 334.939 218.517 333.633 215.719V215.719V215.719C332.511 212.353 331.939 208.827 331.939 205.279V204.424V199.906M356.787 361.703L355.305 364.073C354.418 365.493 353.276 366.736 351.937 367.74L350.801 368.593C349.188 369.802 347.226 370.456 345.21 370.456V370.456M356.787 361.703V367.326C356.787 369.399 356.453 371.459 355.797 373.426L355.769 373.511C355.319 374.859 354.717 376.149 353.973 377.359V377.359C353.216 378.588 352.318 379.725 351.297 380.746L350.574 381.469C349.823 382.221 349.015 382.914 348.158 383.542L347.424 384.08C345.959 385.155 344.319 385.966 342.576 386.479V386.479C341.139 386.901 339.649 387.116 338.152 387.116H335.045H334.719C332.683 387.116 330.651 386.906 328.658 386.491V386.491C326.149 385.969 323.719 385.124 321.428 383.978L318.667 382.598L313.585 379.21V379.21C309.456 376.77 305.616 373.874 302.135 370.576L302.008 370.456L296.36 366.221L290.431 360.573L285.066 354.361L279.418 348.432L274.9 343.067L270.1 337.137L266.429 332.619L261.912 326.689L258.523 322.454L258.095 321.918C256.979 320.524 255.154 319.908 253.421 320.341L253.176 320.402C252.977 320.452 252.772 320.477 252.566 320.477V320.477C251.178 320.477 250.052 321.603 250.052 322.991V323.997C250.052 324.285 250.017 324.572 249.947 324.851L248.923 328.948L247.793 334.596L247.68 335.274C247.192 338.206 246.474 341.094 245.534 343.914V343.914L244.122 348.432L242.428 352.385M242.428 352.385L241.517 354.206C240.809 355.623 239.946 356.956 238.943 358.182V358.182C238.255 359.022 237.505 359.808 236.699 360.534L235.087 361.985L233.11 363.962M242.428 352.385L241.581 359.444L241.411 360.123C240.775 362.67 239.791 365.118 238.489 367.397L238.307 367.715C237.48 369.162 236.51 370.523 235.413 371.778V371.778C233.885 373.524 232.122 375.049 230.175 376.309L228.31 377.515L227.972 377.675C225.005 379.071 221.901 380.153 218.709 380.904V380.904L214.408 381.49C213.142 381.663 211.857 381.638 210.598 381.416V381.416C208.691 381.079 206.89 380.298 205.341 379.136L203.179 377.515V377.515C200.371 375.456 197.882 372.993 195.792 370.207L195.555 369.891V369.891C193.867 367.64 192.444 365.201 191.316 362.623L191.037 361.985L189.343 356.903L187.084 350.408L185.672 343.914L184.825 337.702V330.36V324.43L184.53 321.768C184.351 320.159 184.351 318.536 184.53 316.927V316.927C184.726 315.159 184.706 313.374 184.471 311.61L184.261 310.03V310.03C184.261 308.61 183.582 307.277 182.434 306.442L181.962 306.099C181.428 305.711 180.967 305.23 180.601 304.681L180.151 304.006C179.692 303.318 179.32 302.577 179.042 301.798L178.612 300.595C178.237 299.545 177.948 298.466 177.749 297.369L177.484 295.911L176.637 292.805L175.225 288.852L174.641 286.71C174.47 286.086 174.517 285.422 174.772 284.827V284.827C175.062 284.148 175.08 283.383 174.821 282.692L172.684 276.993L170.707 271.628L169.292 268.011C168.544 266.1 167.562 264.289 166.369 262.618V262.618C165.685 261.661 165.07 260.656 164.528 259.611L161.389 253.556V253.556C159.906 250.591 156.125 249.652 153.427 251.579L152.635 252.144L147.271 255.533L142.188 258.356L135.129 262.31L128.07 265.133M128.07 265.133L137.099 258.65C138.416 257.705 139.611 256.601 140.658 255.364V255.364C141.674 254.163 142.543 252.845 143.247 251.438L143.606 250.72C144.166 249.6 144.646 248.442 145.041 247.255L145.859 244.803M128.07 265.133H121.857H115.645M115.645 265.133L122.859 261.977C124.058 261.453 125.124 260.664 125.976 259.67V259.67C127.327 258.093 128.07 256.086 128.07 254.01V253.556V247.909" stroke="#E0CFBD" stroke-width="3"/>
<path d="M258.502 193.541L230.304 201.635C229.729 201.8 229.175 202.028 228.651 202.316C225.727 203.925 224.104 207.175 224.576 210.479L224.639 210.919L234.447 247.971C234.683 248.861 235.102 249.692 235.677 250.411C237.222 252.343 239.716 253.251 242.142 252.766L243.84 252.427L272.077 244.803L273.281 244.335C275.682 243.401 277.407 241.261 277.809 238.715C277.94 237.886 277.925 237.039 277.766 236.215L270.795 200.069C270.524 198.665 269.907 197.352 268.998 196.248C267.372 194.274 264.948 193.13 262.39 193.13H261.426C260.437 193.13 259.453 193.268 258.502 193.541Z" fill="#FFFAF5"/>
<path d="M206.674 211.065L185.626 215.223C184.911 215.364 184.231 215.645 183.624 216.049C182.081 217.078 181.155 218.809 181.155 220.664V221.62C181.155 222.202 181.224 222.782 181.361 223.347L187.678 249.405C187.845 250.095 188.146 250.746 188.564 251.32C189.586 252.725 191.218 253.556 192.956 253.556H194.226C194.735 253.556 195.242 253.507 195.741 253.41L215.372 249.586C216.27 249.411 217.125 249.059 217.887 248.551C219.812 247.268 220.968 245.107 220.968 242.793V242.309C220.968 241.714 220.901 241.122 220.767 240.543L215.026 215.753C214.848 214.984 214.526 214.256 214.077 213.608C212.911 211.924 210.993 210.919 208.944 210.919H208.17C207.668 210.919 207.167 210.968 206.674 211.065Z" fill="#FFFAF5"/>
<path d="M294.384 237.461L275.324 257.305C274.3 258.37 273.517 259.642 273.025 261.034C272.404 262.793 272.27 264.687 272.636 266.515L272.924 267.957L277.159 286.875L277.782 289.782C277.929 290.465 278.269 291.091 278.763 291.585C279.01 291.833 279.292 292.043 279.6 292.209L284.282 294.746C285.352 295.325 286.55 295.629 287.767 295.629H287.919C289.191 295.629 290.438 295.271 291.517 294.597C291.921 294.344 292.298 294.05 292.64 293.719L317.163 269.986C317.968 269.207 318.593 268.263 318.995 267.217C319.519 265.856 319.645 264.374 319.359 262.944L318.95 260.898L315.862 242.368C315.664 241.184 315.194 240.062 314.487 239.091C313.71 238.022 312.673 237.171 311.473 236.617L310.824 236.317C310.032 235.952 309.198 235.687 308.34 235.528L302.787 234.499C302.269 234.403 301.743 234.355 301.216 234.355C299.175 234.355 297.2 235.079 295.642 236.397L294.384 237.461Z" fill="#FFFAF5"/>
<path d="M178.946 281.66L177.593 282.909C176.784 283.656 176.201 284.615 175.911 285.678C175.646 286.648 175.635 287.67 175.879 288.646L176.354 290.546L178.69 300.926C178.827 301.534 179.027 302.126 179.289 302.692C180.131 304.517 181.569 306.001 183.367 306.9L183.414 306.924L200.8 315.345C201.255 315.566 201.734 315.734 202.226 315.848L202.349 315.876C204.136 316.289 206.013 315.924 207.515 314.872C207.824 314.656 208.114 314.413 208.38 314.147L211.483 311.044C211.782 310.745 212.051 310.417 212.285 310.065C213.15 308.768 213.513 307.201 213.307 305.656L213.062 303.818L210.521 291.676C209.808 289.182 207.982 287.159 205.574 286.196L205.156 286.028L189.197 280.273C188.356 279.969 187.484 279.76 186.597 279.649L185.599 279.525C184.167 279.346 182.713 279.543 181.381 280.098C180.484 280.472 179.66 281.001 178.946 281.66Z" fill="#FFFAF5"/>
<path d="M258.502 193.541L230.304 201.635C229.729 201.8 229.175 202.028 228.651 202.316C225.727 203.925 224.104 207.175 224.576 210.479L224.639 210.919L234.447 247.971C234.683 248.861 235.102 249.692 235.677 250.411C237.222 252.343 239.716 253.251 242.142 252.766L243.84 252.427L272.077 244.803L273.281 244.335C275.682 243.401 277.407 241.261 277.809 238.715C277.94 237.886 277.925 237.039 277.766 236.215L270.795 200.069C270.524 198.665 269.907 197.352 268.998 196.248C267.372 194.274 264.948 193.13 262.39 193.13H261.426C260.437 193.13 259.453 193.268 258.502 193.541Z" stroke="#FFFAF5" stroke-width="3"/>
<path d="M206.674 211.065L185.626 215.223C184.911 215.364 184.231 215.645 183.624 216.049C182.081 217.078 181.155 218.809 181.155 220.664V221.62C181.155 222.202 181.224 222.782 181.361 223.347L187.678 249.405C187.845 250.095 188.146 250.746 188.564 251.32C189.586 252.725 191.218 253.556 192.956 253.556H194.226C194.735 253.556 195.242 253.507 195.741 253.41L215.372 249.586C216.27 249.411 217.125 249.059 217.887 248.551C219.812 247.268 220.968 245.107 220.968 242.793V242.309C220.968 241.714 220.901 241.122 220.767 240.543L215.026 215.753C214.848 214.984 214.526 214.256 214.077 213.608C212.911 211.924 210.993 210.919 208.944 210.919H208.17C207.668 210.919 207.167 210.968 206.674 211.065Z" stroke="#FFFAF5" stroke-width="3"/>
<path d="M294.384 237.461L275.324 257.305C274.3 258.37 273.517 259.642 273.025 261.034C272.404 262.793 272.27 264.687 272.636 266.515L272.924 267.957L277.159 286.875L277.782 289.782C277.929 290.465 278.269 291.091 278.763 291.585C279.01 291.833 279.292 292.043 279.6 292.209L284.282 294.746C285.352 295.325 286.55 295.629 287.767 295.629H287.919C289.191 295.629 290.438 295.271 291.517 294.597C291.921 294.344 292.298 294.05 292.64 293.719L317.163 269.986C317.968 269.207 318.593 268.263 318.995 267.217C319.519 265.856 319.645 264.374 319.359 262.944L318.95 260.898L315.862 242.368C315.664 241.184 315.194 240.062 314.487 239.091C313.71 238.022 312.673 237.171 311.473 236.617L310.824 236.317C310.032 235.952 309.198 235.687 308.34 235.528L302.787 234.499C302.269 234.403 301.743 234.355 301.216 234.355C299.175 234.355 297.2 235.079 295.642 236.397L294.384 237.461Z" stroke="#FFFAF5" stroke-width="3"/>
<path d="M178.946 281.66L177.593 282.909C176.784 283.656 176.201 284.615 175.911 285.678C175.646 286.648 175.635 287.67 175.879 288.646L176.354 290.546L178.69 300.926C178.827 301.534 179.027 302.126 179.289 302.692C180.131 304.517 181.569 306.001 183.367 306.9L183.414 306.924L200.8 315.345C201.255 315.566 201.734 315.734 202.226 315.848L202.349 315.876C204.136 316.289 206.013 315.924 207.515 314.872C207.824 314.656 208.114 314.413 208.38 314.147L211.483 311.044C211.782 310.745 212.051 310.417 212.285 310.065C213.15 308.768 213.513 307.201 213.307 305.656L213.062 303.818L210.521 291.676C209.808 289.182 207.982 287.159 205.574 286.196L205.156 286.028L189.197 280.273C188.356 279.969 187.484 279.76 186.597 279.649L185.599 279.525C184.167 279.346 182.713 279.543 181.381 280.098C180.484 280.472 179.66 281.001 178.946 281.66Z" stroke="#FFFAF5" stroke-width="3"/>
<path d="M136.042 129.58L136.061 129.549C136.376 129.024 136.815 128.585 137.34 128.27C138.576 127.528 140.129 127.565 141.328 128.365L141.417 128.424C141.741 128.64 142.029 128.905 142.273 129.209C143.379 130.591 143.379 132.556 142.273 133.938C142.029 134.242 141.741 134.507 141.417 134.723L141.328 134.782C140.129 135.582 138.576 135.619 137.34 134.877C136.815 134.562 136.376 134.123 136.061 133.598L136.042 133.567C135.306 132.34 135.306 130.807 136.042 129.58Z" fill="#B8AEAC" stroke="#B8AEAC" stroke-width="3"/>
<path d="M133.179 112.583L133.327 112.493C134.61 111.724 136.231 111.735 137.514 112.505C137.985 112.787 138.398 113.17 138.713 113.62C139.62 114.916 139.658 116.631 138.808 117.966L138.645 118.223C138.374 118.648 138.022 119.016 137.609 119.305C136.289 120.229 134.533 120.229 133.213 119.305L133.132 119.248C132.771 118.996 132.455 118.685 132.197 118.33L132.05 118.128C131.033 116.73 131.077 114.825 132.157 113.476C132.442 113.12 132.788 112.817 133.179 112.583Z" fill="#B8AEAC" stroke="#B8AEAC" stroke-width="3"/>
<path d="M270.899 96.6475L271.037 96.7554C271.352 97.0003 271.632 97.2956 271.86 97.6224C272.837 99.0172 272.893 100.885 271.979 102.321L271.853 102.519C271.627 102.873 271.343 103.186 271.011 103.444C269.787 104.396 268.098 104.476 266.791 103.644L266.697 103.584C266.151 103.237 265.702 102.757 265.393 102.189L265.271 101.966C264.585 100.709 264.585 99.1883 265.271 97.9305L265.34 97.8045C265.683 97.1764 266.199 96.6602 266.827 96.3176C268.129 95.6075 269.728 95.7371 270.899 96.6475Z" fill="#B8AEAC" stroke="#B8AEAC" stroke-width="3"/>
<path d="M228.592 295.629H220.686L216.168 295.205L213.909 294.994L212.78 294.888C212.205 294.834 211.733 295.333 211.819 295.904L211.862 296.194L212.074 297.605C212.335 299.346 213.527 300.804 215.181 301.405L217.29 302.172C218.229 302.513 219.221 302.688 220.22 302.688H227.18H234.522C239.784 302.124 244.992 301.134 250.094 299.726L250.617 299.582L257.959 296.758L258.039 296.715C262.871 294.113 267.473 291.105 271.795 287.723L275.112 284.405C275.668 283.849 275.835 283.014 275.536 282.287L275.042 281.087L274.548 279.887C274.298 279.281 273.542 279.076 273.02 279.472L272.289 280.028L270.524 281.369L266.994 284.052C263.049 286.494 258.898 288.589 254.589 290.313L254.005 290.546L246.099 292.805C240.647 294.121 235.107 295.037 229.521 295.544L228.592 295.629Z" fill="#B8AEAC"/>
<path d="M186.802 348.714L186.335 347.032C185.708 344.775 185.39 342.444 185.39 340.102V338.337V337.365C185.39 337.135 185.691 337.048 185.814 337.243L186.237 337.913L187.084 339.255L188.779 341.937C189.717 343.814 190.861 345.58 192.19 347.204L192.732 347.867L193.406 348.691C194.644 350.205 196.091 351.535 197.702 352.643L197.927 352.798C199.165 353.649 200.502 354.346 201.909 354.873C203.501 355.47 205.168 355.845 206.863 355.986L208.632 356.133C210.265 356.269 211.906 356.277 213.541 356.156L218.709 355.773L224.639 354.926C229.149 353.798 233.559 352.3 237.822 350.447L237.91 350.408L240.593 348.855L241.934 348.079L242.605 347.69L242.94 347.496C243.046 347.435 243.168 347.545 243.118 347.656L242.182 349.762C242.158 349.816 242.129 349.868 242.094 349.915L240.734 351.82C238.861 353.88 236.707 355.667 234.335 357.126L234.24 357.185C231.235 358.875 228.075 360.275 224.804 361.365L223.792 361.703C220.419 362.64 216.935 363.115 213.434 363.115H212.497C209.123 363.115 205.763 362.68 202.5 361.821L202.05 361.703L200.659 361.19C198.024 360.219 195.543 358.87 193.296 357.185L192.49 356.479C190.046 354.341 188.104 351.689 186.802 348.714Z" fill="#B8AEAC"/>
<path d="M290.965 351.308L291.04 351.875C291.386 354.463 292.059 356.997 293.044 359.415L293.113 359.585L293.89 361.491L294.278 362.444L294.472 362.92C294.514 363.023 294.666 362.993 294.666 362.882V362.762V362.126V360.856V357.467V356.253C294.666 354.064 295.008 351.889 295.679 349.805C296.132 348.399 296.732 347.045 297.469 345.764L299.184 342.784C301.44 339.776 303.907 336.932 306.566 334.273L306.808 334.031L311.891 329.795L315.561 327.254L316.375 326.757C319.209 325.025 322.258 323.673 325.444 322.736L328.705 321.96C330.478 321.538 332.295 321.324 334.118 321.324H334.659C336.414 321.324 338.161 321.562 339.852 322.032C341.534 322.499 343.145 323.191 344.642 324.089L346.622 325.277L348.316 326.266L349.163 326.76L349.587 327.007L349.653 327.046C349.774 327.116 349.917 326.997 349.869 326.866L349.728 326.477L349.445 325.701L348.881 324.148L347.485 321.357C346.912 320.211 346.191 319.145 345.339 318.187C344.69 317.457 343.969 316.793 343.187 316.207L342.429 315.639C340.72 314.357 338.798 313.386 336.751 312.772C335.058 312.264 333.3 312.006 331.532 312.006H329.674C327.426 312.006 325.184 312.252 322.989 312.74L322.698 312.805C320.021 313.4 317.427 314.32 314.975 315.547L311.891 317.089C307.231 319.885 302.932 323.319 299.184 327.254L298.004 328.655C295.794 331.28 294.026 334.248 292.771 337.442L292.595 337.892C291.907 339.643 291.404 341.461 291.095 343.316C290.655 345.959 290.611 348.652 290.965 351.308Z" fill="#B8AEAC"/>
<path d="M261.496 86.266L261.433 86.1623C260.685 84.915 260.685 83.3568 261.433 82.1095C261.748 81.5852 262.187 81.1369 262.703 80.8087C264.092 79.9246 265.918 79.9661 267.267 80.9104C267.643 81.1737 267.976 81.5046 268.239 81.8807C269.187 83.2348 269.187 85.037 268.239 86.391L268.17 86.4902C267.952 86.8015 267.689 87.0812 267.393 87.3185C265.995 88.437 264.014 88.4883 262.566 87.4352C262.134 87.1213 261.77 86.7237 261.496 86.266Z" fill="#B8AEAC"/>
<path d="M228.592 295.629H220.686L216.168 295.205L213.909 294.994L212.78 294.888C212.205 294.834 211.733 295.333 211.819 295.904L211.862 296.194L212.074 297.605C212.335 299.346 213.527 300.804 215.181 301.405L217.29 302.172C218.229 302.513 219.221 302.688 220.22 302.688H227.18H234.522C239.784 302.124 244.992 301.134 250.094 299.726L250.617 299.582L257.959 296.758L258.039 296.715C262.871 294.113 267.473 291.105 271.795 287.723L275.112 284.405C275.668 283.849 275.835 283.014 275.536 282.287L275.042 281.087L274.548 279.887C274.298 279.281 273.542 279.076 273.02 279.472L272.289 280.028L270.524 281.369L266.994 284.052C263.049 286.494 258.898 288.589 254.589 290.313L254.005 290.546L246.099 292.805C240.647 294.121 235.107 295.037 229.521 295.544L228.592 295.629Z" stroke="#B8AEAC" stroke-width="3"/>
<path d="M186.802 348.714L186.335 347.032C185.708 344.775 185.39 342.444 185.39 340.102V338.337V337.365C185.39 337.135 185.691 337.048 185.814 337.243L186.237 337.913L187.084 339.255L188.779 341.937C189.717 343.814 190.861 345.58 192.19 347.204L192.732 347.867L193.406 348.691C194.644 350.205 196.091 351.535 197.702 352.643L197.927 352.798C199.165 353.649 200.502 354.346 201.909 354.873C203.501 355.47 205.168 355.845 206.863 355.986L208.632 356.133C210.265 356.269 211.906 356.277 213.541 356.156L218.709 355.773L224.639 354.926C229.149 353.798 233.559 352.3 237.822 350.447L237.91 350.408L240.593 348.855L241.934 348.079L242.605 347.69L242.94 347.496C243.046 347.435 243.168 347.545 243.118 347.656L242.182 349.762C242.158 349.816 242.129 349.868 242.094 349.915L240.734 351.82C238.861 353.88 236.707 355.667 234.335 357.126L234.24 357.185C231.235 358.875 228.075 360.275 224.804 361.365L223.792 361.703C220.419 362.64 216.935 363.115 213.434 363.115H212.497C209.123 363.115 205.763 362.68 202.5 361.821L202.05 361.703L200.659 361.19C198.024 360.219 195.543 358.87 193.296 357.185L192.49 356.479C190.046 354.341 188.104 351.689 186.802 348.714Z" stroke="#B8AEAC" stroke-width="3"/>
<path d="M290.965 351.308L291.04 351.875C291.386 354.463 292.059 356.997 293.044 359.415L293.113 359.585L293.89 361.491L294.278 362.444L294.472 362.92C294.514 363.023 294.666 362.993 294.666 362.882V362.762V362.126V360.856V357.467V356.253C294.666 354.064 295.008 351.889 295.679 349.805C296.132 348.399 296.732 347.045 297.469 345.764L299.184 342.784C301.44 339.776 303.907 336.932 306.566 334.273L306.808 334.031L311.891 329.795L315.561 327.254L316.375 326.757C319.209 325.025 322.258 323.673 325.444 322.736L328.705 321.96C330.478 321.538 332.295 321.324 334.118 321.324H334.659C336.414 321.324 338.161 321.562 339.852 322.032C341.534 322.499 343.145 323.191 344.642 324.089L346.622 325.277L348.316 326.266L349.163 326.76L349.587 327.007L349.653 327.046C349.774 327.116 349.917 326.997 349.869 326.866L349.728 326.477L349.445 325.701L348.881 324.148L347.485 321.357C346.912 320.211 346.191 319.145 345.339 318.187C344.69 317.457 343.969 316.793 343.187 316.207L342.429 315.639C340.72 314.357 338.798 313.386 336.751 312.772C335.058 312.264 333.3 312.006 331.532 312.006H329.674C327.426 312.006 325.184 312.252 322.989 312.74L322.698 312.805C320.021 313.4 317.427 314.32 314.975 315.547L311.891 317.089C307.231 319.885 302.932 323.319 299.184 327.254L298.004 328.655C295.794 331.28 294.026 334.248 292.771 337.442L292.595 337.892C291.907 339.643 291.404 341.461 291.095 343.316C290.655 345.959 290.611 348.652 290.965 351.308Z" stroke="#B8AEAC" stroke-width="3"/>
<path d="M261.496 86.266L261.433 86.1623C260.685 84.915 260.685 83.3568 261.433 82.1095C261.748 81.5852 262.187 81.1369 262.703 80.8087C264.092 79.9246 265.918 79.9661 267.267 80.9104C267.643 81.1737 267.976 81.5046 268.239 81.8807C269.187 83.2348 269.187 85.037 268.239 86.391L268.17 86.4902C267.952 86.8015 267.689 87.0812 267.393 87.3185C265.995 88.437 264.014 88.4883 262.566 87.4352C262.134 87.1213 261.77 86.7237 261.496 86.266Z" stroke="#B8AEAC" stroke-width="3"/>
<path d="M144.447 191.153L150.394 187.892C151.833 187.103 152.168 185.183 151.083 183.953L150.312 183.079C149.418 182.066 148.395 181.173 147.271 180.423L146.452 179.768C146.068 179.461 145.591 179.294 145.099 179.294C144.854 179.294 144.611 179.335 144.38 179.416L138.305 181.553L132.164 184.376L127.505 186.918L126.882 187.229C126.172 187.584 125.525 188.051 124.964 188.612C124.652 188.924 124.652 189.429 124.964 189.741L125.17 189.947C125.22 189.998 125.276 190.044 125.336 190.083L126.94 191.153L129.199 192.565L132.164 194.259C134.013 195.316 136.271 195.365 138.164 194.389L144.447 191.153Z" fill="#B8AEAC"/>
<path d="M270.955 180.44L270.732 177.243C270.5 173.916 270.676 170.574 271.255 167.29C271.801 164.196 272.702 161.176 273.939 158.288L274.195 157.693L275.253 155.222C275.49 154.67 276.312 154.839 276.312 155.439V156.21V159.669V166.587V173.929L277.442 182.682C278.562 188.097 280.468 193.344 283.089 198.212L285.113 201.699C287.145 205.197 289.594 208.435 292.407 211.342L294.525 213.531L294.886 213.904C295.224 214.253 294.818 214.806 294.384 214.589C292.881 213.838 291.443 212.962 290.086 211.97L287.332 209.957C285.635 208.718 284.037 207.349 282.552 205.863L282.426 205.738C280.24 203.552 278.32 201.116 276.705 198.481C274.759 195.306 273.274 191.871 272.294 188.278L272.268 188.183C271.578 185.651 271.138 183.058 270.955 180.44Z" fill="#B8AEAC"/>
<path d="M165.907 226.731L165.522 229.615C165.028 233.325 164.066 236.957 162.66 240.426L161.601 243.038L161.404 243.522C161.214 243.992 161.806 244.385 162.165 244.026L163.789 242.403L164.295 241.897C166.098 240.094 167.456 237.896 168.262 235.478C168.574 234.543 168.801 233.582 168.94 232.607L169.405 229.352C169.708 227.231 169.86 225.091 169.86 222.949V221.928C169.86 219.302 169.573 216.685 169.003 214.122L168.694 212.733C168.343 211.152 167.823 209.612 167.144 208.141L166.339 206.397C165.314 204.174 163.759 202.237 161.812 200.753L160.33 199.624C159.966 199.346 159.476 199.752 159.681 200.161L159.765 200.33L160.683 202.165L162.518 205.836L163.141 207.47C164.229 210.326 165.003 213.29 165.451 216.313C165.754 218.361 165.907 220.429 165.907 222.5V226.731Z" fill="#B8AEAC"/>
<path d="M247.717 214.739L249.787 213.596C251.628 212.581 253.696 212.048 255.798 212.048H256.068C257.134 212.048 258.194 212.208 259.213 212.523C261.335 213.178 263.2 214.48 264.546 216.247L264.743 216.506C265.486 217.481 266.071 218.567 266.476 219.724L266.598 220.074C267.413 222.4 267.598 224.9 267.137 227.322L267.037 227.846C266.821 228.982 266.482 230.091 266.027 231.154L265.555 232.255C264.648 234.371 263.201 236.212 261.359 237.593C260.229 238.441 258.969 239.101 257.629 239.548L256.947 239.775C254.836 240.479 252.575 240.61 250.396 240.156L250.324 240.142C248.115 239.681 246.074 238.623 244.424 237.083C243.292 236.027 242.369 234.767 241.703 233.369L241.592 233.136C240.478 230.797 240.055 228.152 240.364 225.579C240.606 223.567 241.287 221.603 242.353 219.88L242.414 219.783C243.719 217.674 245.546 215.937 247.717 214.739Z" fill="#B8AEAC"/>
<path d="M144.447 191.153L150.394 187.892C151.833 187.103 152.168 185.183 151.083 183.953L150.312 183.079C149.418 182.066 148.395 181.173 147.271 180.423L146.452 179.768C146.068 179.461 145.591 179.294 145.099 179.294C144.854 179.294 144.611 179.335 144.38 179.416L138.305 181.553L132.164 184.376L127.505 186.918L126.882 187.229C126.172 187.584 125.525 188.051 124.964 188.612C124.652 188.924 124.652 189.429 124.964 189.741L125.17 189.947C125.22 189.998 125.276 190.044 125.336 190.083L126.94 191.153L129.199 192.565L132.164 194.259C134.013 195.316 136.271 195.365 138.164 194.389L144.447 191.153Z" stroke="#B8AEAC" stroke-width="3"/>
<path d="M270.955 180.44L270.732 177.243C270.5 173.916 270.676 170.574 271.255 167.29C271.801 164.196 272.702 161.176 273.939 158.288L274.195 157.693L275.253 155.222C275.49 154.67 276.312 154.839 276.312 155.439V156.21V159.669V166.587V173.929L277.442 182.682C278.562 188.097 280.468 193.344 283.089 198.212L285.113 201.699C287.145 205.197 289.594 208.435 292.407 211.342L294.525 213.531L294.886 213.904C295.224 214.253 294.818 214.806 294.384 214.589C292.881 213.838 291.443 212.962 290.086 211.97L287.332 209.957C285.635 208.718 284.037 207.349 282.552 205.863L282.426 205.738C280.24 203.552 278.32 201.116 276.705 198.481C274.759 195.306 273.274 191.871 272.294 188.278L272.268 188.183C271.578 185.651 271.138 183.058 270.955 180.44Z" stroke="#B8AEAC" stroke-width="3"/>
<path d="M165.907 226.731L165.522 229.615C165.028 233.325 164.066 236.957 162.66 240.426L161.601 243.038L161.404 243.522C161.214 243.992 161.806 244.385 162.165 244.026L163.789 242.403L164.295 241.897C166.098 240.094 167.456 237.896 168.262 235.478C168.574 234.543 168.801 233.582 168.94 232.607L169.405 229.352C169.708 227.231 169.86 225.091 169.86 222.949V221.928C169.86 219.302 169.573 216.685 169.003 214.122L168.694 212.733C168.343 211.152 167.823 209.612 167.144 208.141L166.339 206.397C165.314 204.174 163.759 202.237 161.812 200.753L160.33 199.624C159.966 199.346 159.476 199.752 159.681 200.161L159.765 200.33L160.683 202.165L162.518 205.836L163.141 207.47C164.229 210.326 165.003 213.29 165.451 216.313C165.754 218.361 165.907 220.429 165.907 222.5V226.731Z" stroke="#B8AEAC" stroke-width="3"/>
<path d="M247.717 214.739L249.787 213.596C251.628 212.581 253.696 212.048 255.798 212.048H256.068C257.134 212.048 258.194 212.208 259.213 212.523C261.335 213.178 263.2 214.48 264.546 216.247L264.743 216.506C265.486 217.481 266.071 218.567 266.476 219.724L266.598 220.074C267.413 222.4 267.598 224.9 267.137 227.322L267.037 227.846C266.821 228.982 266.482 230.091 266.027 231.154L265.555 232.255C264.648 234.371 263.201 236.212 261.359 237.593C260.229 238.441 258.969 239.101 257.629 239.548L256.947 239.775C254.836 240.479 252.575 240.61 250.396 240.156L250.324 240.142C248.115 239.681 246.074 238.623 244.424 237.083C243.292 236.027 242.369 234.767 241.703 233.369L241.592 233.136C240.478 230.797 240.055 228.152 240.364 225.579C240.606 223.567 241.287 221.603 242.353 219.88L242.414 219.783C243.719 217.674 245.546 215.937 247.717 214.739Z" stroke="#B8AEAC" stroke-width="3"/>
<path d="M304.549 167.999L298.437 166.689C295.477 166.055 293.854 162.855 295.09 160.093L295.472 159.238C296.813 156.241 298.484 153.402 300.455 150.775L301.937 148.798C302.312 148.131 303.087 147.797 303.83 147.983L309.349 149.363L311.951 150.191C314.354 150.955 316.694 151.906 318.95 153.033L322.338 154.728L326.871 156.861C327.047 156.944 327.202 157.065 327.323 157.217C327.707 157.697 327.693 158.382 327.289 158.846L326.574 159.669C324.694 161.831 322.987 164.136 321.469 166.565L320.926 167.434C319.256 170.106 316.013 171.343 312.988 170.46L304.549 167.999Z" fill="#B8AEAC" stroke="#B8AEAC" stroke-width="3"/>
<path d="M46.3489 209.745L44.3683 207.298C43.8901 206.708 43.5514 206.017 43.3774 205.277C42.8644 203.097 43.8481 200.84 45.7939 199.731L85.2705 177.241C87.4882 175.978 90.2926 176.486 91.9266 178.446L92.7205 179.529C94.2348 181.594 95.1739 184.024 95.4419 186.57C95.5453 187.552 95.5479 188.542 95.4496 189.524L95.267 191.351C95.111 192.911 94.8418 194.458 94.4615 195.979L94.1574 197.195C93.8003 198.624 93.3227 200.019 92.7298 201.367C91.2692 204.686 89.1314 207.664 86.4532 210.109L85.9749 210.546C84.6745 211.733 83.2662 212.802 81.773 213.735C78.7819 215.605 75.4712 216.921 72.0124 217.612L71.345 217.746C69.6342 218.088 67.8937 218.26 66.149 218.26C63.3969 218.26 60.6616 217.831 58.0416 216.989L56.5638 216.514C54.9196 215.986 53.3416 215.27 51.8607 214.382L51.2946 214.042C49.4075 212.91 47.7336 211.455 46.3489 209.745Z" fill="#7F6966"/>
<path d="M362.152 184.754V183.917C362.152 183.472 362.209 183.029 362.323 182.598C363.02 179.948 365.659 178.298 368.347 178.832L405.258 186.169C407.273 186.569 408.5 188.625 407.895 190.588L407.337 191.983C406.957 192.934 406.489 193.847 405.94 194.71C405.176 195.91 404.26 197.007 403.215 197.971L401.119 199.906C399.253 201.399 397.122 202.526 394.839 203.229L394.624 203.295L393.526 203.53C391.628 203.937 389.692 204.142 387.751 204.142C386.312 204.142 384.874 204.029 383.452 203.805L380.223 203.295L380.153 203.276C377.391 202.539 374.751 201.404 372.317 199.906L370.201 198.319C369.354 197.684 368.553 196.989 367.805 196.241C366.675 195.111 365.669 193.864 364.805 192.52L364.32 191.765C363.817 190.982 363.396 190.151 363.062 189.283L362.929 188.937C362.415 187.602 362.152 186.184 362.152 184.754Z" fill="#7F6966"/>
<path d="M46.3489 209.745L44.3683 207.298C43.8901 206.708 43.5514 206.017 43.3774 205.277C42.8644 203.097 43.8481 200.84 45.7939 199.731L85.2705 177.241C87.4882 175.978 90.2926 176.486 91.9266 178.446L92.7205 179.529C94.2348 181.594 95.1739 184.024 95.4419 186.57C95.5453 187.552 95.5479 188.542 95.4496 189.524L95.267 191.351C95.111 192.911 94.8418 194.458 94.4615 195.979L94.1574 197.195C93.8003 198.624 93.3227 200.019 92.7298 201.367C91.2692 204.686 89.1314 207.664 86.4532 210.109L85.9749 210.546C84.6745 211.733 83.2662 212.802 81.773 213.735C78.7819 215.605 75.4712 216.921 72.0124 217.612L71.345 217.746C69.6342 218.088 67.8937 218.26 66.149 218.26C63.3969 218.26 60.6616 217.831 58.0416 216.989L56.5638 216.514C54.9196 215.986 53.3416 215.27 51.8607 214.382L51.2946 214.042C49.4075 212.91 47.7336 211.455 46.3489 209.745Z" stroke="#7F6966" stroke-width="3"/>
<path d="M362.152 184.754V183.917C362.152 183.472 362.209 183.029 362.323 182.598C363.02 179.948 365.659 178.298 368.347 178.832L405.258 186.169C407.273 186.569 408.5 188.625 407.895 190.588L407.337 191.983C406.957 192.934 406.489 193.847 405.94 194.71C405.176 195.91 404.26 197.007 403.215 197.971L401.119 199.906C399.253 201.399 397.122 202.526 394.839 203.229L394.624 203.295L393.526 203.53C391.628 203.937 389.692 204.142 387.751 204.142C386.312 204.142 384.874 204.029 383.452 203.805L380.223 203.295L380.153 203.276C377.391 202.539 374.751 201.404 372.317 199.906L370.201 198.319C369.354 197.684 368.553 196.989 367.805 196.241C366.675 195.111 365.669 193.864 364.805 192.52L364.32 191.765C363.817 190.982 363.396 190.151 363.062 189.283L362.929 188.937C362.415 187.602 362.152 186.184 362.152 184.754Z" stroke="#7F6966" stroke-width="3"/>
<path d="M166.296 157.662C162.276 152.972 159.228 146.974 157.174 141.216C155.304 135.978 154.308 131.081 154.107 127.725C154.904 127.106 155.734 126.451 156.599 125.77C167.123 117.481 182.672 105.234 201.991 103.065C212.92 101.839 224.687 101.813 234.418 102.355C239.28 102.625 243.613 103.036 247.059 103.504C249.851 103.884 251.962 104.288 253.291 104.656C255.371 110.945 258.279 125.468 255.158 139.614C251.925 154.274 241.006 164.105 236.043 167.126C232.65 169.086 226.134 171.84 218.647 173.717C211.129 175.601 202.882 176.538 195.969 175.078C186.017 172.975 180.742 170.991 176.934 168.453C173.571 166.21 171.26 163.493 167.829 159.459C167.343 158.887 166.834 158.289 166.296 157.662Z" fill="#232323" stroke="#232323" stroke-width="4"/>
<path d="M147.271 130.162C155.365 122.255 177.258 105.539 200.073 101.925C222.888 98.3107 249.864 101.737 260.5 103.902C264.829 117.173 269.366 149.08 252.876 170.54C236.386 192 201.956 191.153 186.802 188.047" stroke="#232323" stroke-width="3"/>
<path d="M198.944 161.505L197.145 157.736C194.401 151.986 192.353 145.929 191.046 139.694C189.914 134.295 189.343 128.793 189.343 123.277V121.408V113.023C189.343 112.226 188.486 111.723 187.79 112.113L186.237 112.983L183.131 114.722L162.466 126.294C161.661 126.745 161.25 127.674 161.459 128.573L161.812 130.091L162.518 133.127L162.763 134.18C163.537 137.509 164.772 140.713 166.432 143.7C167.585 145.776 168.937 147.735 170.468 149.55L171.948 151.305C174.493 154.32 177.506 156.906 180.872 158.963C184.255 161.031 187.8 162.821 191.471 164.317L193.579 165.175L201.987 167.723C202.306 167.82 202.576 167.472 202.403 167.187L201.909 166.375L200.92 164.752L198.944 161.505Z" fill="#B2A39F" stroke="#B2A39F" stroke-width="3"/>
<path d="M386.659 194.255L394.059 194.824H396.125C397.566 194.824 399.002 194.647 400.4 194.298C401.254 194.084 402.092 193.807 402.904 193.468L405.072 192.565C407.135 191.44 409.054 190.068 410.786 188.48L411.566 187.765C412.882 186.449 414.093 185.032 415.187 183.527L415.802 182.682L417.778 179.011L419.473 175.34L420.602 171.67L422.579 167.434L424.555 164.328L425.003 163.508C425.832 161.988 426.817 160.56 427.944 159.246L429.92 156.987L432.179 155.01L433.368 153.991C433.889 153.544 434.33 153.011 434.67 152.416C435.076 151.706 435.332 150.92 435.422 150.107L435.482 149.564C435.539 149.057 435.504 148.545 435.381 148.05C435.136 147.074 434.557 146.215 433.743 145.623L432.922 145.026C432.249 144.536 431.466 144.219 430.642 144.101C430.163 144.032 429.677 144.032 429.198 144.101L427.944 144.28L427.705 144.348C426.558 144.676 425.487 145.229 424.555 145.974C423.615 146.538 422.72 147.174 421.878 147.875L421.449 148.233C420.513 148.982 419.699 149.87 419.034 150.867L418.908 151.057L417.901 152.315C417.821 152.416 417.715 152.494 417.596 152.542C417.057 152.757 416.489 152.3 416.584 151.727L416.633 151.436C416.643 151.372 416.661 151.309 416.685 151.248L417.214 149.927L417.258 149.795C417.604 148.757 418.062 147.76 418.625 146.821L419.473 145.127L420.602 143.151L420.778 142.842C421.412 141.733 422.17 140.681 423.018 139.726C423.66 139.004 424.251 138.223 424.77 137.408L425.564 136.159C425.832 135.739 426.047 135.288 426.204 134.815L426.261 134.645C426.621 133.565 426.639 132.4 426.311 131.31C426.084 130.553 425.698 129.854 425.177 129.259L424.746 128.767C424.247 128.196 423.642 127.728 422.964 127.39C422.153 126.984 421.26 126.773 420.354 126.773H420.115C419.316 126.773 418.524 126.913 417.774 127.186L416.766 127.552C416.124 127.786 415.494 128.074 414.897 128.405C413.821 129.003 412.819 129.756 411.948 130.627L411.001 131.574L409.861 132.967C408.929 134.107 408.093 135.322 407.362 136.601L407.071 137.111C406.492 138.123 406.004 139.185 405.612 140.284L405.252 141.291C404.945 142.151 404.533 142.97 404.027 143.73C403.409 144.656 403.083 145.787 402.339 146.615C402.077 146.907 401.758 147.059 401.401 146.821C400.948 146.519 400.822 145.783 400.801 145.181C400.779 144.58 400.874 143.982 400.948 143.384L401.119 142.021L401.401 139.48L401.966 135.527L403.095 131.574L404.225 127.903L404.867 126.36C405.378 125.134 405.747 123.852 405.965 122.542L406.046 122.057C406.149 121.437 406.201 120.81 406.201 120.182V119.202C406.201 118.792 406.144 118.385 406.032 117.992C405.775 117.093 405.239 116.299 404.501 115.725L404.02 115.351C403.409 114.875 402.715 114.517 401.973 114.295L401.347 114.107C400.634 113.893 399.893 113.784 399.148 113.784H398.76C397.714 113.784 396.686 114.051 395.771 114.559C395.015 114.979 394.356 115.554 393.837 116.246L393.599 116.564C393.155 117.155 392.795 117.805 392.53 118.495L391.518 121.126C390.58 123.378 389.892 125.727 389.468 128.129L389.259 129.315L388.449 133.77C388.237 134.94 387.941 136.093 387.565 137.221L387.392 137.826C387.264 138.273 386.643 138.305 386.47 137.873C386.447 137.815 386.436 137.754 386.436 137.692V135.527V132.985V131.009V126.773V123.871C386.436 122.987 386.307 122.108 386.053 121.261L385.883 120.695C385.688 120.046 385.38 119.437 384.974 118.895L384.952 118.866C384.263 117.947 383.311 117.261 382.222 116.898C381.646 116.706 381.044 116.608 380.437 116.608H380.174C378.559 116.608 376.99 117.146 375.715 118.138L375.677 118.167C375.32 118.445 374.99 118.755 374.689 119.093L374.588 119.207C373.473 120.462 372.727 122.001 372.436 123.655L372.235 124.793C372.102 125.547 372.035 126.311 372.035 127.077V129.315V133.55V139.48V144.562V151.057V152.948C372.035 153.937 371.839 154.915 371.459 155.827L370.964 157.016C370.741 157.55 370.371 158.01 369.897 158.342L369.848 158.377C368.663 159.206 367.054 159.065 366.031 158.042C365.893 157.904 365.741 157.779 365.577 157.67L365.067 157.33C363.903 156.554 362.535 156.14 361.136 156.14H360.72C359.807 156.14 358.908 156.369 358.107 156.806C356.896 157.466 355.98 158.561 355.543 159.87L355.223 160.832C354.95 161.652 354.81 162.509 354.81 163.373V164.313C354.81 165.634 355 166.948 355.372 168.215L355.717 169.388C356.053 170.531 356.48 171.645 356.994 172.72L357.942 174.702C358.864 176.629 359.966 178.465 361.234 180.185C362.595 182.033 364.141 183.738 365.847 185.274L366.582 185.935C368.143 187.34 369.839 188.585 371.647 189.653C373.967 191.024 376.452 192.092 379.043 192.833L379.564 192.982C381.88 193.643 384.257 194.07 386.659 194.255Z" fill="#B8AEAC"/>
<path d="M56.3483 210.354L54.5586 210.155C52.3768 209.913 50.2463 209.331 48.2444 208.43C46.5018 207.646 44.8741 206.628 43.4062 205.404L42.23 204.424L41.0087 203.203C40.1298 202.324 39.1896 201.509 38.1952 200.763C36.9345 199.817 35.5912 198.987 34.1817 198.282L32.9119 197.647L29.5235 195.671L25.8527 193.977L23.8349 193.304C22.9225 193 21.9878 192.768 21.0392 192.61L20.2609 192.48C19.4732 192.349 18.7019 192.133 17.9604 191.836L17.0784 191.484C16.5313 191.265 16.0239 190.957 15.5766 190.574L15.551 190.552C14.7213 189.841 14.1333 188.889 13.8682 187.829C13.7637 187.411 13.7109 186.982 13.7109 186.551V186.398C13.7109 185.442 13.9543 184.503 14.4183 183.668C14.8803 182.836 15.546 182.135 16.3528 181.631L16.4794 181.552C17.0765 181.179 17.7329 180.91 18.4203 180.757L18.9316 180.643C19.5905 180.497 20.2635 180.423 20.9385 180.423H21.2591C22.0606 180.423 22.8601 180.502 23.6461 180.659L25.2879 180.988L27.6856 181.642C28.1572 181.77 28.6183 181.935 29.065 182.133L30.7685 182.89C30.8785 182.939 30.9975 182.964 31.1178 182.964H31.5969C32.1864 182.964 32.4816 182.252 32.0648 181.835L30.3706 180.423L28.394 179.011L25.8527 177.599L23.3114 176.188L20.4877 175.058L18.2288 174.211L15.7684 173.093C15.3399 172.898 14.9395 172.646 14.5779 172.345C13.8265 171.719 13.2647 170.896 12.9554 169.968L12.8891 169.769C12.6853 169.158 12.5814 168.517 12.5814 167.873V167.404C12.5814 166.677 12.7122 165.956 12.9674 165.275C13.2713 164.465 13.7451 163.729 14.3571 163.117L14.3974 163.077C14.692 162.782 15.0149 162.518 15.3615 162.286L15.4273 162.243C16.1591 161.755 16.975 161.407 17.8336 161.216L18.1352 161.149C18.7604 161.01 19.399 160.94 20.0395 160.94H20.2841C21.3553 160.94 22.4208 161.096 23.4469 161.404L24.7232 161.787L26.9821 162.634L30.3706 164.046L33.759 165.74L36.5826 167.434L39.6582 169.485C39.8622 169.621 40.1018 169.693 40.347 169.693C41.2384 169.693 41.8394 168.782 41.4882 167.962L41.4392 167.848C41.4018 167.761 41.355 167.678 41.2997 167.6L39.971 165.74C39.0314 164.425 37.9847 163.189 36.8416 162.046L36.5826 161.787L34.8884 159.81C33.5733 158.119 32.1111 156.548 30.5188 155.115L30.0882 154.728L29.0254 153.901C28.0418 153.136 27.1303 152.282 26.3024 151.351L25.6225 150.586C25.3998 150.336 25.1586 150.102 24.9011 149.887C24.0431 149.172 23.3765 148.255 22.9617 147.218L22.8634 146.972C22.5997 146.313 22.4643 145.61 22.4643 144.9V144.854C22.4643 144.103 22.6218 143.361 22.9268 142.675C23.3615 141.697 24.0787 140.871 24.9863 140.304L25.119 140.221C25.6055 139.917 26.1339 139.686 26.6874 139.535L27.8831 139.208C28.597 139.014 29.3336 138.915 30.0736 138.915H30.3518C31.2957 138.915 32.2297 139.107 33.0973 139.479C33.5372 139.667 33.9566 139.901 34.3487 140.175L35.141 140.73C36.0993 141.4 36.9828 142.172 37.7762 143.032L39.971 145.41L41.6652 147.104L44.2065 149.363L47.0302 152.186L48.9027 154.594C48.9717 154.683 49.0532 154.761 49.1447 154.826L49.9443 155.397C50.3792 155.708 50.9834 155.397 50.9834 154.863C50.9834 154.774 50.9653 154.685 50.9302 154.604L50.3981 153.362C50.2239 152.956 50.0129 152.566 49.7676 152.198L49.0068 151.057L47.595 148.798L47.5444 148.714C46.4527 146.894 45.1421 145.216 43.6418 143.715L42.3953 142.113C41.9116 141.491 41.5281 140.797 41.2588 140.056L41.0398 139.454C40.7101 138.547 40.6358 137.568 40.825 136.622C41.0055 135.719 41.4195 134.88 42.0256 134.187L42.2384 133.944C42.7922 133.311 43.464 132.792 44.2162 132.416L44.3603 132.344C45.3733 131.837 46.4904 131.574 47.6231 131.574H48.1597H48.2778C50.0292 131.574 51.7284 132.17 53.096 133.264C53.5684 133.642 53.9947 134.074 54.366 134.551L55.7836 136.374L58.8896 140.609L61.1486 143.715L63.1251 146.539L63.4602 147.084C64.7408 149.165 65.8561 151.343 66.7959 153.598L67.3065 155.258C67.7177 156.594 68.2812 157.879 68.9858 159.087L69.5909 160.124C69.7978 160.479 70.0393 160.812 70.3121 161.119L71.5444 162.505C71.9365 162.946 72.4986 163.199 73.0888 163.199C74.037 163.199 74.8635 162.553 75.0935 161.633L75.3499 160.608C75.481 160.084 75.4859 159.536 75.3644 159.009L74.7022 156.14C74.3264 153.884 74.1375 151.602 74.1375 149.316V148.798V147.164C74.1375 146.014 74.4308 144.882 74.9897 143.876L75.0388 143.787C75.3767 143.179 75.8149 142.632 76.335 142.17C77.4659 141.165 78.9264 140.609 80.4396 140.609H80.5272C81.3425 140.609 82.1503 140.765 82.9073 141.068L83.1282 141.156C84.0894 141.541 84.9625 142.116 85.6945 142.848L85.7974 142.951C86.3048 143.459 86.7446 144.029 87.1062 144.649L88.5382 147.104L88.9462 147.92C90.1747 150.377 91.0701 152.986 91.6088 155.68C92.0079 157.676 92.209 159.706 92.209 161.741V164.328V169.693L91.8441 174.254C91.711 175.917 91.4586 177.569 91.0888 179.196C90.5196 181.701 89.6752 184.134 88.5711 186.453L87.4087 188.894L85.8879 192.088C85.0209 193.909 84.0038 195.654 82.8472 197.306L82.1361 198.322C81.1361 199.751 79.9876 201.069 78.7098 202.256C77.36 203.509 75.8742 204.608 74.2802 205.531L71.3138 207.248L71.2531 207.282C68.3118 208.937 65.0673 209.981 61.7133 210.354H56.3483Z" fill="#B8AEAC"/>
<path d="M397.166 194.541H390.106L386.077 194.076C383.873 193.822 381.697 193.369 379.575 192.724V192.724C377.377 192.055 375.246 191.181 373.21 190.115L370.341 188.612V188.612C366.971 186.365 363.95 183.635 361.375 180.508L361.305 180.423L359.843 178.297C358.75 176.707 357.828 175.006 357.094 173.221V173.221C356.514 171.813 356.053 170.358 355.715 168.873L355.051 165.952C354.891 165.248 354.81 164.528 354.81 163.806V162.637C354.81 161.35 355.218 160.097 355.975 159.056V159.056C356.688 158.075 357.678 157.33 358.818 156.915L359.159 156.792C359.831 156.547 360.541 156.422 361.257 156.422V156.422C362.744 156.422 364.181 156.962 365.3 157.941L365.431 158.056C365.692 158.284 365.934 158.532 366.156 158.798L366.956 159.759C368.077 161.104 368.997 162.604 369.686 164.213L369.95 164.829C370.21 165.435 370.525 166.016 370.89 166.565L371.523 167.514C372.227 168.569 373.211 169.406 374.366 169.931V169.931C375.249 170.333 376.207 170.54 377.178 170.54H379.094H382.765H385.872C386.435 170.54 386.997 170.587 387.553 170.679L388.115 170.773C389.422 170.991 390.654 171.531 391.7 172.344V172.344C392.328 172.833 392.88 173.413 393.336 174.065L394.624 175.905L396.318 178.729M381.918 148.233L385.099 147.672C386.176 147.482 387.268 147.386 388.362 147.386V147.386C389.522 147.386 390.68 147.494 391.821 147.708L394.624 148.233V148.233C397.63 149.172 400.542 150.386 403.325 151.86L403.942 152.186L408.178 154.728V154.728C409.863 155.851 411.378 157.212 412.674 158.768L413.543 159.81L415.802 163.199" stroke="#392D40" stroke-width="3"/>
<path d="M70.4667 207.813L71.5621 207.066C74.9629 204.747 78.0991 202.062 80.9142 199.059V199.059L84.0203 194.824L87.1263 189.741L88.4846 186.753C89.4603 184.606 90.2814 182.393 90.9415 180.13L91.088 179.627C91.6463 177.713 92.0681 175.762 92.3501 173.787V173.787C92.6321 171.813 92.7737 169.822 92.7737 167.828V164.878C92.7737 163.008 92.6272 161.142 92.3356 159.295V159.295C92.0633 157.57 91.6651 155.868 91.1442 154.201L90.5147 152.186L89.7351 149.847C89.3148 148.586 88.7653 147.372 88.0955 146.224L87.7104 145.564C87.322 144.898 86.8684 144.272 86.3562 143.696L85.6212 142.869C85.1232 142.309 84.5229 141.849 83.8525 141.514V141.514C83.0344 141.105 82.1322 140.892 81.2176 140.892H80.839C79.9561 140.892 79.0812 141.06 78.2614 141.388L78.1679 141.425C77.1897 141.817 76.3206 142.439 75.635 143.239L75.5823 143.3C75.1861 143.763 74.8625 144.282 74.6227 144.842V144.842C74.3025 145.589 74.1374 146.393 74.1374 147.206V148.768C74.1374 149.726 74.2387 150.682 74.4395 151.62L74.9845 154.163L75.2618 156.242C75.4523 157.671 75.418 159.121 75.1601 160.539L75.0586 161.097C75.0093 161.368 74.9408 161.636 74.8537 161.897V161.897C74.393 163.279 73.431 164.438 72.1575 165.146L72.0037 165.231C71.7324 165.382 71.4502 165.512 71.1596 165.621L69.3372 166.305L68.0785 166.762C66.853 167.208 65.696 167.823 64.6415 168.59V168.59C63.6351 169.322 62.7312 170.186 61.9538 171.157L60.8662 172.517L60.0684 173.713C59.4724 174.607 58.9708 175.561 58.5718 176.559V176.559C58.2197 177.439 57.949 178.35 57.763 179.279L57.5432 180.378C57.3119 181.535 57.1954 182.711 57.1954 183.891V183.891C57.1954 185.152 57.3287 186.41 57.593 187.643L58.0425 189.741L58.394 190.708C58.9117 192.131 59.5498 193.508 60.3014 194.824V194.824M36.5826 188.047L37.4297 184.376L37.6033 183.89C38.4262 181.586 39.5045 179.381 40.8181 177.317V177.317L43.077 173.929L45.336 171.387L48.1597 168.281L48.2819 168.145C49.8919 166.357 51.6453 164.702 53.5246 163.199V163.199L56.6307 160.093" stroke="#392D40" stroke-width="3"/>
</g>
<defs>
<filter id="filter0_f_14_32" x="48.2848" y="31.8566" width="468.554" height="466.104" filterUnits="userSpaceOnUse" color-interpolation-filters="sRGB">
<feFlood flood-opacity="0" result="BackgroundImageFix"/>
<feBlend mode="normal" in="SourceGraphic" in2="BackgroundImageFix" result="shape"/>
<feGaussianBlur stdDeviation="15" result="effect1_foregroundBlur_14_32"/>
</filter>
<filter id="filter1_d_14_32" x="0.756836" y="0.107422" width="488.22" height="491.735" filterUnits="userSpaceOnUse" color-interpolation-filters="sRGB">
<feFlood flood-opacity="0" result="BackgroundImageFix"/>
<feColorMatrix in="SourceAlpha" type="matrix" values="0 0 0 0 0 0 0 0 0 0 0 0 0 0 0 0 0 0 127 0" result="hardAlpha"/>
<feOffset dy="4"/>
<feGaussianBlur stdDeviation="3.5"/>
<feComposite in2="hardAlpha" operator="out"/>
<feColorMatrix type="matrix" values="0 0 0 0 0 0 0 0 0 0 0 0 0 0 0 0 0 0 0.5 0"/>
<feBlend mode="normal" in2="BackgroundImageFix" result="effect1_dropShadow_14_32"/>
<feBlend mode="normal" in="SourceGraphic" in2="effect1_dropShadow_14_32" result="shape"/>
</filter>
<filter id="filter2_d_14_32" x="295.767" y="241.02" width="244.48" height="245.309" filterUnits="userSpaceOnUse" color-interpolation-filters="sRGB">
<feFlood flood-opacity="0" result="BackgroundImageFix"/>
<feColorMatrix in="SourceAlpha" type="matrix" values="0 0 0 0 0 0 0 0 0 0 0 0 0 0 0 0 0 0 127 0" result="hardAlpha"/>
<feOffset dy="5"/>
<feGaussianBlur stdDeviation="3.5"/>
<feComposite in2="hardAlpha" operator="out"/>
<feColorMatrix type="matrix" values="0 0 0 0 0 0 0 0 0 0 0 0 0 0 0 0 0 0 0.5 0"/>
<feBlend mode="normal" in2="BackgroundImageFix" result="effect1_dropShadow_14_32"/>
<feBlend mode="normal" in="SourceGraphic" in2="effect1_dropShadow_14_32" result="shape"/>
</filter>
<filter id="filter3_d_14_32" x="5.58142" y="0.29071" width="436.927" height="433.774" filterUnits="userSpaceOnUse" color-interpolation-filters="sRGB">
<feFlood flood-opacity="0" result="BackgroundImageFix"/>
<feColorMatrix in="SourceAlpha" type="matrix" values="0 0 0 0 0 0 0 0 0 0 0 0 0 0 0 0 0 0 127 0" result="hardAlpha"/>
<feOffset dy="4"/>
<feGaussianBlur stdDeviation="3.5"/>
<feComposite in2="hardAlpha" operator="out"/>
<feColorMatrix type="matrix" values="0 0 0 0 0 0 0 0 0 0 0 0 0 0 0 0 0 0 0.5 0"/>
<feBlend mode="normal" in2="BackgroundImageFix" result="effect1_dropShadow_14_32"/>
<feBlend mode="normal" in="SourceGraphic" in2="effect1_dropShadow_14_32" result="shape"/>
</filter>
<radialGradient id="paint0_radial_14_32" cx="0" cy="0" r="1" gradientUnits="userSpaceOnUse" gradientTransform="translate(282.807 264.71) rotate(90) scale(201.751 203.022)">
<stop/>
<stop offset="0.682292" stop-color="#40039E"/>
</radialGradient>
<linearGradient id="paint1_linear_14_32" x1="446.499" y1="2" x2="446.499" y2="79.0863" gradientUnits="userSpaceOnUse">
<stop offset="0.385417" stop-color="#FFE000"/>
<stop offset="1" stop-color="#FF7A00"/>
</linearGradient>
<linearGradient id="paint2_linear_14_32" x1="156.302" y1="375.023" x2="156.302" y2="442" gradientUnits="userSpaceOnUse">
<stop stop-color="#FFE000"/>
<stop offset="1" stop-color="#FF7A00"/>
</linearGradient>
<linearGradient id="paint3_linear_14_32" x1="101.884" y1="434.558" x2="101.884" y2="482" gradientUnits="userSpaceOnUse">
<stop offset="0.192708" stop-color="#FFE000"/>
<stop offset="1" stop-color="#FF7A00"/>
</linearGradient>
<linearGradient id="paint4_linear_14_32" x1="37.2326" y1="52.2325" x2="37.2326" y2="115.488" gradientUnits="userSpaceOnUse">
<stop offset="0.317708" stop-color="#FFE600"/>
<stop offset="1" stop-color="#FF7A00"/>
</linearGradient>
</defs>
<!-- Code injected by live-server -->
<script type="text/javascript">
	// <![CDATA[  <-- For SVG support
	if ('WebSocket' in window) {
		(function () {
			function refreshCSS() {
				var sheets = [].slice.call(document.getElementsByTagName("link"));
				var head = document.getElementsByTagName("head")[0];
				for (var i = 0; i < sheets.length; ++i) {
					var elem = sheets[i];
					var parent = elem.parentElement || head;
					parent.removeChild(elem);
					var rel = elem.rel;
					if (elem.href && typeof rel != "string" || rel.length == 0 || rel.toLowerCase() == "stylesheet") {
						var url = elem.href.replace(/(&|\?)_cacheOverride=\d+/, '');
						elem.href = url + (url.indexOf('?') >= 0 ? '&' : '?') + '_cacheOverride=' + (new Date().valueOf());
					}
					parent.appendChild(elem);
				}
			}
			var protocol = window.location.protocol === 'http:' ? 'ws://' : 'wss://';
			var address = protocol + window.location.host + window.location.pathname + '/ws';
			var socket = new WebSocket(address);
			socket.onmessage = function (msg) {
				if (msg.data == 'reload') window.location.reload();
				else if (msg.data == 'refreshcss') refreshCSS();
			};
			if (sessionStorage && !sessionStorage.getItem('IsThisFirstTime_Log_From_LiveServer')) {
				console.log('Live reload enabled.');
				sessionStorage.setItem('IsThisFirstTime_Log_From_LiveServer', true);
			}
		})();
	}
	else {
		console.error('Upgrade your browser. This Browser is NOT supported WebSocket for Live-Reloading.');
	}
	// ]]>
</script></svg>
