<svg width="176" height="48" viewBox="0 0 176 48" fill="none" xmlns="http://www.w3.org/2000/svg">
<path d="M40.5059 39.4235V44.3485C40.5059 45.6773 39.2341 46.6366 37.9564 46.2716L25.8929 42.8249C25.5398 42.724 25.1656 42.7223 24.8116 42.8199L12.1907 46.3016C10.9171 46.6529 9.65882 45.6947 9.65882 44.3736V32.4526C9.65882 32.0578 9.54195 31.6717 9.32292 31.3432L2.29699 20.8043C1.61573 19.7824 2.00786 18.3937 3.12297 17.879L14.6474 12.56C14.9258 12.4315 15.1709 12.2408 15.3638 12.0025L22.8005 2.81594C23.5729 1.86185 25.0145 1.82225 25.8381 2.73251L34.2689 12.0508C34.4562 12.2578 34.6847 12.4233 34.9397 12.5366L41.8588 15.6118" stroke="#F4F4F4" stroke-width="3"/>
<path d="M17.6682 34.6824C16.6016 34.6824 15.7949 34.3824 15.2482 33.7824C14.7016 33.169 14.4282 32.2957 14.4282 31.1624V30.3624H16.5082V31.3224C16.5082 32.229 16.8882 32.6824 17.6482 32.6824C18.0216 32.6824 18.3016 32.5757 18.4882 32.3624C18.6882 32.1357 18.7882 31.7757 18.7882 31.2824C18.7882 30.6957 18.6549 30.1824 18.3882 29.7424C18.1216 29.289 17.6282 28.749 16.9082 28.1224C16.0016 27.3224 15.3682 26.6024 15.0082 25.9624C14.6482 25.309 14.4682 24.5757 14.4682 23.7624C14.4682 22.6557 14.7482 21.8024 15.3082 21.2024C15.8682 20.589 16.6816 20.2824 17.7482 20.2824C18.8016 20.2824 19.5949 20.589 20.1282 21.2024C20.6749 21.8024 20.9482 22.669 20.9482 23.8024V24.3824H18.8682V23.6624C18.8682 23.1824 18.7749 22.8357 18.5882 22.6224C18.4016 22.3957 18.1282 22.2824 17.7682 22.2824C17.0349 22.2824 16.6682 22.729 16.6682 23.6224C16.6682 24.129 16.8016 24.6024 17.0682 25.0424C17.3482 25.4824 17.8482 26.0157 18.5682 26.6424C19.4882 27.4424 20.1216 28.169 20.4682 28.8224C20.8149 29.4757 20.9882 30.2424 20.9882 31.1224C20.9882 32.269 20.7016 33.149 20.1282 33.7624C19.5682 34.3757 18.7482 34.6824 17.6682 34.6824ZM25.4296 34.6824C24.3496 34.6824 23.523 34.3757 22.9496 33.7624C22.3763 33.149 22.0896 32.2824 22.0896 31.1624V23.8024C22.0896 22.6824 22.3763 21.8157 22.9496 21.2024C23.523 20.589 24.3496 20.2824 25.4296 20.2824C26.5096 20.2824 27.3363 20.589 27.9096 21.2024C28.483 21.8157 28.7696 22.6824 28.7696 23.8024V31.1624C28.7696 32.2824 28.483 33.149 27.9096 33.7624C27.3363 34.3757 26.5096 34.6824 25.4296 34.6824ZM25.4296 32.6824C26.1896 32.6824 26.5696 32.2224 26.5696 31.3024V23.6624C26.5696 22.7424 26.1896 22.2824 25.4296 22.2824C24.6696 22.2824 24.2896 22.7424 24.2896 23.6624V31.3024C24.2896 32.2224 24.6696 32.6824 25.4296 32.6824ZM30.2574 20.4824H32.4574V32.4824H36.0774V34.4824H30.2574V20.4824ZM38.9106 20.4824H41.8906L44.1706 34.4824H41.9706L41.5706 31.7024V31.7424H39.0706L38.6706 34.4824H36.6306L38.9106 20.4824ZM41.3106 29.8424L40.3306 22.9224H40.2906L39.3306 29.8424H41.3106ZM45.2379 20.4824H48.4979C49.6312 20.4824 50.4579 20.749 50.9779 21.2824C51.4979 21.8024 51.7579 22.609 51.7579 23.7024V24.5624C51.7579 26.0157 51.2779 26.9357 50.3179 27.3224V27.3624C50.8512 27.5224 51.2246 27.849 51.4379 28.3424C51.6646 28.8357 51.7779 29.4957 51.7779 30.3224V32.7824C51.7779 33.1824 51.7912 33.509 51.8179 33.7624C51.8446 34.0024 51.9112 34.2424 52.0179 34.4824H49.7779C49.6979 34.2557 49.6446 34.0424 49.6179 33.8424C49.5912 33.6424 49.5779 33.2824 49.5779 32.7624V30.2024C49.5779 29.5624 49.4712 29.1157 49.2579 28.8624C49.0579 28.609 48.7046 28.4824 48.1979 28.4824H47.4379V34.4824H45.2379V20.4824ZM48.2379 26.4824C48.6779 26.4824 49.0046 26.369 49.2179 26.1424C49.4446 25.9157 49.5579 25.5357 49.5579 25.0024V23.9224C49.5579 23.4157 49.4646 23.049 49.2779 22.8224C49.1046 22.5957 48.8246 22.4824 48.4379 22.4824H47.4379V26.4824H48.2379ZM53.3043 20.4824H55.5043V34.4824H53.3043V20.4824ZM60.352 34.6824C59.2853 34.6824 58.472 34.3824 57.912 33.7824C57.352 33.169 57.072 32.2957 57.072 31.1624V20.4824H59.272V31.3224C59.272 31.8024 59.3653 32.149 59.552 32.3624C59.752 32.5757 60.032 32.6824 60.392 32.6824C60.752 32.6824 61.0253 32.5757 61.212 32.3624C61.412 32.149 61.512 31.8024 61.512 31.3224V20.4824H63.632V31.1624C63.632 32.2957 63.352 33.169 62.792 33.7824C62.232 34.3824 61.4186 34.6824 60.352 34.6824ZM68.0588 34.6824C66.9922 34.6824 66.1855 34.3824 65.6388 33.7824C65.0922 33.169 64.8188 32.2957 64.8188 31.1624V30.3624H66.8988V31.3224C66.8988 32.229 67.2788 32.6824 68.0388 32.6824C68.4122 32.6824 68.6922 32.5757 68.8788 32.3624C69.0788 32.1357 69.1788 31.7757 69.1788 31.2824C69.1788 30.6957 69.0455 30.1824 68.7788 29.7424C68.5122 29.289 68.0188 28.749 67.2988 28.1224C66.3922 27.3224 65.7588 26.6024 65.3988 25.9624C65.0388 25.309 64.8588 24.5757 64.8588 23.7624C64.8588 22.6557 65.1388 21.8024 65.6988 21.2024C66.2588 20.589 67.0722 20.2824 68.1388 20.2824C69.1922 20.2824 69.9855 20.589 70.5188 21.2024C71.0655 21.8024 71.3388 22.669 71.3388 23.8024V24.3824H69.2588V23.6624C69.2588 23.1824 69.1655 22.8357 68.9788 22.6224C68.7922 22.3957 68.5188 22.2824 68.1588 22.2824C67.4255 22.2824 67.0588 22.729 67.0588 23.6224C67.0588 24.129 67.1922 24.6024 67.4588 25.0424C67.7388 25.4824 68.2388 26.0157 68.9588 26.6424C69.8788 27.4424 70.5122 28.169 70.8588 28.8224C71.2055 29.4757 71.3788 30.2424 71.3788 31.1224C71.3788 32.269 71.0922 33.149 70.5188 33.7624C69.9588 34.3757 69.1388 34.6824 68.0588 34.6824Z" fill="#F4F4F4"/>
</svg>
