<svg width="302" height="327" viewBox="0 0 302 327" fill="none" xmlns="http://www.w3.org/2000/svg">
<g filter="url(#filter0_d_87_31)">
<path d="M55.8114 225.789L53.4314 241.131C52.5971 248.92 52.5827 256.774 53.3886 264.566L53.4314 264.98L55.4124 273.677C56.5951 278.869 58.5344 283.859 61.1682 288.487C63.667 292.877 66.7657 296.898 70.375 300.433L71.0394 301.084C73.657 303.648 76.5004 305.97 79.5351 308.024L79.7553 308.173C85.9999 312.398 92.961 315.49 100.281 317.297C103.617 318.12 107.021 318.676 110.445 318.954L123.288 320H133.029C139.047 320 145.029 319.063 150.759 317.223C156.257 315.458 161.461 312.882 166.198 309.579L167.082 308.963C170.92 306.287 174.459 303.206 177.638 299.772L179.159 298.129C181.925 295.141 184.476 291.959 186.791 288.608L187.225 287.981C191.159 282.287 194.471 276.186 197.102 269.784L197.345 269.193C199.698 263.467 201.528 257.54 202.813 251.484L203.81 246.779L207.993 231.089L211.144 223.153C212.802 218.976 214.972 215.021 217.605 211.379C221.483 206.015 226.376 201.361 231.912 197.733C234.348 196.137 236.937 194.717 239.595 193.527L241.839 192.522C247.01 190.206 251.938 187.384 256.553 184.096L264.882 178.161L275.967 168.747L282.389 162.46C284.653 160.244 286.646 157.766 288.325 155.079L289 153.998C291.711 149.66 293.418 144.771 293.997 139.688C294.655 133.912 293.835 128.063 291.615 122.689L290.648 120.349C289.232 116.924 287.391 113.691 285.168 110.726L284.371 109.663C280.066 103.921 274.671 99.0831 268.496 95.4257L267.973 95.1161C263.975 92.7483 259.706 90.872 255.258 89.5281L250.503 88.0912C244.782 86.3628 238.839 85.4845 232.864 85.4845C228.981 85.4845 225.107 85.8554 221.294 86.5921L217.824 87.2628C211.702 88.4455 205.482 89.041 199.248 89.041H186.242C174.586 89.041 163.265 85.1439 154.079 77.9695L152.987 77.1165L141.275 66.6564L131.444 55.1503L120.823 45.7235C118.009 43.2262 114.986 40.9754 111.787 38.9963L109.615 37.6528C103.729 34.0119 97.1838 31.5647 90.3529 30.4507C84.4653 29.4905 78.4575 29.5359 72.585 30.5848L69.8281 31.0772C65.8761 31.7831 61.9931 32.8318 58.2231 34.2114L53.1416 36.0709C48.8852 37.6285 44.808 39.638 40.9799 42.0648C34.9623 45.8798 29.6305 50.6816 25.2087 56.2684L19.9673 62.8907C13.2071 74.2065 8.84237 86.7899 7.14351 99.8613L7 100.965V107.427C7 115.344 8.23326 123.213 10.6554 130.751C11.9808 134.875 13.6552 138.879 15.6606 142.719L16.124 143.606C18.6805 148.501 21.6924 153.144 25.1198 157.475L31.8889 166.027L42.1373 178.37L43.5607 180.137C50.0262 188.161 54.2564 197.751 55.823 207.936C56.733 213.852 56.7291 219.874 55.8114 225.789Z" fill="url(#paint0_radial_87_31)"/>
</g>
<g filter="url(#filter1_d_87_31)">
<path d="M263.73 251.124C259.946 255.804 250.518 263.345 243.087 256.079C232.241 245.474 253.143 221.174 264.243 231.513C264.787 232.02 265.306 232.571 265.795 233.164C270.419 238.779 266.345 247.477 263.73 251.124Z" fill="#FFAE00"/>
<path d="M247.835 248.854C242.715 247.863 222.994 232.752 213.773 225.32C212.212 223.87 212.209 221.4 213.768 219.947L230.753 204.116C231.546 203.377 232.768 203.352 233.591 204.057L235.242 205.915C242.674 213.897 257.702 231.389 258.363 237.5C258.37 237.565 258.377 237.629 258.383 237.693C259.008 243.85 253.911 250.03 247.835 248.854Z" fill="url(#paint1_linear_87_31)"/>
<path d="M229.875 219.746C227.382 222.862 224.173 225.188 220.651 226.903C203.89 235.06 184.617 226.638 167.944 218.301L151.662 209.681C149.27 208.414 148.754 205.21 150.63 203.257L154.371 199.361L161.854 191.568L176.821 175.982L206.204 145.383C206.57 145.002 206.973 144.659 207.407 144.358L207.921 144.003C208.909 143.319 210.082 142.952 211.283 142.952C213.342 142.952 215.253 144.025 216.326 145.782L232.101 171.633C236.751 179.252 239.977 187.884 238.781 196.73C237.754 204.321 235.232 213.049 229.875 219.746Z" fill="url(#paint2_linear_87_31)"/>
<path d="M94.0074 191.078L91.4711 189.176C90.5768 188.506 89.8132 187.676 89.2183 186.73C87.0598 183.296 87.4242 178.85 90.1131 175.813L176.462 78.2988C178.987 75.4467 183.498 75.6417 185.767 78.7012C185.996 79.0089 186.194 79.3377 186.36 79.6833L216.87 143.365C219.828 151.485 220.709 172.803 200.561 193.116C187.722 206.06 171.407 210.695 158.197 211.677C145.972 212.586 134.161 208.342 122.805 203.723L99.87 194.395C97.7815 193.546 95.8111 192.431 94.0074 191.078Z" fill="#FFAE00"/>
<circle cx="115.097" cy="114.258" r="78.5969" fill="#FFE000" stroke="#FFE000" stroke-width="3"/>
<circle cx="115.097" cy="115.084" r="72.2523" fill="#232323"/>
<path d="M64.1074 84.7375L90.1182 81.0217L104.156 98.1558L122.529 115.703M122.529 115.703L127.277 145.842L158.655 152.655L163.196 118.799L122.529 115.703Z" stroke="#F4F4F4" stroke-width="2"/>
<circle cx="77.9386" cy="107.652" r="1.23861" fill="#F4F4F4"/>
<circle cx="70.094" cy="98.5687" r="1.23861" fill="#F4F4F4"/>
<circle cx="63.308" cy="116.968" r="1.23861" transform="rotate(12.1381 63.308 116.968)" fill="#F4F4F4"/>
<circle cx="54.6377" cy="129.354" r="1.23861" transform="rotate(12.1381 54.6377 129.354)" fill="#F4F4F4"/>
<circle cx="82.3" cy="138.024" r="1.23861" transform="rotate(12.1381 82.3 138.024)" fill="#F4F4F4"/>
<circle cx="72.3911" cy="138.437" r="1.23861" transform="rotate(12.1381 72.3911 138.437)" fill="#F4F4F4"/>
<circle cx="114.504" cy="135.134" r="1.23861" transform="rotate(12.1381 114.504 135.134)" fill="#F4F4F4"/>
<circle cx="102.118" cy="110.362" r="1.23861" transform="rotate(12.1381 102.118 110.362)" fill="#F4F4F4"/>
<circle cx="107.485" cy="139.263" r="1.23861" transform="rotate(12.1381 107.485 139.263)" fill="#F4F4F4"/>
<circle cx="104.595" cy="154.539" r="1.23861" transform="rotate(12.1381 104.595 154.539)" fill="#F4F4F4"/>
<circle cx="78.997" cy="165.274" r="1.23861" transform="rotate(12.1381 78.997 165.274)" fill="#F4F4F4"/>
<circle cx="112.027" cy="179.724" r="1.23861" transform="rotate(12.1381 112.027 179.724)" fill="#F4F4F4"/>
<circle cx="153.314" cy="78.5708" r="1.23861" transform="rotate(12.1381 153.314 78.5708)" fill="#F4F4F4"/>
<circle cx="122.761" cy="100.453" r="1.23861" transform="rotate(12.1381 122.761 100.453)" fill="#F4F4F4"/>
<circle cx="160.745" cy="71.1391" r="1.23861" transform="rotate(12.1381 160.745 71.1391)" fill="#F4F4F4"/>
<circle cx="123.587" cy="70.3133" r="1.23861" transform="rotate(12.1381 123.587 70.3133)" fill="#F4F4F4"/>
<circle cx="81.8871" cy="68.2489" r="1.23861" transform="rotate(12.1381 81.8871 68.2489)" fill="#F4F4F4"/>
<circle cx="77.3456" cy="64.1203" r="1.23861" transform="rotate(12.1381 77.3456 64.1203)" fill="#F4F4F4"/>
<circle cx="85.6029" cy="61.6431" r="1.23861" transform="rotate(12.1381 85.6029 61.6431)" fill="#F4F4F4"/>
<circle cx="103.769" cy="56.2757" r="1.23861" transform="rotate(12.1381 103.769 56.2757)" fill="#F4F4F4"/>
<circle cx="135.147" cy="56.2757" r="1.23861" transform="rotate(12.1381 135.147 56.2757)" fill="#F4F4F4"/>
<circle cx="117.394" cy="79.3965" r="1.23861" transform="rotate(12.1381 117.394 79.3965)" fill="#F4F4F4"/>
<circle cx="174.783" cy="94.2598" r="1.23861" transform="rotate(12.1381 174.783 94.2598)" fill="#F4F4F4"/>
<circle cx="176.434" cy="100.866" r="1.23861" transform="rotate(12.1381 176.434 100.866)" fill="#F4F4F4"/>
<circle cx="150.424" cy="109.949" r="1.23861" transform="rotate(12.1381 150.424 109.949)" fill="#F4F4F4"/>
<circle cx="136.386" cy="137.198" r="1.23861" transform="rotate(12.1381 136.386 137.198)" fill="#F4F4F4"/>
<circle cx="170.654" cy="138.437" r="1.23861" transform="rotate(12.1381 170.654 138.437)" fill="#F4F4F4"/>
<circle cx="152.075" cy="164.861" r="1.23861" transform="rotate(12.1381 152.075 164.861)" fill="#F4F4F4"/>
<circle cx="121.936" cy="178.898" r="1.23861" transform="rotate(12.1381 121.936 178.898)" fill="#F4F4F4"/>
<g filter="url(#filter2_d_87_31)">
<circle cx="63.4881" cy="84.5311" r="3.30296" fill="#F4F4F4"/>
<circle cx="89.9118" cy="81.2281" r="3.30296" fill="#F4F4F4"/>
<circle cx="104.362" cy="98.5687" r="3.30296" fill="#F4F4F4"/>
<circle cx="122.529" cy="115.909" r="3.30296" fill="#F4F4F4"/>
<circle cx="127.483" cy="145.636" r="3.30296" fill="#F4F4F4"/>
<circle cx="158.448" cy="152.242" r="3.30296" fill="#F4F4F4"/>
<circle cx="162.99" cy="119.212" r="3.30296" fill="#F4F4F4"/>
<path d="M88.4667 207.773C109.523 210.457 158.407 208.434 185.491 178.872C190.444 173.467 194.468 167.897 197.716 162.319C218.96 125.84 209.525 74.9767 177.948 46.9594C170.08 39.9779 160.387 33.7028 148.539 29M185.491 214.998L232.146 247.615" stroke="black" stroke-width="5"/>
</g>
</g>
<defs>
<filter id="filter0_d_87_31" x="0" y="22.7628" width="301.217" height="304.237" filterUnits="userSpaceOnUse" color-interpolation-filters="sRGB">
<feFlood flood-opacity="0" result="BackgroundImageFix"/>
<feColorMatrix in="SourceAlpha" type="matrix" values="0 0 0 0 0 0 0 0 0 0 0 0 0 0 0 0 0 0 127 0" result="hardAlpha"/>
<feOffset/>
<feGaussianBlur stdDeviation="3.5"/>
<feComposite in2="hardAlpha" operator="out"/>
<feColorMatrix type="matrix" values="0 0 0 0 0 0 0 0 0 0 0 0 0 0 0 0 0 0 0.5 0"/>
<feBlend mode="normal" in2="BackgroundImageFix" result="effect1_dropShadow_87_31"/>
<feBlend mode="normal" in="SourceGraphic" in2="effect1_dropShadow_87_31" result="shape"/>
</filter>
<filter id="filter1_d_87_31" x="5" y="0.676392" width="292.896" height="292.421" filterUnits="userSpaceOnUse" color-interpolation-filters="sRGB">
<feFlood flood-opacity="0" result="BackgroundImageFix"/>
<feColorMatrix in="SourceAlpha" type="matrix" values="0 0 0 0 0 0 0 0 0 0 0 0 0 0 0 0 0 0 127 0" result="hardAlpha"/>
<feOffset dy="4"/>
<feGaussianBlur stdDeviation="15"/>
<feComposite in2="hardAlpha" operator="out"/>
<feColorMatrix type="matrix" values="0 0 0 0 1 0 0 0 0 1 0 0 0 0 1 0 0 0 0.5 0"/>
<feBlend mode="normal" in2="BackgroundImageFix" result="effect1_dropShadow_87_31"/>
<feBlend mode="normal" in="SourceGraphic" in2="effect1_dropShadow_87_31" result="shape"/>
</filter>
<filter id="filter2_d_87_31" x="50.1851" y="16.6764" width="193.393" height="242.988" filterUnits="userSpaceOnUse" color-interpolation-filters="sRGB">
<feFlood flood-opacity="0" result="BackgroundImageFix"/>
<feColorMatrix in="SourceAlpha" type="matrix" values="0 0 0 0 0 0 0 0 0 0 0 0 0 0 0 0 0 0 127 0" result="hardAlpha"/>
<feOffset/>
<feGaussianBlur stdDeviation="5"/>
<feComposite in2="hardAlpha" operator="out"/>
<feColorMatrix type="matrix" values="0 0 0 0 1 0 0 0 0 1 0 0 0 0 1 0 0 0 1 0"/>
<feBlend mode="normal" in2="BackgroundImageFix" result="effect1_dropShadow_87_31"/>
<feBlend mode="normal" in="SourceGraphic" in2="effect1_dropShadow_87_31" result="shape"/>
</filter>
<radialGradient id="paint0_radial_87_31" cx="0" cy="0" r="1" gradientUnits="userSpaceOnUse" gradientTransform="translate(151 174.5) rotate(90) scale(145.5 144)">
<stop stop-color="#1F0845"/>
<stop offset="1" stop-color="#4B14A3"/>
</radialGradient>
<linearGradient id="paint1_linear_87_31" x1="229.5" y1="220" x2="254" y2="242" gradientUnits="userSpaceOnUse">
<stop stop-color="#6F4318"/>
<stop offset="1" stop-color="#040301"/>
</linearGradient>
<linearGradient id="paint2_linear_87_31" x1="199.5" y1="192.5" x2="230" y2="222" gradientUnits="userSpaceOnUse">
<stop offset="0.197917" stop-color="#FF8500"/>
<stop offset="1" stop-color="#FFCB92"/>
</linearGradient>
</defs>
</svg>
