<svg width="302" height="327" viewBox="0 0 302 327" fill="none" xmlns="http://www.w3.org/2000/svg">
<g filter="url(#filter0_d_87_32)">
<path d="M55.8114 225.789L53.4314 241.131C52.5971 248.92 52.5827 256.774 53.3886 264.566L53.4314 264.98L55.4124 273.677C56.5951 278.869 58.5344 283.859 61.1682 288.487C63.667 292.877 66.7657 296.898 70.375 300.433L71.0394 301.084C73.657 303.648 76.5004 305.97 79.5351 308.024L79.7553 308.173C85.9999 312.398 92.961 315.49 100.281 317.297C103.617 318.12 107.021 318.676 110.445 318.954L123.288 320H133.029C139.047 320 145.029 319.063 150.759 317.223C156.257 315.458 161.461 312.882 166.198 309.579L167.082 308.963C170.92 306.287 174.459 303.206 177.638 299.772L179.159 298.129C181.925 295.141 184.476 291.959 186.791 288.608L187.225 287.981C191.159 282.287 194.471 276.186 197.102 269.784L197.345 269.193C199.698 263.467 201.528 257.54 202.813 251.484L203.81 246.779L207.993 231.089L211.144 223.153C212.802 218.976 214.972 215.021 217.605 211.379C221.483 206.015 226.376 201.361 231.912 197.733C234.348 196.137 236.937 194.717 239.595 193.527L241.839 192.522C247.01 190.206 251.938 187.384 256.553 184.096L264.882 178.161L275.967 168.747L282.389 162.46C284.653 160.244 286.646 157.766 288.325 155.079L289 153.998C291.711 149.66 293.418 144.771 293.997 139.688C294.655 133.912 293.835 128.063 291.615 122.689L290.648 120.349C289.232 116.924 287.391 113.691 285.168 110.726L284.371 109.663C280.066 103.921 274.671 99.0831 268.496 95.4257L267.973 95.1161C263.975 92.7483 259.706 90.872 255.258 89.5281L250.503 88.0912C244.782 86.3628 238.839 85.4845 232.864 85.4845C228.981 85.4845 225.107 85.8554 221.294 86.5921L217.824 87.2628C211.702 88.4455 205.482 89.041 199.248 89.041H186.242C174.586 89.041 163.265 85.1439 154.079 77.9695L152.987 77.1165L141.275 66.6564L131.444 55.1503L120.823 45.7235C118.009 43.2262 114.986 40.9754 111.787 38.9963L109.615 37.6528C103.729 34.0119 97.1838 31.5647 90.3529 30.4507C84.4653 29.4905 78.4575 29.5359 72.585 30.5848L69.8281 31.0772C65.8761 31.7831 61.9931 32.8318 58.2231 34.2114L53.1416 36.0709C48.8852 37.6285 44.808 39.638 40.9799 42.0648C34.9623 45.8798 29.6305 50.6816 25.2087 56.2684L19.9673 62.8907C13.2071 74.2065 8.84237 86.7899 7.14351 99.8613L7 100.965V107.427C7 115.344 8.23326 123.213 10.6554 130.751C11.9808 134.875 13.6552 138.879 15.6606 142.719L16.124 143.606C18.6805 148.501 21.6924 153.144 25.1198 157.475L31.8889 166.027L42.1373 178.37L43.5607 180.137C50.0262 188.161 54.2564 197.751 55.823 207.936C56.733 213.852 56.7291 219.874 55.8114 225.789Z" fill="url(#paint0_radial_87_32)"/>
</g>
<g filter="url(#filter1_d_87_32)">
<path d="M143.937 237.915L148.034 238.414C148.048 238.416 148.061 238.419 148.074 238.423C148.209 238.468 148.349 238.368 148.349 238.226V238.123L148.251 237.338L138.834 170.248V169.071V168.919C138.834 168.31 138.976 167.708 139.248 167.163C139.364 166.932 139.502 166.713 139.661 166.508L139.739 166.409C139.984 166.093 140.279 165.82 140.611 165.598C140.864 165.429 141.137 165.292 141.423 165.19L142.365 164.854L211.03 142.392L211.505 142.246C212.035 142.083 212.587 142 213.142 142H213.34C213.63 142 213.919 142.033 214.202 142.098L214.282 142.117C214.789 142.234 215.263 142.463 215.669 142.788C215.91 142.981 216.125 143.206 216.307 143.456L216.347 143.511C216.657 143.938 216.88 144.423 217.001 144.937L217.21 145.825L228 224.783V227.824C227.87 229.518 227.537 231.208 227.019 232.826L226.865 233.203C226.251 234.711 225.446 236.134 224.469 237.436L222.801 239.496L221.134 241.065L219.368 242.34L217.406 243.517L215.248 244.694C213.877 245.347 212.458 245.897 211.005 246.339L210.932 246.362L208.48 246.754L205.929 246.95H204.49C203.816 246.95 203.142 246.897 202.476 246.79C201.512 246.636 200.568 246.371 199.664 246.001L198.866 245.675L197.794 245.162C197.008 244.786 196.272 244.314 195.602 243.756C195.098 243.336 194.635 242.87 194.218 242.364L193.471 241.457L192.65 240.166C192.283 239.59 191.973 238.979 191.724 238.343C191.386 237.48 191.163 236.578 191.061 235.657L191.052 235.573C190.965 234.79 190.96 234 191.039 233.217L191.095 232.654C191.175 231.854 191.313 231.062 191.508 230.282L191.706 229.491L192.018 228.555C192.267 227.808 192.583 227.084 192.963 226.393C193.302 225.779 193.689 225.192 194.121 224.64L195.237 223.214L196.414 221.841L197.689 220.664L199.161 219.487L201.123 218.113L202.594 217.231L204.458 216.348L206.125 215.563L208.283 214.877L211.128 214.386L213.875 214.288L215.15 214.341C215.867 214.371 216.581 214.47 217.28 214.636L218.244 214.866C218.274 214.873 218.303 214.883 218.331 214.896C218.694 215.057 219.092 214.753 219.032 214.36L218.975 213.994L212.305 165.736C212.254 165.228 211.752 164.892 211.263 165.039L211.226 165.05L149.624 185.157C149.075 185.267 148.71 185.789 148.795 186.342L148.839 186.628L157.373 247.539V250.498C157.373 252.045 157.118 253.583 156.617 255.047C156.272 256.054 155.814 257.019 155.252 257.922L154.092 259.786C153.599 260.579 153.049 261.334 152.446 262.046C150.905 263.867 149.038 265.385 146.941 266.522L144.327 267.94L144.182 268.009C141.436 269.32 138.432 270 135.389 270H135.118C134.131 270 133.146 269.915 132.173 269.747L131.583 269.645C129.573 269.297 127.659 268.528 125.967 267.389L125.596 267.139C124.361 266.307 123.29 265.254 122.438 264.033C121.351 262.475 120.647 260.682 120.383 258.801L120.354 258.595C120.12 256.929 120.214 255.233 120.629 253.603L120.76 253.086C121.166 251.49 121.822 249.969 122.702 248.577L123.084 247.974C123.967 246.577 125.019 245.295 126.216 244.155L126.447 243.936C127.833 242.616 129.38 241.476 131.052 240.544L131.333 240.387C132.862 239.535 134.491 238.879 136.184 238.437C138.713 237.776 141.343 237.598 143.937 237.915Z" fill="#F4F4F4"/>
</g>
<g filter="url(#filter2_d_87_32)">
<path d="M97.921 126.288L99.0474 127.155C99.1369 127.224 99.2137 127.308 99.2745 127.403L99.3531 127.526C99.4425 127.666 99.5838 127.764 99.7459 127.8L99.8082 127.814C99.8621 127.825 99.918 127.824 99.9715 127.811C100.102 127.778 100.202 127.674 100.231 127.543L100.329 127.094L123.87 34.2869L124.181 33.5101C124.381 33.0108 124.677 32.556 125.053 32.1714C125.269 31.9501 125.51 31.7541 125.77 31.5871L126.097 31.3779C126.37 31.2025 126.667 31.0661 126.978 30.9727L127.044 30.9528C127.57 30.7949 128.128 30.7737 128.665 30.8913C128.825 30.9266 128.983 30.9741 129.137 31.0334L129.563 31.198C130.223 31.4531 130.807 31.8728 131.26 32.4172C131.458 32.656 131.629 32.9162 131.77 33.193L132.431 34.4963C135.962 40.5511 144.142 54.6565 148.611 62.6399C153.08 70.6234 153.868 77.9203 153.703 80.5708C153.563 83.3193 152.802 90.3785 150.877 96.6266C148.952 102.875 143.952 109.005 141.693 111.289L140.987 111.992C140.395 112.583 139.714 113.076 138.969 113.455L138.507 113.69C138.419 113.735 138.328 113.772 138.235 113.801L137.869 113.916C137.534 114.021 137.167 113.951 136.894 113.73C136.584 113.48 136.442 113.076 136.528 112.687L136.6 112.357C136.633 112.206 136.688 112.059 136.764 111.924L137.338 110.89L138.378 109.311L142.009 102.881C144.115 98.3403 147.965 87.8728 146.515 82.3299C144.702 75.4013 143.032 72.2559 139.562 67.1873C136.786 63.1324 131.27 59.2086 128.859 57.7536L128.151 57.1816L127.547 56.7712L127.277 56.61C127.047 56.4731 126.751 56.6013 126.694 56.8621L126.491 57.7903L105.367 140.844C105.039 142.336 104.463 143.762 103.662 145.063L103.364 145.546L102.808 146.27C102.144 147.134 101.407 147.94 100.606 148.678C99.7863 149.434 98.9024 150.116 97.9642 150.717L97.1129 151.263L94.9097 152.448L92.6322 153.338L90.2803 153.934C88.6273 154.311 86.9445 154.544 85.2511 154.63L84.7076 154.658L81.6483 154.682L78.8086 154.337L76.1595 153.756C74.5229 153.212 72.9302 152.544 71.3952 151.758L71.3297 151.725L69.2524 150.435L67.469 149.072C66.5465 148.222 65.6924 147.301 64.9148 146.317L64.8877 146.282L64.2104 145.124C63.8551 144.516 63.5632 143.874 63.339 143.207C63.0608 142.379 62.8892 141.519 62.8281 140.648L62.752 139.561L62.8442 138.01C62.8859 137.307 62.9826 136.609 63.1333 135.922L63.142 135.882C63.2951 135.184 63.5055 134.5 63.7712 133.836L63.8604 133.613C64.1477 132.896 64.5115 132.211 64.9453 131.571C65.3298 131.004 65.7675 130.475 66.2525 129.992L67.1225 129.124L68.6634 127.794L70.6598 126.287C71.8399 125.53 73.1083 124.921 74.4366 124.474L74.685 124.39L76.801 123.603L76.8441 123.59C78.3997 123.114 79.9937 122.774 81.6081 122.573L82.7629 122.468C83.7853 122.375 84.8136 122.367 85.8374 122.443C86.7233 122.508 87.6034 122.636 88.471 122.827L89.817 123.122C91.5806 123.508 93.3129 124.026 94.9996 124.67L95.028 124.681L96.3013 125.292C96.8745 125.567 97.4173 125.901 97.921 126.288Z" fill="#F4F4F4"/>
</g>
<g filter="url(#filter3_d_87_32)">
<path d="M87.9183 234.269L88.7387 234.237C88.8039 234.235 88.869 234.244 88.9311 234.263L89.0115 234.289C89.1028 234.318 89.2019 234.309 89.2869 234.265L89.3196 234.248C89.3479 234.233 89.3724 234.212 89.3911 234.186C89.4367 234.124 89.4429 234.04 89.4071 233.971L89.2849 233.736L65.4103 183.852L65.261 183.393C65.1651 183.097 65.1283 182.786 65.1529 182.476C65.167 182.298 65.2014 182.122 65.2552 181.952L65.3226 181.738C65.3791 181.559 65.4603 181.389 65.5639 181.232L65.5859 181.199C65.7609 180.934 66.0005 180.719 66.2821 180.573C66.3664 180.529 66.454 180.492 66.5441 180.461L66.794 180.377C67.1814 180.245 67.5958 180.216 67.9979 180.29C68.1742 180.322 68.3463 180.375 68.511 180.446L69.2862 180.779C73.0921 182.16 81.9376 185.394 86.8726 187.284C91.8077 189.173 94.8557 192.119 95.7627 193.356C96.7171 194.628 98.9899 198.041 100.446 201.525C101.902 205.01 101.951 209.578 101.793 211.427L101.74 212C101.696 212.481 101.576 212.952 101.386 213.396L101.268 213.671C101.245 213.723 101.219 213.773 101.188 213.821L101.068 214.007C100.958 214.178 100.77 214.282 100.567 214.285C100.337 214.289 100.124 214.162 100.018 213.958L99.9286 213.785C99.8872 213.705 99.8577 213.62 99.8409 213.532L99.7134 212.86L99.5912 211.775L98.8245 207.58C98.0798 204.786 95.9171 198.718 93.224 196.795C89.8575 194.391 87.9532 193.613 84.5393 192.647C81.8082 191.875 77.9096 192.174 76.3017 192.42L75.7763 192.427L75.3565 192.469L75.1769 192.497C75.0245 192.521 74.9406 192.688 75.0117 192.824L75.2646 193.312L96.6045 237.974C97.011 238.757 97.2827 239.603 97.4081 240.476L97.4548 240.801L97.4756 241.328C97.5005 241.957 97.4715 242.587 97.3891 243.211C97.3049 243.849 97.165 244.478 96.9711 245.092L96.7952 245.649L96.2557 246.99L95.5744 248.227L94.7513 249.361C94.1573 250.14 93.4968 250.865 92.7772 251.53L92.5463 251.743L91.1977 252.885L89.8103 253.782L88.4201 254.504C87.4928 254.868 86.5391 255.16 85.5673 255.379L85.5258 255.389L84.1274 255.585L82.8318 255.639C82.1083 255.603 81.3887 255.51 80.6797 255.361L80.655 255.356L79.9261 255.092C79.5438 254.954 79.1767 254.777 78.8306 254.564C78.401 254.3 78.0069 253.982 77.6576 253.618L77.2218 253.163L76.6891 252.441C76.4479 252.114 76.2327 251.769 76.0454 251.408L76.0345 251.387C75.8443 251.021 75.6846 250.639 75.5571 250.246L75.5142 250.114C75.3763 249.69 75.2846 249.252 75.2405 248.807C75.2015 248.414 75.2001 248.017 75.2365 247.623L75.3016 246.916L75.4936 245.757L75.8218 244.349C76.0657 243.577 76.4033 242.838 76.8272 242.148L76.9064 242.019L77.5544 240.888L77.5686 240.866C78.0828 240.079 78.6642 239.339 79.3062 238.653L79.7799 238.179C80.1993 237.76 80.6524 237.376 81.1347 237.031C81.5519 236.733 81.9899 236.464 82.4452 236.228L83.1515 235.861C84.077 235.38 85.0371 234.969 86.0237 234.631L86.0403 234.626L86.8311 234.426C87.187 234.336 87.5514 234.283 87.9183 234.269Z" fill="#F4F4F4"/>
</g>
<defs>
<filter id="filter0_d_87_32" x="0" y="22.7628" width="301.217" height="304.237" filterUnits="userSpaceOnUse" color-interpolation-filters="sRGB">
<feFlood flood-opacity="0" result="BackgroundImageFix"/>
<feColorMatrix in="SourceAlpha" type="matrix" values="0 0 0 0 0 0 0 0 0 0 0 0 0 0 0 0 0 0 127 0" result="hardAlpha"/>
<feOffset/>
<feGaussianBlur stdDeviation="3.5"/>
<feComposite in2="hardAlpha" operator="out"/>
<feColorMatrix type="matrix" values="0 0 0 0 0 0 0 0 0 0 0 0 0 0 0 0 0 0 0.5 0"/>
<feBlend mode="normal" in2="BackgroundImageFix" result="effect1_dropShadow_87_32"/>
<feBlend mode="normal" in="SourceGraphic" in2="effect1_dropShadow_87_32" result="shape"/>
</filter>
<filter id="filter1_d_87_32" x="90.2285" y="112" width="167.771" height="188" filterUnits="userSpaceOnUse" color-interpolation-filters="sRGB">
<feFlood flood-opacity="0" result="BackgroundImageFix"/>
<feColorMatrix in="SourceAlpha" type="matrix" values="0 0 0 0 0 0 0 0 0 0 0 0 0 0 0 0 0 0 127 0" result="hardAlpha"/>
<feOffset/>
<feGaussianBlur stdDeviation="15"/>
<feComposite in2="hardAlpha" operator="out"/>
<feColorMatrix type="matrix" values="0 0 0 0 1 0 0 0 0 1 0 0 0 0 1 0 0 0 0.5 0"/>
<feBlend mode="normal" in2="BackgroundImageFix" result="effect1_dropShadow_87_32"/>
<feBlend mode="normal" in="SourceGraphic" in2="effect1_dropShadow_87_32" result="shape"/>
</filter>
<filter id="filter2_d_87_32" x="32.752" y="0.816406" width="150.971" height="183.865" filterUnits="userSpaceOnUse" color-interpolation-filters="sRGB">
<feFlood flood-opacity="0" result="BackgroundImageFix"/>
<feColorMatrix in="SourceAlpha" type="matrix" values="0 0 0 0 0 0 0 0 0 0 0 0 0 0 0 0 0 0 127 0" result="hardAlpha"/>
<feOffset/>
<feGaussianBlur stdDeviation="15"/>
<feComposite in2="hardAlpha" operator="out"/>
<feColorMatrix type="matrix" values="0 0 0 0 1 0 0 0 0 1 0 0 0 0 1 0 0 0 0.5 0"/>
<feBlend mode="normal" in2="BackgroundImageFix" result="effect1_dropShadow_87_32"/>
<feBlend mode="normal" in="SourceGraphic" in2="effect1_dropShadow_87_32" result="shape"/>
</filter>
<filter id="filter3_d_87_32" x="35.1455" y="150.25" width="96.7092" height="135.389" filterUnits="userSpaceOnUse" color-interpolation-filters="sRGB">
<feFlood flood-opacity="0" result="BackgroundImageFix"/>
<feColorMatrix in="SourceAlpha" type="matrix" values="0 0 0 0 0 0 0 0 0 0 0 0 0 0 0 0 0 0 127 0" result="hardAlpha"/>
<feOffset/>
<feGaussianBlur stdDeviation="15"/>
<feComposite in2="hardAlpha" operator="out"/>
<feColorMatrix type="matrix" values="0 0 0 0 0 0 0 0 0 0 0 0 0 0 0 0 0 0 0.5 0"/>
<feBlend mode="normal" in2="BackgroundImageFix" result="effect1_dropShadow_87_32"/>
<feBlend mode="normal" in="SourceGraphic" in2="effect1_dropShadow_87_32" result="shape"/>
</filter>
<radialGradient id="paint0_radial_87_32" cx="0" cy="0" r="1" gradientUnits="userSpaceOnUse" gradientTransform="translate(151 174.5) rotate(90) scale(145.5 144)">
<stop stop-color="#1F0845"/>
<stop offset="1" stop-color="#4B14A3"/>
</radialGradient>
</defs>
</svg>
