<svg width="306" height="305" viewBox="0 0 306 305" fill="none" xmlns="http://www.w3.org/2000/svg">
<g filter="url(#filter0_d_87_34)">
<path d="M59.8114 203.789L57.4314 219.131C56.5971 226.92 56.5827 234.774 57.3886 242.566L57.4314 242.98L59.4124 251.677C60.5951 256.869 62.5344 261.859 65.1682 266.487C67.667 270.877 70.7657 274.898 74.375 278.433L75.0394 279.084C77.657 281.648 80.5004 283.97 83.5351 286.024L83.7553 286.173C89.9999 290.398 96.961 293.49 104.281 295.297C107.617 296.12 111.021 296.676 114.445 296.954L127.288 298H137.029C143.047 298 149.029 297.063 154.759 295.223C160.257 293.458 165.461 290.882 170.198 287.579L171.082 286.963C174.92 284.287 178.459 281.206 181.638 277.772L183.159 276.129C185.925 273.141 188.476 269.959 190.791 266.608L191.225 265.981C195.159 260.287 198.471 254.186 201.102 247.784L201.345 247.193C203.698 241.467 205.528 235.54 206.813 229.484L207.81 224.779L211.993 209.089L215.144 201.153C216.802 196.976 218.972 193.021 221.605 189.379C225.483 184.015 230.376 179.361 235.912 175.733C238.348 174.137 240.937 172.717 243.595 171.527L245.839 170.522C251.01 168.206 255.938 165.384 260.553 162.096L268.882 156.161L279.967 146.747L286.389 140.46C288.653 138.244 290.646 135.766 292.325 133.079L293 131.998C295.711 127.66 297.418 122.771 297.997 117.688C298.655 111.912 297.835 106.063 295.615 100.689L294.648 98.3493C293.232 94.9242 291.391 91.691 289.168 88.7259L288.371 87.6632C284.066 81.921 278.671 77.0831 272.496 73.4257L271.973 73.1161C267.975 70.7483 263.706 68.872 259.258 67.5281L254.503 66.0912C248.782 64.3628 242.839 63.4845 236.864 63.4845C232.981 63.4845 229.107 63.8554 225.294 64.5921L221.824 65.2628C215.702 66.4455 209.482 67.041 203.248 67.041H190.242C178.586 67.041 167.265 63.1439 158.079 55.9695L156.987 55.1165L145.275 44.6564L135.444 33.1503L124.823 23.7235C122.009 21.2262 118.986 18.9754 115.787 16.9963L113.615 15.6528C107.729 12.0119 101.184 9.5647 94.3529 8.4507C88.4653 7.49052 82.4575 7.53585 76.585 8.58477L73.8281 9.0772C69.8761 9.78308 65.9931 10.8318 62.2231 12.2114L57.1416 14.0709C52.8852 15.6285 48.808 17.638 44.9799 20.0648C38.9623 23.8798 33.6305 28.6816 29.2087 34.2684L23.9673 40.8907C17.2071 52.2065 12.8424 64.7899 11.1435 77.8613L11 78.9655V85.4271C11 93.3442 12.2333 101.213 14.6554 108.751C15.9808 112.875 17.6552 116.879 19.6606 120.719L20.124 121.606C22.6805 126.501 25.6924 131.144 29.1198 135.475L35.8889 144.027L46.1373 156.37L47.5607 158.137C54.0262 166.161 58.2564 175.751 59.823 185.936C60.733 191.852 60.7291 197.874 59.8114 203.789Z" fill="url(#paint0_radial_87_34)"/>
</g>
<g filter="url(#filter1_d_87_34)">
<circle cx="142" cy="147" r="91" fill="#EFBF95"/>
<path d="M78.2021 87.3118L78.5935 84.1807C78.72 83.4217 77.8205 82.9448 77.2766 83.4891C55.7398 105.041 45.5635 140.961 54.7183 172.049C61.7304 195.862 77.9212 212.438 86.6276 218.948C87.7516 219.788 89.1277 220.191 90.5312 220.191H93.271H94.1398C96.0302 220.191 97.9114 219.928 99.729 219.409L100.775 219.006C101.772 218.623 102.739 218.164 103.667 217.634C104.563 217.122 105.42 216.544 106.232 215.907L107.753 214.712L108.017 214.447C109.013 213.452 109.907 212.361 110.688 211.189L111.179 210.207C111.633 209.3 111.97 208.339 112.182 207.347C112.36 206.519 112.449 205.674 112.449 204.827V203.753V202.568C112.449 201.534 112.34 200.503 112.124 199.492C111.95 198.681 111.707 197.886 111.399 197.116L110.688 195.338L109.514 192.402L108.144 189.662L106.97 187.51L105.6 184.77L104.426 181.639L103.447 179.095L102.665 176.746L102.077 174.006L101.707 172.34C101.693 172.277 101.686 172.213 101.686 172.148C101.686 171.661 101.291 171.267 100.804 171.267H100.316H97.5763L94.2495 170.875L90.9226 170.092L88.9976 169.526C88.0671 169.253 87.1772 168.856 86.3512 168.348C85.489 167.818 84.7046 167.17 84.0205 166.424L83.556 165.917C83.1196 165.441 82.7426 164.913 82.4333 164.346C81.9649 163.488 81.6584 162.55 81.5292 161.581L81.3333 160.112V156.981V153.849L81.1706 152.547C81.0194 151.338 80.6479 150.167 80.0745 149.092C79.6116 148.224 79.0228 147.429 78.3272 146.734L76.8323 145.239L73.5054 142.303L73.3958 142.194C72.041 140.839 70.8912 139.293 69.9828 137.606L69.0043 135.258C68.4858 133.703 68.2215 132.074 68.2215 130.434V130.366V129.238C68.2215 128.425 68.2836 127.614 68.4071 126.811C68.5441 125.921 68.756 125.044 69.0408 124.189L69.3957 123.125L70.3742 120.776L71.3446 119.078C71.7408 118.385 72.1903 117.723 72.6891 117.1C73.2323 116.421 73.8321 115.789 74.4819 115.212L75.2667 114.514L76.6289 113.288C77.0241 112.932 77.3776 112.533 77.6825 112.097C78.2823 111.24 78.6828 110.26 78.8547 109.229L78.8802 109.076C78.9499 108.657 78.9849 108.234 78.9849 107.81V105.903L78.5935 102.968C78.3329 101.144 78.2021 99.3031 78.2021 97.4604V96.5097V91.4215V87.3118Z" fill="#452E1E"/>
<path d="M175.418 226.33L176.052 228.019C176.829 229.463 178.585 230.083 180.075 229.401C216.572 212.704 229.787 176.618 231.826 160.308C231.826 160.163 231.651 160.091 231.549 160.193L231.45 160.292C231.44 160.302 231.43 160.314 231.422 160.326L231.043 160.895L227.912 165.004L225.563 167.353L221.845 170.68L220.973 171.494C219.6 172.775 218.124 173.943 216.561 174.985L214.017 176.746L210.299 179.682L203.449 183.791L200.318 185.357L198.64 186.316C197.934 186.72 197.259 187.178 196.624 187.687L196.466 187.812C195.904 188.262 195.379 188.757 194.898 189.292L194.793 189.409C194.173 190.097 193.636 190.856 193.193 191.669C192.856 192.287 192.574 192.934 192.351 193.602L191.903 194.946L191.546 196.493C191.393 197.157 191.184 197.807 190.922 198.436C190.534 199.367 190.025 200.256 189.419 201.064C188.863 201.805 188.219 202.489 187.512 203.087L186.032 204.34L183.88 205.905L181.923 207.275L179.77 208.841L179.302 209.181C178.19 209.99 177.246 211.009 176.525 212.181C176.21 212.693 175.939 213.231 175.716 213.79L175.412 214.549C175.056 215.438 174.783 216.359 174.595 217.298L174.587 217.337C174.39 218.324 174.29 219.329 174.29 220.336C174.29 221.281 174.378 222.225 174.552 223.154L174.594 223.375C174.783 224.382 175.058 225.371 175.418 226.33Z" fill="#452E1E"/>
<path d="M78.2021 87.3118L78.5935 84.1807C78.72 83.4217 77.8205 82.9448 77.2766 83.4891C55.7398 105.041 45.5635 140.961 54.7183 172.049C61.7304 195.862 77.9212 212.438 86.6276 218.948C87.7516 219.788 89.1277 220.191 90.5312 220.191H93.271H94.1398C96.0302 220.191 97.9114 219.928 99.729 219.409L100.775 219.006C101.772 218.623 102.739 218.164 103.667 217.634C104.563 217.122 105.42 216.544 106.232 215.907L107.753 214.712L108.017 214.447C109.013 213.452 109.907 212.361 110.688 211.189L111.179 210.207C111.633 209.3 111.97 208.339 112.182 207.347C112.36 206.519 112.449 205.674 112.449 204.827V203.753V202.568C112.449 201.534 112.34 200.503 112.124 199.492C111.95 198.681 111.707 197.886 111.399 197.116L110.688 195.338L109.514 192.402L108.144 189.662L106.97 187.51L105.6 184.77L104.426 181.639L103.447 179.095L102.665 176.746L102.077 174.006L101.707 172.34C101.693 172.277 101.686 172.213 101.686 172.148C101.686 171.661 101.291 171.267 100.804 171.267H100.316H97.5763L94.2495 170.875L90.9226 170.092L88.9976 169.526C88.0671 169.253 87.1772 168.856 86.3512 168.348C85.489 167.818 84.7046 167.17 84.0205 166.424L83.556 165.917C83.1196 165.441 82.7426 164.913 82.4333 164.346C81.9649 163.488 81.6584 162.55 81.5292 161.581L81.3333 160.112V156.981V153.849L81.1706 152.547C81.0194 151.338 80.6479 150.167 80.0745 149.092C79.6116 148.224 79.0228 147.429 78.3272 146.734L76.8323 145.239L73.5054 142.303L73.3958 142.194C72.041 140.839 70.8912 139.293 69.9828 137.606L69.0043 135.258C68.4858 133.703 68.2215 132.074 68.2215 130.434V130.366V129.238C68.2215 128.425 68.2836 127.614 68.4071 126.811C68.5441 125.921 68.756 125.044 69.0408 124.189L69.3957 123.125L70.3742 120.776L71.3446 119.078C71.7408 118.385 72.1903 117.723 72.6891 117.1C73.2323 116.421 73.8321 115.789 74.4819 115.212L75.2667 114.514L76.6289 113.288C77.0241 112.932 77.3776 112.533 77.6825 112.097C78.2823 111.24 78.6828 110.26 78.8547 109.229L78.8802 109.076C78.9499 108.657 78.9849 108.234 78.9849 107.81V105.903L78.5935 102.968C78.3329 101.144 78.2021 99.3031 78.2021 97.4604V96.5097V91.4215V87.3118Z" stroke="#452E1E"/>
<path d="M175.418 226.33L176.052 228.019C176.829 229.463 178.585 230.083 180.075 229.401C216.572 212.704 229.787 176.618 231.826 160.308C231.826 160.163 231.651 160.091 231.549 160.193L231.45 160.292C231.44 160.302 231.43 160.314 231.422 160.326L231.043 160.895L227.912 165.004L225.563 167.353L221.845 170.68L220.973 171.494C219.6 172.775 218.124 173.943 216.561 174.985L214.017 176.746L210.299 179.682L203.449 183.791L200.318 185.357L198.64 186.316C197.934 186.72 197.259 187.178 196.624 187.687L196.466 187.812C195.904 188.262 195.379 188.757 194.898 189.292L194.793 189.409C194.173 190.097 193.636 190.856 193.193 191.669C192.856 192.287 192.574 192.934 192.351 193.602L191.903 194.946L191.546 196.493C191.393 197.157 191.184 197.807 190.922 198.436C190.534 199.367 190.025 200.256 189.419 201.064C188.863 201.805 188.219 202.489 187.512 203.087L186.032 204.34L183.88 205.905L181.923 207.275L179.77 208.841L179.302 209.181C178.19 209.99 177.246 211.009 176.525 212.181C176.21 212.693 175.939 213.231 175.716 213.79L175.412 214.549C175.056 215.438 174.783 216.359 174.595 217.298L174.587 217.337C174.39 218.324 174.29 219.329 174.29 220.336C174.29 221.281 174.378 222.225 174.552 223.154L174.594 223.375C174.783 224.382 175.058 225.371 175.418 226.33Z" stroke="#452E1E"/>
<path d="M60.5589 163.819L60.0021 162.069L59.1212 158.104C58.9295 157.242 58.9838 156.343 59.2778 155.51L59.3553 155.291C59.7658 154.128 60.665 153.203 61.816 152.76C62.2987 152.575 62.8114 152.48 63.3286 152.48H63.6118C64.4566 152.48 65.2909 152.666 66.0553 153.026L66.8145 153.383C67.7394 153.818 68.5486 154.466 69.1761 155.273C69.4522 155.628 69.7644 155.953 70.1077 156.243L72.1355 157.959L74.4839 159.72L75.9859 160.847C77.0467 161.643 77.8397 162.743 78.259 164.001C78.4806 164.665 78.5935 165.362 78.5935 166.062V167.159C78.5935 168.068 78.5 168.976 78.3145 169.866L78.1043 170.875C77.779 172.437 77.615 174.028 77.615 175.623V176.551C77.615 178.5 77.8541 180.442 78.327 182.334L78.5935 183.4L79.9634 187.705L81.529 191.032C83.2167 193.759 85.2797 196.234 87.6572 198.385L88.1828 198.86L90.3263 200.647C91.2314 201.401 91.9345 202.369 92.372 203.462L92.4551 203.67C92.7355 204.371 92.8796 205.119 92.8796 205.874V206.55C92.8796 207.027 92.7684 207.498 92.555 207.924C92.0343 208.966 90.9699 209.624 89.8055 209.624H89.2415C88.5477 209.624 87.8659 209.443 87.2636 209.098L84.0731 207.275L80.7462 204.731L77.615 201.796C75.5427 200.241 73.7497 198.346 72.3128 196.191L72.1355 195.925L71.0895 193.833C70.4904 192.635 70.1785 191.313 70.1785 189.974C70.1785 189.376 70.2405 188.781 70.3636 188.196L70.9613 185.357L71.2641 184.348C71.8311 182.457 71.8006 180.438 71.1765 178.566C71.0332 178.136 70.8595 177.717 70.6568 177.312L70.504 177.006C69.8986 175.795 69.1254 174.676 68.2073 173.681L67.243 172.637L65.0456 170.698C64.2944 170.035 63.6097 169.3 63.0011 168.505C61.9232 167.095 61.0969 165.51 60.5589 163.819Z" fill="#322117"/>
<path d="M192.745 205.064L193.469 204.34L194.643 203.166C195.424 202.515 196.145 201.794 196.796 201.013L196.977 200.805C197.769 199.901 198.623 199.055 199.535 198.273L201.492 196.903L201.962 196.651C203.334 195.912 204.566 194.937 205.602 193.772L205.823 193.551C206.452 192.922 206.947 192.172 207.277 191.346C207.464 190.878 207.705 190.432 207.995 190.019L208.929 188.684L210.103 187.118L210.789 186.158C210.984 185.885 211.201 185.629 211.437 185.393L211.674 185.157C212.185 184.645 212.809 184.259 213.495 184.031C213.971 183.872 214.468 183.791 214.969 183.791H215.609C216.11 183.791 216.608 183.872 217.083 184.031L217.595 184.201C217.945 184.318 218.262 184.514 218.523 184.775C219.125 185.377 219.358 186.255 219.134 187.077L218.91 187.901C218.393 189.323 217.607 190.632 216.595 191.756L216.366 192.011L214.8 193.772L214.74 193.826C213.477 194.962 212.123 195.992 210.69 196.903L208.342 198.273L206.385 199.447L204.428 201.013L203.498 201.943C203.078 202.363 202.739 202.857 202.497 203.4C202.222 204.02 202.08 204.69 202.08 205.368V206.101V206.262C202.08 207.7 201.745 209.12 201.101 210.406L200.614 211.3C200.168 212.117 199.469 212.768 198.621 213.153C198.063 213.406 197.457 213.538 196.844 213.538H195.819C195.043 213.538 194.274 213.384 193.557 213.085L193.029 212.865C192.546 212.664 192.115 212.354 191.771 211.96C191.225 211.337 190.925 210.537 190.925 209.709V209.217C190.925 208.709 191.007 208.204 191.167 207.722L191.244 207.493C191.549 206.578 192.063 205.746 192.745 205.064Z" fill="#322117"/>
<path d="M60.5589 163.819L60.0021 162.069L59.1212 158.104C58.9295 157.242 58.9838 156.343 59.2778 155.51L59.3553 155.291C59.7658 154.128 60.665 153.203 61.816 152.76C62.2987 152.575 62.8114 152.48 63.3286 152.48H63.6118C64.4566 152.48 65.2909 152.666 66.0553 153.026L66.8145 153.383C67.7394 153.818 68.5486 154.466 69.1761 155.273C69.4522 155.628 69.7644 155.953 70.1077 156.243L72.1355 157.959L74.4839 159.72L75.9859 160.847C77.0467 161.643 77.8397 162.743 78.259 164.001C78.4806 164.665 78.5935 165.362 78.5935 166.062V167.159C78.5935 168.068 78.5 168.976 78.3145 169.866L78.1043 170.875C77.779 172.437 77.615 174.028 77.615 175.623V176.551C77.615 178.5 77.8541 180.442 78.327 182.334L78.5935 183.4L79.9634 187.705L81.529 191.032C83.2167 193.759 85.2797 196.234 87.6572 198.385L88.1828 198.86L90.3263 200.647C91.2314 201.401 91.9345 202.369 92.372 203.462L92.4551 203.67C92.7355 204.371 92.8796 205.119 92.8796 205.874V206.55C92.8796 207.027 92.7684 207.498 92.555 207.924C92.0343 208.966 90.9699 209.624 89.8055 209.624H89.2415C88.5477 209.624 87.8659 209.443 87.2636 209.098L84.0731 207.275L80.7462 204.731L77.615 201.796C75.5427 200.241 73.7497 198.346 72.3128 196.191L72.1355 195.925L71.0895 193.833C70.4904 192.635 70.1785 191.313 70.1785 189.974C70.1785 189.376 70.2405 188.781 70.3636 188.196L70.9613 185.357L71.2641 184.348C71.8311 182.457 71.8006 180.438 71.1765 178.566C71.0332 178.136 70.8595 177.717 70.6568 177.312L70.504 177.006C69.8986 175.795 69.1254 174.676 68.2073 173.681L67.243 172.637L65.0456 170.698C64.2944 170.035 63.6097 169.3 63.0011 168.505C61.9232 167.095 61.0969 165.51 60.5589 163.819Z" stroke="#322117"/>
<path d="M192.745 205.064L193.469 204.34L194.643 203.166C195.424 202.515 196.145 201.794 196.796 201.013L196.977 200.805C197.769 199.901 198.623 199.055 199.535 198.273L201.492 196.903L201.962 196.651C203.334 195.912 204.566 194.937 205.602 193.772L205.823 193.551C206.452 192.922 206.947 192.172 207.277 191.346C207.464 190.878 207.705 190.432 207.995 190.019L208.929 188.684L210.103 187.118L210.789 186.158C210.984 185.885 211.201 185.629 211.437 185.393L211.674 185.157C212.185 184.645 212.809 184.259 213.495 184.031C213.971 183.872 214.468 183.791 214.969 183.791H215.609C216.11 183.791 216.608 183.872 217.083 184.031L217.595 184.201C217.945 184.318 218.262 184.514 218.523 184.775C219.125 185.377 219.358 186.255 219.134 187.077L218.91 187.901C218.393 189.323 217.607 190.632 216.595 191.756L216.366 192.011L214.8 193.772L214.74 193.826C213.477 194.962 212.123 195.992 210.69 196.903L208.342 198.273L206.385 199.447L204.428 201.013L203.498 201.943C203.078 202.363 202.739 202.857 202.497 203.4C202.222 204.02 202.08 204.69 202.08 205.368V206.101V206.262C202.08 207.7 201.745 209.12 201.101 210.406L200.614 211.3C200.168 212.117 199.469 212.768 198.621 213.153C198.063 213.406 197.457 213.538 196.844 213.538H195.819C195.043 213.538 194.274 213.384 193.557 213.085L193.029 212.865C192.546 212.664 192.115 212.354 191.771 211.96C191.225 211.337 190.925 210.537 190.925 209.709V209.217C190.925 208.709 191.007 208.204 191.167 207.722L191.244 207.493C191.549 206.578 192.063 205.746 192.745 205.064Z" stroke="#322117"/>
<path d="M101.49 169.114V170.093C101.49 170.741 100.965 171.267 100.316 171.267H98.5548C97.5132 171.267 96.4737 171.173 95.4489 170.987L94.8365 170.875L92.6839 170.288C91.3819 170.028 90.1066 169.649 88.8739 169.156L88.7699 169.114L87.5677 168.613C86.8062 168.296 86.0845 167.89 85.4173 167.405L85.2584 167.29C84.6016 166.812 84.0117 166.249 83.5044 165.614C82.9729 164.95 82.5372 164.214 82.2099 163.429L82.1781 163.353C81.877 162.63 81.6645 161.873 81.5455 161.099L81.4844 160.702C81.3838 160.049 81.3333 159.388 81.3333 158.727V157.568V155.219V154.146C81.3333 153.298 81.2438 152.453 81.0663 151.625L80.9743 151.195C80.8228 150.489 80.5827 149.804 80.2595 149.158C79.933 148.505 79.5244 147.896 79.0436 147.347L78.3978 146.609L76.2452 144.456L74.6796 143.086L74.6492 143.066C73.5003 142.3 72.4577 141.385 71.5484 140.346C70.768 139.176 70.1193 137.922 69.6143 136.609L69.3957 136.041L69.1078 135.249C68.7787 134.344 68.5391 133.409 68.3927 132.457C68.2787 131.716 68.2215 130.968 68.2215 130.218V128.8C68.3515 126.98 68.6921 125.181 69.2365 123.439L69.3957 122.929L70.3742 120.776L71.5484 118.819L72.9183 117.058L74.6796 115.101L76.2452 113.731L76.379 113.581C77.3245 112.517 78.0543 111.28 78.528 109.938L78.5871 109.77C78.8513 109.022 79.0213 108.243 79.0932 107.453C79.1513 106.813 79.1449 106.169 79.0739 105.53L78.9849 104.729L78.7892 102.968C78.5286 101.144 78.3978 99.3032 78.3978 97.4604V96.6394V91.813V87.3119V86.3334L78.5935 84.5721V83.8704C78.5935 83.6932 78.5231 83.5232 78.3978 83.3979L78.2343 83.2344C78.213 83.2131 78.1884 83.1953 78.1614 83.1818C77.9894 83.0958 77.9539 82.8652 78.0914 82.7307C89.6591 71.4126 102.65 64.9059 108.5 62.7479C108.802 62.6365 109.071 62.953 108.927 63.2409L108.34 64.2194L107.736 65.125C107.356 65.6945 107.026 66.2951 106.748 66.9205C106.505 67.4674 106.221 67.9955 105.9 68.5005L105.013 69.8947L103.643 72.2431L102.077 74.5915L101.43 75.4245C100.949 76.0423 100.519 76.698 100.144 77.3852C99.7378 78.1306 99.2666 78.8389 98.7361 79.5019L97.9677 80.4624L96.7935 82.028L95.6193 83.5936L95.2292 84.2959C94.8398 84.9967 94.5735 85.7591 94.4417 86.5498C94.3144 87.3135 94.3144 88.093 94.4417 88.8567L94.5489 89.5002C94.6098 89.8652 94.7327 90.217 94.9124 90.5404L95.0013 90.7005C95.3944 91.408 96.0715 91.9135 96.8616 92.089C97.2046 92.1653 97.5588 92.177 97.9061 92.1235L99.9247 91.813L101.49 91.4216L102.201 91.2185C102.632 91.0954 103.089 91.0954 103.519 91.2185C103.982 91.3508 104.395 91.6194 104.703 91.9895L104.811 92.1181C105.073 92.4331 105.267 92.7994 105.379 93.1936L105.408 93.2926C105.535 93.7367 105.57 94.2038 105.513 94.6621C105.442 95.231 105.23 95.7756 104.897 96.2421L104.657 96.577C104.503 96.7928 104.366 97.0203 104.248 97.2574L103.91 97.9325C103.733 98.2876 103.594 98.6611 103.498 99.0462L103.436 99.2931C103.314 99.7817 103.284 100.289 103.346 100.788C103.413 101.323 103.585 101.839 103.852 102.306L103.916 102.418C104.125 102.783 104.381 103.118 104.678 103.415L105.404 104.142C106.296 104.906 107.401 105.379 108.569 105.496L108.731 105.512H110.492L112.449 105.316L113.31 105.125C113.906 104.993 114.475 104.759 114.994 104.436C115.512 104.112 116.081 103.879 116.677 103.746L117.017 103.671C117.363 103.594 117.717 103.555 118.071 103.555C118.752 103.555 119.424 103.698 120.046 103.974L120.252 104.066C120.659 104.246 121.044 104.473 121.401 104.74L122.43 105.512L122.701 105.744C123.422 106.362 124.289 106.784 125.219 106.97C125.577 107.041 125.941 107.077 126.305 107.077H126.63C126.96 107.077 127.289 107.037 127.609 106.957C128.318 106.78 128.966 106.413 129.482 105.896L130.062 105.316L131.041 104.142L132.019 102.576C132.539 101.537 133.189 100.568 133.955 99.6935L134.172 99.4452L134.264 99.323C134.983 98.3637 135.806 97.4859 136.716 96.7054L138.477 95.5312L140.043 94.5528L140.26 94.4561C141.278 94.0037 142.38 93.77 143.494 93.77C143.932 93.77 144.37 93.8062 144.803 93.8783L146.501 94.1614C147.801 94.5512 149.047 95.1016 150.21 95.7996L150.415 95.9226C151.586 96.7035 152.678 97.5982 153.673 98.5937L153.742 98.6624L154.418 99.4351C154.875 99.9576 155.215 100.572 155.415 101.237C155.602 101.863 155.662 102.52 155.59 103.169L155.56 103.432C155.522 103.774 155.456 104.113 155.361 104.444L155.287 104.704C155.171 105.111 155.006 105.502 154.796 105.869L154.635 106.151C154.433 106.505 154.295 106.892 154.228 107.294L154.2 107.459C154.156 107.725 154.156 107.996 154.2 108.262L154.21 108.32C154.287 108.785 154.508 109.214 154.841 109.547C155.265 109.971 155.84 110.209 156.439 110.209H156.873H158.634H160.591H161.88C162.451 110.209 163.018 110.106 163.553 109.905C164.054 109.717 164.52 109.447 164.93 109.104L165.484 108.643L166.53 107.896C166.746 107.742 166.948 107.571 167.135 107.383L167.448 107.071C167.701 106.817 168.004 106.617 168.337 106.484C168.65 106.359 168.984 106.295 169.321 106.295H169.933C170.358 106.295 170.781 106.248 171.196 106.156L171.33 106.126C171.995 105.978 172.636 105.735 173.232 105.404L173.449 105.283C173.879 105.045 174.287 104.77 174.671 104.463L176.052 103.359L177.813 101.598L178.987 100.228L180.553 98.6624L181.017 98.2752C182.27 97.2312 183.622 96.3122 185.054 95.5312L187.011 94.7485L189.359 93.77L192.099 92.7915L194.447 92.0087L197.187 91.2259L199.927 90.6388L202.275 89.856L205.406 88.6818L207.559 87.7033L208.733 87.1162C209.322 86.8808 209.994 87.0326 210.415 87.5065C216.374 94.2117 223.816 104.808 229.086 121.559C233.47 135.493 232.739 152.545 231.826 159.329C231.826 159.712 231.712 160.086 231.5 160.405L231.434 160.503L230.064 162.265L228.108 164.613L225.955 166.766L224.389 168.331L222.432 169.897L221.258 171.071L220.483 171.846C220.087 172.242 219.659 172.605 219.203 172.93L219.061 173.031C218.7 173.29 218.36 173.577 218.046 173.891L217.771 174.167C217.487 174.45 217.17 174.698 216.827 174.904L216.384 175.17C216.372 175.177 216.359 175.183 216.345 175.188L216.091 175.272C215.925 175.327 215.81 175.108 215.95 175.003C215.966 174.991 215.979 174.976 215.99 174.959L216.561 174.007L217.344 172.441L218.127 170.484C218.383 169.586 218.399 168.637 218.173 167.732L218.129 167.557C217.998 167.033 217.783 166.533 217.493 166.077C216.889 165.129 215.985 164.41 214.925 164.035L214.321 163.822C213.602 163.568 212.845 163.439 212.082 163.439C211.038 163.439 210.008 163.682 209.075 164.149L208.146 164.613L206.519 165.31C205.778 165.628 205.014 165.885 204.232 166.081C203.451 166.276 202.688 166.538 201.939 166.835C201.046 167.189 200.05 167.548 199.731 167.548H196.6H193.273C193.117 167.548 190.859 167.027 189.751 166.766L186.424 165.787L184.075 165.004L181.335 164.222L180.139 164.022C179.381 163.896 178.605 163.948 177.871 164.174C176.94 164.46 176.114 165.015 175.497 165.769L175.047 166.319C174.804 166.616 174.585 166.932 174.391 167.264L173.312 169.114C172.531 170.285 171.636 171.377 170.641 172.372L170.181 172.832C169.528 173.485 168.145 174.789 167.832 174.789C167.441 174.789 165.68 176.159 164.897 176.159C164.742 176.159 164.489 176.135 164.179 176.096C162.045 175.828 159.997 175.112 158.047 174.202C157.134 173.746 155.268 172.832 155.112 172.832C155.059 172.832 154.829 172.715 154.514 172.539C153.069 171.732 151.781 170.676 150.611 169.505L149.045 167.548L147.48 165.396L146.924 164.523C146.382 163.671 145.906 162.778 145.502 161.853L145.099 160.934C144.86 160.387 144.569 159.865 144.229 159.374L143.863 158.845C143.281 158.005 142.511 157.313 141.614 156.824C141.091 156.538 140.531 156.326 139.951 156.192L139.312 156.044C138.627 155.886 137.927 155.807 137.225 155.807H136.019C135.703 155.807 135.391 155.75 135.095 155.639L134.754 155.511C134.26 155.326 133.87 154.936 133.685 154.442C133.497 153.942 133.1 153.549 132.598 153.366L131.832 153.088C131.438 152.944 131.022 152.871 130.603 152.871H129.928C129.498 152.871 129.07 152.931 128.656 153.049C128.162 153.19 127.695 153.413 127.274 153.708L125.953 154.632L124.583 155.807C123.806 156.454 122.923 156.962 121.972 157.307L121.256 157.568L120.889 157.678C119.891 157.977 118.811 157.775 117.988 157.136C117.69 156.904 117.435 156.621 117.235 156.301L116.867 155.712C116.662 155.385 116.421 155.082 116.149 154.809C115.397 154.058 114.43 153.56 113.382 153.385L113.127 153.343C112.806 153.289 112.482 153.262 112.156 153.262H111.339C110.776 153.262 110.214 153.313 109.659 153.414C108.784 153.573 107.936 153.856 107.14 154.254L106.383 154.632C105.213 155.412 104.149 156.338 103.215 157.389L103.056 157.568L102.708 158.056C102.29 158.64 101.972 159.289 101.766 159.976C101.583 160.585 101.49 161.218 101.49 161.854V162.656V164.613V166.766V169.114Z" fill="#AE8662"/>
<path d="M89.181 123.973L89.9441 123.125L90.3712 122.637C90.9965 121.922 91.7207 121.3 92.5218 120.791C93.1497 120.391 93.8204 120.063 94.5213 119.813L94.9476 119.66C95.7849 119.361 96.6488 119.143 97.5276 119.008L98.7505 118.819L102.273 118.428L105.013 118.232L108.927 117.841H111.862H113.543C114.466 117.841 115.344 118.235 115.957 118.925C116.351 119.368 116.615 119.911 116.721 120.493L116.862 121.269C116.921 121.592 117.006 121.91 117.117 122.22L117.929 124.495L118.375 125.566C118.727 126.409 119.24 127.175 119.886 127.821C120.782 128.718 121.906 129.354 123.135 129.661L124.387 129.974L124.829 130.072C126.868 130.525 128.969 130.625 131.041 130.366L133.976 129.583C135.917 128.806 137.719 127.669 139.26 126.256L141.217 124.299L142.783 122.929L143.783 121.929C144.677 121.035 145.697 120.276 146.81 119.677L146.897 119.63C147.415 119.351 147.954 119.111 148.508 118.913L149.178 118.674C149.997 118.382 150.859 118.232 151.729 118.232C152.544 118.232 153.353 118.364 154.127 118.621L154.376 118.705C155.381 119.04 156.32 119.545 157.153 120.199L158.634 121.363L161.178 123.908L161.715 124.511C162.398 125.279 163.182 125.951 164.047 126.507C165 127.119 166.039 127.584 167.13 127.887L167.337 127.945C168.445 128.253 169.589 128.409 170.739 128.409H172.92H176.247L180.357 128.017L182.777 127.748C183.511 127.667 184.236 127.521 184.944 127.313C186.439 126.873 187.84 126.16 189.076 125.209L189.751 124.69C191.051 123.52 192.221 122.211 193.238 120.787L193.665 120.189L195.426 118.232L196.372 117.05C196.784 116.534 197.238 116.053 197.728 115.612L198.149 115.233C198.679 114.756 199.272 114.352 199.91 114.033C200.57 113.703 201.273 113.467 201.999 113.331L202.67 113.205C203.57 113.036 204.496 113.071 205.38 113.307C206.423 113.585 207.374 114.133 208.137 114.896L208.618 115.377C208.955 115.714 209.264 116.079 209.542 116.467L209.819 116.857C210.656 118.028 211.313 119.318 211.768 120.684L211.9 121.079C212.137 121.789 212.306 122.52 212.405 123.262C212.565 124.468 212.911 125.642 213.429 126.743L214.213 128.409L215.583 131.344C216.489 133.804 216.953 136.405 216.953 139.026V139.955C216.953 140.268 216.431 141.781 216.17 142.499L215.355 144.672C215.118 145.303 214.749 145.877 214.272 146.354C213.719 146.906 213.04 147.319 212.285 147.521C211.759 147.662 211.256 147.783 211.082 147.783C210.769 147.783 208.994 147.391 208.146 147.196L207.2 147.038C205.501 146.755 203.802 147.196 202.08 147.196C202.043 147.196 201.904 147.232 201.701 147.291C199.855 147.831 198.097 148.633 196.404 149.544L194.056 151.11L190.533 153.262L187.598 154.828L184.662 156.198L182.314 156.981C179.845 157.501 177.32 157.714 174.799 157.617L173.508 157.568L170.181 156.981L166.462 155.806L163.331 154.437L162.459 153.913C161.749 153.487 161.165 152.879 160.768 152.151C160.395 151.468 160.2 150.702 160.2 149.923V149.743C160.2 149.222 160.276 148.703 160.426 148.204L160.494 147.979C160.688 147.33 160.787 146.656 160.787 145.978V144.664C160.787 144.136 160.722 143.61 160.594 143.097L160.554 142.936C160.322 142.007 159.863 141.15 159.219 140.441C158.578 139.736 157.774 139.2 156.877 138.88L156.625 138.79C155.883 138.525 155.1 138.389 154.313 138.389H152.176L148.849 138.585L144.74 139.368L143.39 139.736C141.424 140.272 139.517 141.001 137.695 141.912L134.955 143.477L132.411 144.847C131.237 145.369 128.81 146.413 128.497 146.413C128.105 146.413 126.344 147 125.953 147H122.039C120.734 146.87 118.086 146.569 117.929 146.413C117.733 146.217 114.015 146.022 113.624 146.022C113.36 146.022 111.879 145.837 110.833 145.701C110.478 145.654 110.133 145.548 109.813 145.388C108.888 144.926 108.239 144.048 108.069 143.027L108.003 142.632C107.967 142.413 107.948 142.192 107.948 141.97V139.368C107.948 138.976 107.676 138.195 107.472 137.681C107.401 137.5 107.304 137.331 107.191 137.173C106.684 136.463 105.865 136.041 104.992 136.041H104.565C104.213 136.041 103.863 136.094 103.527 136.197L102.534 136.502C101.84 136.716 101.17 137.002 100.535 137.354L99.729 137.802C98.1654 138.584 96.5483 139.254 94.8898 139.807L94.4452 139.955L92.7278 140.413C91.924 140.627 91.0852 140.677 90.2616 140.559L89.6693 140.475C89.0783 140.39 88.5163 140.165 88.0306 139.818C87.6146 139.521 87.2643 139.142 87.0013 138.703L86.7473 138.28C86.402 137.704 86.154 137.076 86.0134 136.42L85.8673 135.738C85.7153 135.029 85.6387 134.305 85.6387 133.58V133.313C85.6387 132.265 85.7672 131.221 86.0214 130.205L86.2258 129.387L86.6806 128.137C86.8989 127.536 87.1622 126.953 87.4682 126.392C87.943 125.521 88.5178 124.71 89.181 123.973Z" fill="#977456" stroke="#977456"/>
<path d="M118.509 66.8879L119.103 66.5677L120.254 65.8773C120.789 65.5561 121.363 65.3028 121.961 65.1234C122.661 64.9132 123.389 64.8065 124.12 64.8065H124.974L127.714 65.0022L128.176 65.0861C129.301 65.2907 130.405 65.5955 131.476 65.9969C132.489 66.3768 133.468 66.8418 134.402 67.3869L135.346 67.9376L138.086 69.5032L140.221 70.8755C140.622 71.1337 140.988 71.4443 141.307 71.7992C142.135 72.719 143.254 73.3314 144.481 73.497C144.973 73.5635 145.386 73.6129 145.523 73.6129C145.836 73.6129 146.958 73.352 147.48 73.2215C149.168 72.8319 150.797 72.2181 152.322 71.3966L152.568 71.2645L152.629 71.2237C153.756 70.4723 154.989 69.8925 156.286 69.5032L157.588 69.2665C158.154 69.1636 158.728 69.1118 159.303 69.1118C160.029 69.1118 160.753 69.1942 161.46 69.3574L161.64 69.399C162.503 69.5982 163.34 69.8992 164.133 70.2955L165.288 70.8731L167.294 71.7505C168.043 72.0784 168.766 72.4636 169.456 72.9027C170.199 73.3754 170.903 73.9106 171.557 74.4995C172.203 75.0806 172.806 75.7115 173.332 76.4031C173.735 76.9335 174.095 77.4349 174.095 77.5269C174.095 77.578 174.164 77.7833 174.269 78.064C174.766 79.3937 175.006 80.8099 174.877 82.2237L174.853 82.3711C174.612 83.8156 174.015 85.1774 173.116 86.3333L172.375 87.1671C171.828 87.7826 171.199 88.3204 170.507 88.7657C169.39 89.4837 168.128 89.9469 166.812 90.1224L165.875 90.2473L164.728 90.512C163.8 90.7263 162.85 90.8344 161.897 90.8344H160.675C160.23 90.8344 159.788 90.7679 159.363 90.6372C158.152 90.2645 157.157 89.3942 156.626 88.2437L156.573 88.1286C156.383 87.7167 156.136 87.3328 155.83 86.998C155.371 86.4955 154.834 85.9419 154.72 85.9419C154.679 85.9419 154.529 85.8878 154.314 85.8009C152.75 85.1676 151.119 84.7015 149.437 84.572H146.305L145.801 84.5961C143.402 84.7103 141.074 85.5505 138.673 85.5505C138.517 85.5505 136.651 86.3333 135.738 86.7247L132.606 88.2903C131.628 88.6817 129.593 89.5037 129.28 89.6602C128.888 89.8559 125.366 90.0516 125.17 90.0516C125.104 90.0516 124.694 89.983 124.162 89.8889C122.642 89.6202 121.173 88.9899 120.082 87.8989C119.925 87.7424 119.364 86.529 119.103 85.9419L118.496 84.7276C118.25 84.2357 117.926 83.7867 117.538 83.3979C117.149 83.009 116.7 82.6854 116.208 82.4394L115.544 82.1075C115.178 81.9243 114.827 81.7112 114.496 81.4703L114.115 81.1931C113.281 80.5868 112.626 79.7665 112.22 78.8189C111.857 77.9702 111.704 77.046 111.774 76.1253L111.862 74.9828L111.998 74.2388C112.167 73.3095 112.524 72.4247 113.048 71.6388C113.301 71.2597 113.59 70.9066 113.912 70.5844L114.994 69.5032C116.032 68.4651 117.216 67.584 118.509 66.8879Z" fill="#FFD8B7"/>
<path d="M116.671 161.266L116.57 161.309C115.416 161.804 114.441 162.639 113.776 163.704C113.165 164.682 112.841 165.811 112.841 166.965V167.111C112.841 167.532 112.882 167.952 112.965 168.365C113.264 169.859 114.086 171.197 115.284 172.138L116.168 172.832L117.905 174.096C118.181 174.297 118.474 174.475 118.779 174.63L119.717 175.105C120.458 175.48 121.043 176.105 121.367 176.87C121.552 177.305 121.647 177.773 121.647 178.245V178.526C121.647 179.286 121.47 180.036 121.13 180.716L120.664 181.648C120.407 182.162 120.198 182.7 120.04 183.254L119.948 183.574C119.648 184.626 119.186 185.625 118.579 186.534L118.494 186.662C118.119 187.225 117.806 187.829 117.563 188.461C117.158 189.514 116.95 190.632 116.95 191.76V192.402V195.533L116.559 199.447V202.97L116.773 204.792C116.891 205.793 117.102 206.781 117.402 207.743L117.581 208.314C117.812 209.055 118.123 209.768 118.508 210.441L118.803 210.957C119.26 211.757 119.86 212.467 120.574 213.051C121.284 213.631 122.093 214.078 122.963 214.368L123.207 214.449C124.118 214.753 125.073 214.908 126.034 214.908C126.888 214.908 127.739 214.785 128.558 214.544L129.085 214.389C130.124 214.084 131.119 213.647 132.048 213.09L132.606 212.755L134.759 211.385C135.917 210.485 137.272 209.874 138.713 209.604L138.784 209.591C139.361 209.482 139.947 209.428 140.534 209.428H140.712C141.953 209.428 143.185 209.641 144.353 210.059C145.001 210.29 145.669 210.459 146.349 210.564L147.315 210.712C147.685 210.769 148.059 210.798 148.434 210.798H149.571C150.62 210.798 151.633 210.417 152.422 209.726C152.649 209.528 152.855 209.306 153.035 209.066L154.512 207.096C154.911 206.564 155.272 206.004 155.59 205.42C156.053 204.572 156.603 203.774 157.232 203.041L157.655 202.547C158.307 201.786 158.901 200.978 159.432 200.128L160.591 198.273L161.58 196.515C162.092 195.606 162.451 194.619 162.643 193.594L162.693 193.328C162.856 192.456 162.873 191.563 162.741 190.685L162.692 190.359C162.472 188.89 161.786 187.53 160.735 186.479C160.25 185.995 159.697 185.585 159.093 185.262L158.398 184.892C157.515 184.421 156.578 184.06 155.608 183.817L152.372 183.009L149.437 182.422L146.761 181.657C145.81 181.385 144.905 180.974 144.074 180.437L143.979 180.375C142.679 179.534 141.603 178.389 140.844 177.04C140.442 176.325 140.134 175.562 139.927 174.769L139.064 171.462L138.338 168.701C138.17 168.064 137.945 167.445 137.665 166.849L137.608 166.729C136.894 165.211 135.819 163.891 134.476 162.884C133.755 162.343 132.965 161.899 132.127 161.564L131.796 161.431C130.263 160.818 128.627 160.503 126.976 160.503H125.561H120.864L118.474 160.785C117.853 160.858 117.246 161.02 116.671 161.266Z" fill="#FFD8B7"/>
<path d="M118.509 66.8879L119.103 66.5677L120.254 65.8773C120.789 65.5561 121.363 65.3028 121.961 65.1234C122.661 64.9132 123.389 64.8065 124.12 64.8065H124.974L127.714 65.0022L128.176 65.0861C129.301 65.2907 130.405 65.5955 131.476 65.9969C132.489 66.3768 133.468 66.8418 134.402 67.3869L135.346 67.9376L138.086 69.5032L140.221 70.8755C140.622 71.1337 140.988 71.4443 141.307 71.7992C142.135 72.719 143.254 73.3314 144.481 73.497C144.973 73.5635 145.386 73.6129 145.523 73.6129C145.836 73.6129 146.958 73.352 147.48 73.2215C149.168 72.8319 150.797 72.2181 152.322 71.3966L152.568 71.2645L152.629 71.2237C153.756 70.4723 154.989 69.8925 156.286 69.5032L157.588 69.2665C158.154 69.1636 158.728 69.1118 159.303 69.1118C160.029 69.1118 160.753 69.1942 161.46 69.3574L161.64 69.399C162.503 69.5982 163.34 69.8992 164.133 70.2955L165.288 70.8731L167.294 71.7505C168.043 72.0784 168.766 72.4636 169.456 72.9027C170.199 73.3754 170.903 73.9106 171.557 74.4995C172.203 75.0806 172.806 75.7115 173.332 76.4031C173.735 76.9335 174.095 77.4349 174.095 77.5269C174.095 77.578 174.164 77.7833 174.269 78.064C174.766 79.3937 175.006 80.8099 174.877 82.2237L174.853 82.3711C174.612 83.8156 174.015 85.1774 173.116 86.3333L172.375 87.1671C171.828 87.7826 171.199 88.3204 170.507 88.7657C169.39 89.4837 168.128 89.9469 166.812 90.1224L165.875 90.2473L164.728 90.512C163.8 90.7263 162.85 90.8344 161.897 90.8344H160.675C160.23 90.8344 159.788 90.7679 159.363 90.6372C158.152 90.2645 157.157 89.3942 156.626 88.2437L156.573 88.1286C156.383 87.7167 156.136 87.3328 155.83 86.998C155.371 86.4955 154.834 85.9419 154.72 85.9419C154.679 85.9419 154.529 85.8878 154.314 85.8009C152.75 85.1676 151.119 84.7015 149.437 84.572H146.305L145.801 84.5961C143.402 84.7103 141.074 85.5505 138.673 85.5505C138.517 85.5505 136.651 86.3333 135.738 86.7247L132.606 88.2903C131.628 88.6817 129.593 89.5037 129.28 89.6602C128.888 89.8559 125.366 90.0516 125.17 90.0516C125.104 90.0516 124.694 89.983 124.162 89.8889C122.642 89.6202 121.173 88.9899 120.082 87.8989C119.925 87.7424 119.364 86.529 119.103 85.9419L118.496 84.7276C118.25 84.2357 117.926 83.7867 117.538 83.3979C117.149 83.009 116.7 82.6854 116.208 82.4394L115.544 82.1075C115.178 81.9243 114.827 81.7112 114.496 81.4703L114.115 81.1931C113.281 80.5868 112.626 79.7665 112.22 78.8189C111.857 77.9702 111.704 77.046 111.774 76.1253L111.862 74.9828L111.998 74.2388C112.167 73.3095 112.524 72.4247 113.048 71.6388C113.301 71.2597 113.59 70.9066 113.912 70.5844L114.994 69.5032C116.032 68.4651 117.216 67.584 118.509 66.8879Z" stroke="#FFD8B7"/>
<path d="M116.671 161.266L116.57 161.309C115.416 161.804 114.441 162.639 113.776 163.704C113.165 164.682 112.841 165.811 112.841 166.965V167.111C112.841 167.532 112.882 167.952 112.965 168.365C113.264 169.859 114.086 171.197 115.284 172.138L116.168 172.832L117.905 174.096C118.181 174.297 118.474 174.475 118.779 174.63L119.717 175.105C120.458 175.48 121.043 176.105 121.367 176.87C121.552 177.305 121.647 177.773 121.647 178.245V178.526C121.647 179.286 121.47 180.036 121.13 180.716L120.664 181.648C120.407 182.162 120.198 182.7 120.04 183.254L119.948 183.574C119.648 184.626 119.186 185.625 118.579 186.534L118.494 186.662C118.119 187.225 117.806 187.829 117.563 188.461C117.158 189.514 116.95 190.632 116.95 191.76V192.402V195.533L116.559 199.447V202.97L116.773 204.792C116.891 205.793 117.102 206.781 117.402 207.743L117.581 208.314C117.812 209.055 118.123 209.768 118.508 210.441L118.803 210.957C119.26 211.757 119.86 212.467 120.574 213.051C121.284 213.631 122.093 214.078 122.963 214.368L123.207 214.449C124.118 214.753 125.073 214.908 126.034 214.908C126.888 214.908 127.739 214.785 128.558 214.544L129.085 214.389C130.124 214.084 131.119 213.647 132.048 213.09L132.606 212.755L134.759 211.385C135.917 210.485 137.272 209.874 138.713 209.604L138.784 209.591C139.361 209.482 139.947 209.428 140.534 209.428H140.712C141.953 209.428 143.185 209.641 144.353 210.059C145.001 210.29 145.669 210.459 146.349 210.564L147.315 210.712C147.685 210.769 148.059 210.798 148.434 210.798H149.571C150.62 210.798 151.633 210.417 152.422 209.726C152.649 209.528 152.855 209.306 153.035 209.066L154.512 207.096C154.911 206.564 155.272 206.004 155.59 205.42C156.053 204.572 156.603 203.774 157.232 203.041L157.655 202.547C158.307 201.786 158.901 200.978 159.432 200.128L160.591 198.273L161.58 196.515C162.092 195.606 162.451 194.619 162.643 193.594L162.693 193.328C162.856 192.456 162.873 191.563 162.741 190.685L162.692 190.359C162.472 188.89 161.786 187.53 160.735 186.479C160.25 185.995 159.697 185.585 159.093 185.262L158.398 184.892C157.515 184.421 156.578 184.06 155.608 183.817L152.372 183.009L149.437 182.422L146.761 181.657C145.81 181.385 144.905 180.974 144.074 180.437L143.979 180.375C142.679 179.534 141.603 178.389 140.844 177.04C140.442 176.325 140.134 175.562 139.927 174.769L139.064 171.462L138.338 168.701C138.17 168.064 137.945 167.445 137.665 166.849L137.608 166.729C136.894 165.211 135.819 163.891 134.476 162.884C133.755 162.343 132.965 161.899 132.127 161.564L131.796 161.431C130.263 160.818 128.627 160.503 126.976 160.503H125.561H120.864L118.474 160.785C117.853 160.858 117.246 161.02 116.671 161.266Z" stroke="#FFD8B7"/>
</g>
<defs>
<filter id="filter0_d_87_34" x="4" y="0.762817" width="301.217" height="304.237" filterUnits="userSpaceOnUse" color-interpolation-filters="sRGB">
<feFlood flood-opacity="0" result="BackgroundImageFix"/>
<feColorMatrix in="SourceAlpha" type="matrix" values="0 0 0 0 0 0 0 0 0 0 0 0 0 0 0 0 0 0 127 0" result="hardAlpha"/>
<feOffset/>
<feGaussianBlur stdDeviation="3.5"/>
<feComposite in2="hardAlpha" operator="out"/>
<feColorMatrix type="matrix" values="0 0 0 0 0 0 0 0 0 0 0 0 0 0 0 0 0 0 0.5 0"/>
<feBlend mode="normal" in2="BackgroundImageFix" result="effect1_dropShadow_87_34"/>
<feBlend mode="normal" in="SourceGraphic" in2="effect1_dropShadow_87_34" result="shape"/>
</filter>
<filter id="filter1_d_87_34" x="0.852173" y="6" width="282.148" height="282" filterUnits="userSpaceOnUse" color-interpolation-filters="sRGB">
<feFlood flood-opacity="0" result="BackgroundImageFix"/>
<feColorMatrix in="SourceAlpha" type="matrix" values="0 0 0 0 0 0 0 0 0 0 0 0 0 0 0 0 0 0 127 0" result="hardAlpha"/>
<feOffset/>
<feGaussianBlur stdDeviation="25"/>
<feComposite in2="hardAlpha" operator="out"/>
<feColorMatrix type="matrix" values="0 0 0 0 1 0 0 0 0 1 0 0 0 0 1 0 0 0 0.5 0"/>
<feBlend mode="normal" in2="BackgroundImageFix" result="effect1_dropShadow_87_34"/>
<feBlend mode="normal" in="SourceGraphic" in2="effect1_dropShadow_87_34" result="shape"/>
</filter>
<radialGradient id="paint0_radial_87_34" cx="0" cy="0" r="1" gradientUnits="userSpaceOnUse" gradientTransform="translate(155 152.5) rotate(90) scale(145.5 144)">
<stop stop-color="#1F0845"/>
<stop offset="1" stop-color="#4B14A3"/>
</radialGradient>
</defs>
</svg>
