<svg width="319" height="305" viewBox="0 0 319 305" fill="none" xmlns="http://www.w3.org/2000/svg">
<g filter="url(#filter0_d_87_35)">
<path d="M72.8114 203.789L70.4314 219.131C69.5971 226.92 69.5827 234.774 70.3886 242.566L70.4314 242.98L72.4124 251.677C73.5951 256.869 75.5344 261.859 78.1682 266.487C80.667 270.877 83.7657 274.898 87.375 278.433L88.0394 279.084C90.657 281.648 93.5004 283.97 96.5351 286.024L96.7553 286.173C103 290.398 109.961 293.49 117.281 295.297C120.617 296.12 124.021 296.676 127.445 296.954L140.288 298H150.029C156.047 298 162.029 297.063 167.759 295.223C173.257 293.458 178.461 290.882 183.198 287.579L184.082 286.963C187.92 284.287 191.459 281.206 194.638 277.772L196.159 276.129C198.925 273.141 201.476 269.959 203.791 266.608L204.225 265.981C208.159 260.287 211.471 254.186 214.102 247.784L214.345 247.193C216.698 241.467 218.528 235.54 219.813 229.484L220.81 224.779L224.993 209.089L228.144 201.153C229.802 196.976 231.972 193.021 234.605 189.379C238.483 184.015 243.376 179.361 248.912 175.733C251.348 174.137 253.937 172.717 256.595 171.527L258.839 170.522C264.01 168.206 268.938 165.384 273.553 162.096L281.882 156.161L292.967 146.747L299.389 140.46C301.653 138.244 303.646 135.766 305.325 133.079L306 131.998C308.711 127.66 310.418 122.771 310.997 117.688C311.655 111.912 310.835 106.063 308.615 100.689L307.648 98.3493C306.232 94.9242 304.391 91.691 302.168 88.7259L301.371 87.6632C297.066 81.921 291.671 77.0831 285.496 73.4257L284.973 73.1161C280.975 70.7483 276.706 68.872 272.258 67.5281L267.503 66.0912C261.782 64.3628 255.839 63.4845 249.864 63.4845C245.981 63.4845 242.107 63.8554 238.294 64.5921L234.824 65.2628C228.702 66.4455 222.482 67.041 216.248 67.041H203.242C191.586 67.041 180.265 63.1439 171.079 55.9695L169.987 55.1165L158.275 44.6564L148.444 33.1503L137.823 23.7235C135.009 21.2262 131.986 18.9754 128.787 16.9963L126.615 15.6528C120.729 12.0119 114.184 9.5647 107.353 8.4507C101.465 7.49052 95.4575 7.53585 89.585 8.58477L86.8281 9.0772C82.8761 9.78308 78.9931 10.8318 75.2231 12.2114L70.1416 14.0709C65.8852 15.6285 61.808 17.638 57.9799 20.0648C51.9623 23.8798 46.6305 28.6816 42.2087 34.2684L36.9673 40.8907C30.2071 52.2065 25.8424 64.7899 24.1435 77.8613L24 78.9655V85.4271C24 93.3442 25.2333 101.213 27.6554 108.751C28.9808 112.875 30.6552 116.879 32.6606 120.719L33.124 121.606C35.6805 126.501 38.6924 131.144 42.1198 135.475L48.8889 144.027L59.1373 156.37L60.5607 158.137C67.0262 166.161 71.2564 175.751 72.823 185.936C73.733 191.852 73.7291 197.874 72.8114 203.789Z" fill="url(#paint0_radial_87_35)"/>
</g>
<g filter="url(#filter1_d_87_35)">
<circle cx="171.251" cy="147.099" r="54.9366" fill="url(#paint1_radial_87_35)"/>
</g>
<circle cx="171.901" cy="147.099" r="111.099" stroke="#F4F4F4" stroke-width="6" stroke-dasharray="25 25"/>
<g filter="url(#filter2_d_87_35)">
<circle cx="87.6105" cy="214.291" r="37.6105" fill="url(#paint2_linear_87_35)"/>
<g filter="url(#filter3_d_87_35)">
<g filter="url(#filter4_d_87_35)">
<path d="M70.4704 189.043L68.2739 189.516C66.3936 189.921 64.558 190.527 62.8528 191.416C61.3292 192.211 59.9023 193.034 59.9023 193.305C59.9023 193.851 57.5403 197.848 57.5403 198.575C57.5403 198.942 58.1686 199.908 58.8299 200.815C59.4976 201.73 60.5198 202.31 61.6378 202.493C63.8428 202.854 65.1597 204.729 64.0959 206.694C62.0299 210.511 58.6693 215.29 62.1735 215.29C64.3824 215.29 64.5744 217.639 64.8209 219.956C65.0325 221.945 66.5084 223.394 68.3912 224.069C69.6143 224.507 70.9341 224.619 72.187 224.275C74.1449 223.736 76.2966 223.012 76.6181 223.012C82.2365 223.012 81.3937 220.664 81.611 219.244C81.7389 218.408 82.6814 218.021 83.3465 217.499C85.1209 216.104 86.1569 213.973 86.1569 211.716V211.122C86.1569 210.094 85.972 209.074 85.6109 208.111L85.4239 207.612C85.1863 206.979 85.005 206.325 84.8821 205.66L84.3352 202.697C84.1021 201.434 83.4773 200.277 82.5494 199.39L82.2836 199.135C80.7619 197.68 80.2005 195.486 80.8362 193.478L80.9241 193.201C81.3082 191.988 81.1967 190.672 80.6141 189.541C79.4064 187.197 76.5378 186.26 74.179 187.439L72.1528 188.452C71.619 188.719 71.0538 188.918 70.4704 189.043Z" fill="#00C5EA"/>
<path d="M80.6676 240.625L78.8785 240.41C76.6615 240.144 74.7103 241.89 74.7103 244.123C74.7103 244.401 74.7427 244.68 74.8068 244.951C75.22 246.695 76.8578 247.866 78.6421 247.694L82.1353 247.356C83.3452 247.239 84.5656 247.413 85.6942 247.865L87.0181 248.394C88.6097 249.031 90.3081 249.358 92.0223 249.358H94.4037C94.8986 249.358 95.3903 249.279 95.8604 249.124L99.9627 247.776C100.872 247.477 101.238 246.388 100.695 245.6C100.28 244.999 100.384 244.181 100.937 243.703L101.151 243.517C102.078 242.716 101.733 241.205 100.55 240.885C100.175 240.784 99.852 240.543 99.6478 240.212L98.1672 237.809C96.6219 235.302 93.1484 234.878 91.0452 236.94C90.6957 237.282 90.2937 237.567 89.8543 237.782L87.1375 239.116C86.0642 239.643 84.9282 240.031 83.7568 240.271L82.3686 240.555C81.809 240.669 81.2347 240.693 80.6676 240.625Z" fill="#00C5EA"/>
<path d="M100.904 210.835L101.667 207.21C101.743 206.849 101.726 206.475 101.617 206.123C101.033 204.225 103.091 202.602 104.801 203.612L104.889 203.664C105.555 204.058 106.378 204.075 107.06 203.711L107.728 203.353C109.019 202.663 110.601 202.833 111.716 203.782L111.806 203.86C112.146 204.149 112.433 204.497 112.644 204.892C113.44 206.385 114.592 208.743 114.592 209.567V211.42C114.592 213.031 115.204 214.583 116.304 215.76L116.844 216.337C118.555 218.169 118.771 220.942 117.363 223.016C115.797 225.325 112.722 226.049 110.29 224.681L108.081 223.438C107.578 223.155 107.106 222.819 106.675 222.437L103.933 220.007C103.53 219.649 103.157 219.258 102.819 218.838C101.013 216.593 100.31 213.655 100.904 210.835Z" fill="#00C5EA"/>
<path d="M70.4704 189.043L68.2739 189.516C66.3936 189.921 64.558 190.527 62.8528 191.416C61.3292 192.211 59.9023 193.034 59.9023 193.305C59.9023 193.851 57.5403 197.848 57.5403 198.575C57.5403 198.942 58.1686 199.908 58.8299 200.815C59.4976 201.73 60.5198 202.31 61.6378 202.493C63.8428 202.854 65.1597 204.729 64.0959 206.694C62.0299 210.511 58.6693 215.29 62.1735 215.29C64.3824 215.29 64.5744 217.639 64.8209 219.956C65.0325 221.945 66.5084 223.394 68.3912 224.069C69.6143 224.507 70.9341 224.619 72.187 224.275C74.1449 223.736 76.2966 223.012 76.6181 223.012C82.2365 223.012 81.3937 220.664 81.611 219.244C81.7389 218.408 82.6814 218.021 83.3465 217.499C85.1209 216.104 86.1569 213.973 86.1569 211.716V211.122C86.1569 210.094 85.972 209.074 85.6109 208.111L85.4239 207.612C85.1863 206.979 85.005 206.325 84.8821 205.66L84.3352 202.697C84.1021 201.434 83.4773 200.277 82.5494 199.39L82.2836 199.135C80.7619 197.68 80.2005 195.486 80.8362 193.478L80.9241 193.201C81.3082 191.988 81.1967 190.672 80.6141 189.541C79.4064 187.197 76.5378 186.26 74.179 187.439L72.1528 188.452C71.619 188.719 71.0538 188.918 70.4704 189.043Z" stroke="#00C5EA" stroke-width="5"/>
<path d="M80.6676 240.625L78.8785 240.41C76.6615 240.144 74.7103 241.89 74.7103 244.123C74.7103 244.401 74.7427 244.68 74.8068 244.951C75.22 246.695 76.8578 247.866 78.6421 247.694L82.1353 247.356C83.3452 247.239 84.5656 247.413 85.6942 247.865L87.0181 248.394C88.6097 249.031 90.3081 249.358 92.0223 249.358H94.4037C94.8986 249.358 95.3903 249.279 95.8604 249.124L99.9627 247.776C100.872 247.477 101.238 246.388 100.695 245.6C100.28 244.999 100.384 244.181 100.937 243.703L101.151 243.517C102.078 242.716 101.733 241.205 100.55 240.885C100.175 240.784 99.852 240.543 99.6478 240.212L98.1672 237.809C96.6219 235.302 93.1484 234.878 91.0452 236.94C90.6957 237.282 90.2937 237.567 89.8543 237.782L87.1375 239.116C86.0642 239.643 84.9282 240.031 83.7568 240.271L82.3686 240.555C81.809 240.669 81.2347 240.693 80.6676 240.625Z" stroke="#00C5EA" stroke-width="5"/>
<path d="M100.904 210.835L101.667 207.21C101.743 206.849 101.726 206.475 101.617 206.123C101.033 204.225 103.091 202.602 104.801 203.612L104.889 203.664C105.555 204.058 106.378 204.075 107.06 203.711L107.728 203.353C109.019 202.663 110.601 202.833 111.716 203.782L111.806 203.86C112.146 204.149 112.433 204.497 112.644 204.892C113.44 206.385 114.592 208.743 114.592 209.567V211.42C114.592 213.031 115.204 214.583 116.304 215.76L116.844 216.337C118.555 218.169 118.771 220.942 117.363 223.016C115.797 225.325 112.722 226.049 110.29 224.681L108.081 223.438C107.578 223.155 107.106 222.819 106.675 222.437L103.933 220.007C103.53 219.649 103.157 219.258 102.819 218.838C101.013 216.593 100.31 213.655 100.904 210.835Z" stroke="#00C5EA" stroke-width="5"/>
</g>
<path d="M52.8197 216.022L51.6923 215.108C51.3585 214.837 51.0645 214.514 50.8256 214.157C50.439 213.579 50.196 212.908 50.1267 212.216C50.1015 211.965 50.0989 211.712 50.1187 211.46L50.2323 210.021L50.5957 207.75L51.0499 205.751L51.5041 203.645L52.3217 201.336L53.4119 198.665L54.6838 196.122L56.0465 193.76L57.8432 191.217L59.658 189.182L61.4178 187.312L62.4804 186.359C62.8056 186.068 63.2694 185.989 63.6726 186.157L64.0206 186.296C64.5141 186.494 64.9507 186.811 65.291 187.219C65.6711 187.675 65.9169 188.228 66.0009 188.816L66.048 189.146C66.1138 189.607 66.1057 190.075 66.0238 190.534L66.015 190.583C65.9206 191.112 65.7364 191.62 65.4701 192.086L64.7725 193.306L63.3427 195.286L62.1878 196.661L61.3607 197.601C61.1059 197.89 60.8763 198.201 60.6742 198.529C60.2925 199.15 60.0129 199.827 59.8461 200.536L59.658 201.336L59.108 203.645L58.3931 205.9L57.9532 208.155L57.5682 210.685L57.0182 213.27L56.487 215.173C56.4024 215.476 56.2477 215.755 56.0355 215.988C55.5251 216.547 54.7437 216.772 54.0143 216.569L53.7245 216.488C53.3941 216.397 53.0861 216.238 52.8197 216.022Z" fill="url(#paint3_linear_87_35)"/>
<path d="M83.0859 211.95L82.7525 213.533C82.6817 213.87 82.6459 214.213 82.6459 214.557C82.6459 215.373 82.8467 216.176 83.2306 216.896L83.5259 217.449L84.0028 218.301C84.1972 218.648 84.4385 218.967 84.7199 219.248C85.1651 219.693 85.7019 220.036 86.293 220.253L87.0455 220.529L88.9154 221.189L90.6752 221.849L91.3562 222.032C91.8533 222.166 92.3303 222.365 92.7749 222.624C93.2065 222.876 93.6038 223.182 93.9571 223.536L93.9789 223.558C94.3414 223.92 94.6564 224.327 94.9163 224.769L95.0748 225.038L95.7897 226.248L96.4497 227.678L96.9996 228.998L97.3846 230.428L97.6596 232.463V234.278L97.8795 236.037L98.2095 237.742L98.4458 238.721C98.5445 239.13 98.6929 239.526 98.8876 239.899L99.0794 240.267C99.1954 240.489 99.3447 240.692 99.522 240.87C99.9845 241.332 100.612 241.592 101.266 241.592H101.548C101.887 241.592 102.223 241.537 102.544 241.43L102.845 241.33C103.417 241.139 103.95 240.849 104.42 240.473L104.444 240.454C104.868 240.115 105.237 239.712 105.538 239.26L105.964 238.622C106.55 237.634 107.063 236.604 107.499 235.54L107.724 234.993L108.549 233.398L109.099 231.968L109.813 230.428L110.473 228.998L110.968 227.678C111.552 226.474 111.974 225.197 112.223 223.882L112.233 223.829L112.453 222.124V221.433C112.453 220.696 112.267 219.97 111.913 219.323C111.652 218.848 111.306 218.425 110.891 218.076L110.473 217.724L109.099 216.789L109.019 216.741C108.166 216.23 107.442 215.532 106.899 214.699L106.074 213.215C105.525 212.117 105.065 210.976 104.699 209.805C104.483 208.652 103.969 207.575 103.208 206.682L103.104 206.56L101.784 205.35L100.299 204.305L99.682 203.96C99.1777 203.677 98.6527 203.433 98.1115 203.231C97.4815 202.994 96.8318 202.814 96.17 202.692L95.9822 202.658C95.3785 202.546 94.766 202.49 94.1521 202.49C93.5221 202.49 92.8934 202.549 92.2743 202.667L92.1748 202.685C91.5064 202.812 90.851 202.999 90.2167 203.245L89.4653 203.535L88.6788 203.891C88.0677 204.167 87.4815 204.495 86.9267 204.871L86.6113 205.085C86.3512 205.262 86.1043 205.457 85.8726 205.669C85.2313 206.257 84.7152 206.968 84.3552 207.76L84.0758 208.375L83.5259 210.135L83.0859 211.95Z" fill="url(#paint4_linear_87_35)"/>
<path d="M104.809 182.637L105.488 182.31C105.998 182.065 106.591 182.062 107.103 182.303C107.187 182.343 107.267 182.388 107.345 182.44L108.054 182.912L109.044 183.517L110.033 184.232L111.188 185.112L112.343 186.102L113.443 187.092L114.598 188.192L115.533 189.182L116.523 190.282L117.458 191.437L118.448 192.811L119.438 194.241L120.263 195.616L121.032 196.991L121.802 198.476L122.517 200.126L123.067 201.556L123.562 202.986L124.112 204.745L124.552 206.615L124.882 208.32L124.994 209.286C125.013 209.451 124.819 209.554 124.692 209.446C124.672 209.429 124.649 209.416 124.624 209.409L124.193 209.286C123.993 209.229 123.787 209.2 123.579 209.2H122.993C122.787 209.2 122.581 209.225 122.381 209.275C122 209.37 121.647 209.553 121.35 209.808L121.308 209.843C121.125 210 120.963 210.181 120.827 210.38L120.318 211.125L119.438 212.17L118.788 212.934C118.598 213.157 118.385 213.358 118.151 213.534C117.659 213.902 117.088 214.151 116.482 214.259L116.281 214.295C116.003 214.344 115.721 214.369 115.438 214.369H115.126C114.555 214.369 113.987 214.311 113.428 214.195L112.948 214.094L112.409 213.915C112.002 213.779 111.623 213.57 111.292 213.297C111.005 213.06 110.757 212.779 110.558 212.465L110.198 211.895L110.083 211.756C109.613 211.192 109.229 210.56 108.945 209.883L108.931 209.85C108.75 209.418 108.612 208.968 108.52 208.509C108.429 208.054 108.384 207.592 108.384 207.128V207.024C108.384 206.605 108.416 206.188 108.481 205.774L108.659 204.635L108.934 203.315L109.234 202.377C109.327 202.087 109.398 201.789 109.446 201.488L109.489 201.219C109.558 200.786 109.561 200.345 109.497 199.912L109.466 199.708C109.405 199.294 109.264 198.896 109.051 198.535C108.793 198.098 108.436 197.729 108.009 197.455L107.718 197.269C107.43 197.085 107.115 196.949 106.783 196.866C106.246 196.732 105.684 196.741 105.152 196.893L104.809 196.991C104.077 197.211 103.369 197.5 102.693 197.856L102.664 197.871C101.798 198.34 100.828 198.586 99.8432 198.586H99.4744L97.6046 198.806H95.8997H95.8066C94.8435 198.806 93.8819 198.732 92.93 198.586L92.4524 198.494C91.8212 198.373 91.2122 198.156 90.6463 197.851L90.4351 197.737C90.1925 197.607 89.964 197.452 89.7533 197.274L89.6518 197.189C89.2399 196.842 88.9149 196.403 88.7028 195.908C88.5883 195.641 88.5081 195.361 88.4639 195.074L88.4344 194.882C88.3523 194.349 88.3578 193.804 88.4504 193.272C88.5035 192.966 88.5853 192.665 88.6942 192.375L88.7965 192.102C88.9487 191.696 89.1389 191.305 89.3643 190.935C89.6506 190.464 89.992 190.03 90.3814 189.641L90.7852 189.237C91.5535 188.615 92.3774 188.065 93.2466 187.594L93.26 187.587L94.7448 186.927L96.5047 186.212L97.8246 185.607L99.1444 185.112L100.574 184.452L102.004 183.902L103.434 183.187L104.809 182.637Z" fill="url(#paint5_linear_87_35)"/>
<path d="M58.691 221.646L58.6336 221.258C58.5835 220.92 58.5705 220.577 58.5948 220.235L58.6342 219.685C58.6566 219.371 58.7465 219.066 58.8979 218.791C59.1405 218.35 59.5286 218.007 59.996 217.82L60.3562 217.676C60.5503 217.598 60.7514 217.539 60.9567 217.5L61.3029 217.434C61.6355 217.371 61.9733 217.339 62.3119 217.339C62.8494 217.339 63.384 217.42 63.8978 217.578L63.9321 217.588C64.3444 217.715 64.7408 217.889 65.1134 218.106L65.8725 218.549C66.6407 219.098 67.3547 219.719 68.0049 220.403L68.0723 220.474L69.0622 221.464L70.0521 222.619L70.987 223.829L71.9769 225.148L72.3165 225.524C72.7855 226.042 73.2027 226.612 73.5562 227.215C73.8215 227.667 74.0531 228.143 74.2449 228.632C74.4557 229.168 74.6202 229.722 74.7364 230.287L74.9467 231.308L75.0807 232.615C75.1378 233.172 75.1355 233.733 75.0736 234.29C74.9894 235.048 74.7958 235.789 74.4987 236.491L74.3417 236.862L74.3345 236.876C73.8637 237.745 73.3138 238.569 72.6919 239.337L72.2009 239.859C71.943 240.133 71.6465 240.368 71.3208 240.556C70.9541 240.769 70.5551 240.919 70.1396 241.003L69.74 241.082C69.5087 241.129 69.2734 241.152 69.0374 241.152H68.953C68.5172 241.152 68.086 241.062 67.6864 240.889C67.2525 240.7 66.8663 240.417 66.5559 240.06L66.194 239.644C66.0166 239.44 65.8541 239.223 65.7079 238.996L65.5419 238.737C65.1403 238.113 64.8106 237.445 64.559 236.746L64.4426 236.422C64.2234 235.472 64.1127 234.5 64.1127 233.525V233.068L63.9777 231.988C63.9212 231.536 63.8227 231.089 63.6837 230.655C63.5301 230.175 63.3278 229.712 63.0798 229.273L63.032 229.189C62.8361 228.842 62.6156 228.51 62.3722 228.195L61.8029 227.458L60.923 226.303L60.098 225.093L59.8605 224.729C59.4708 224.132 59.1658 223.483 58.9544 222.802C58.8371 222.424 58.749 222.037 58.691 221.646Z" fill="url(#paint6_linear_87_35)"/>
</g>
</g>
<defs>
<filter id="filter0_d_87_35" x="17" y="0.762817" width="301.218" height="304.237" filterUnits="userSpaceOnUse" color-interpolation-filters="sRGB">
<feFlood flood-opacity="0" result="BackgroundImageFix"/>
<feColorMatrix in="SourceAlpha" type="matrix" values="0 0 0 0 0 0 0 0 0 0 0 0 0 0 0 0 0 0 127 0" result="hardAlpha"/>
<feOffset/>
<feGaussianBlur stdDeviation="3.5"/>
<feComposite in2="hardAlpha" operator="out"/>
<feColorMatrix type="matrix" values="0 0 0 0 0 0 0 0 0 0 0 0 0 0 0 0 0 0 0.5 0"/>
<feBlend mode="normal" in2="BackgroundImageFix" result="effect1_dropShadow_87_35"/>
<feBlend mode="normal" in="SourceGraphic" in2="effect1_dropShadow_87_35" result="shape"/>
</filter>
<filter id="filter1_d_87_35" x="66.314" y="42.1625" width="209.873" height="209.873" filterUnits="userSpaceOnUse" color-interpolation-filters="sRGB">
<feFlood flood-opacity="0" result="BackgroundImageFix"/>
<feColorMatrix in="SourceAlpha" type="matrix" values="0 0 0 0 0 0 0 0 0 0 0 0 0 0 0 0 0 0 127 0" result="hardAlpha"/>
<feOffset/>
<feGaussianBlur stdDeviation="25"/>
<feComposite in2="hardAlpha" operator="out"/>
<feColorMatrix type="matrix" values="0 0 0 0 1 0 0 0 0 0.96 0 0 0 0 0 0 0 0 1 0"/>
<feBlend mode="normal" in2="BackgroundImageFix" result="effect1_dropShadow_87_35"/>
<feBlend mode="normal" in="SourceGraphic" in2="effect1_dropShadow_87_35" result="shape"/>
</filter>
<filter id="filter2_d_87_35" x="0" y="126.68" width="175.221" height="175.221" filterUnits="userSpaceOnUse" color-interpolation-filters="sRGB">
<feFlood flood-opacity="0" result="BackgroundImageFix"/>
<feColorMatrix in="SourceAlpha" type="matrix" values="0 0 0 0 0 0 0 0 0 0 0 0 0 0 0 0 0 0 127 0" result="hardAlpha"/>
<feOffset/>
<feGaussianBlur stdDeviation="25"/>
<feComposite in2="hardAlpha" operator="out"/>
<feColorMatrix type="matrix" values="0 0 0 0 1 0 0 0 0 1 0 0 0 0 1 0 0 0 0.25 0"/>
<feBlend mode="normal" in2="BackgroundImageFix" result="effect1_dropShadow_87_35"/>
<feBlend mode="normal" in="SourceGraphic" in2="effect1_dropShadow_87_35" result="shape"/>
</filter>
<filter id="filter3_d_87_35" x="40.1056" y="172.124" width="94.8893" height="89.7335" filterUnits="userSpaceOnUse" color-interpolation-filters="sRGB">
<feFlood flood-opacity="0" result="BackgroundImageFix"/>
<feColorMatrix in="SourceAlpha" type="matrix" values="0 0 0 0 0 0 0 0 0 0 0 0 0 0 0 0 0 0 127 0" result="hardAlpha"/>
<feOffset/>
<feGaussianBlur stdDeviation="5"/>
<feComposite in2="hardAlpha" operator="out"/>
<feColorMatrix type="matrix" values="0 0 0 0 0.0635833 0 0 0 0 0.454167 0 0 0 0 0 0 0 0 0.5 0"/>
<feBlend mode="normal" in2="BackgroundImageFix" result="effect1_dropShadow_87_35"/>
<feBlend mode="normal" in="SourceGraphic" in2="effect1_dropShadow_87_35" result="shape"/>
</filter>
<filter id="filter4_d_87_35" x="45.0403" y="174.429" width="85.7492" height="87.4288" filterUnits="userSpaceOnUse" color-interpolation-filters="sRGB">
<feFlood flood-opacity="0" result="BackgroundImageFix"/>
<feColorMatrix in="SourceAlpha" type="matrix" values="0 0 0 0 0 0 0 0 0 0 0 0 0 0 0 0 0 0 127 0" result="hardAlpha"/>
<feOffset/>
<feGaussianBlur stdDeviation="5"/>
<feComposite in2="hardAlpha" operator="out"/>
<feColorMatrix type="matrix" values="0 0 0 0 0.0528125 0 0 0 0 0.809006 0 0 0 0 0.975 0 0 0 1 0"/>
<feBlend mode="normal" in2="BackgroundImageFix" result="effect1_dropShadow_87_35"/>
<feBlend mode="normal" in="SourceGraphic" in2="effect1_dropShadow_87_35" result="shape"/>
</filter>
<radialGradient id="paint0_radial_87_35" cx="0" cy="0" r="1" gradientUnits="userSpaceOnUse" gradientTransform="translate(168 152.5) rotate(90) scale(145.5 144)">
<stop stop-color="#1F0845"/>
<stop offset="1" stop-color="#4B14A3"/>
</radialGradient>
<radialGradient id="paint1_radial_87_35" cx="0" cy="0" r="1" gradientUnits="userSpaceOnUse" gradientTransform="translate(163.203 129.253) rotate(78.8305) scale(55.9973)">
<stop offset="0.375" stop-color="#FDDD07"/>
<stop offset="0.875" stop-color="#FFA800"/>
</radialGradient>
<linearGradient id="paint2_linear_87_35" x1="87.6105" y1="176.68" x2="87.6105" y2="251.901" gradientUnits="userSpaceOnUse">
<stop stop-color="#0D82CF"/>
<stop offset="1" stop-color="#008DCF"/>
</linearGradient>
<linearGradient id="paint3_linear_87_35" x1="58.0082" y1="185.882" x2="58.0082" y2="216.899" gradientUnits="userSpaceOnUse">
<stop stop-color="#42AD00"/>
<stop offset="0.838542" stop-color="#89E000"/>
</linearGradient>
<linearGradient id="paint4_linear_87_35" x1="97.5496" y1="202.49" x2="97.5496" y2="241.592" gradientUnits="userSpaceOnUse">
<stop stop-color="#42AD00"/>
<stop offset="0.838542" stop-color="#89E000"/>
</linearGradient>
<linearGradient id="paint5_linear_87_35" x1="106.679" y1="181.922" x2="106.679" y2="214.369" gradientUnits="userSpaceOnUse">
<stop stop-color="#42AD00"/>
<stop offset="0.838542" stop-color="#89E000"/>
</linearGradient>
<linearGradient id="paint6_linear_87_35" x1="66.8624" y1="217.339" x2="66.8624" y2="241.152" gradientUnits="userSpaceOnUse">
<stop stop-color="#42AD00"/>
<stop offset="0.838542" stop-color="#89E000"/>
</linearGradient>
</defs>
</svg>
