<svg width="306" height="334" viewBox="0 0 306 334" fill="none" xmlns="http://www.w3.org/2000/svg">
<g filter="url(#filter0_d_87_33)">
<path d="M59.8114 232.789L57.4314 248.131C56.5971 255.92 56.5827 263.774 57.3886 271.566L57.4314 271.98L59.4124 280.677C60.5951 285.869 62.5344 290.859 65.1682 295.487C67.667 299.877 70.7657 303.898 74.375 307.433L75.0394 308.084C77.657 310.648 80.5004 312.97 83.5351 315.024L83.7553 315.173C89.9999 319.398 96.961 322.49 104.281 324.297C107.617 325.12 111.021 325.676 114.445 325.954L127.288 327H137.029C143.047 327 149.029 326.063 154.759 324.223C160.257 322.458 165.461 319.882 170.198 316.579L171.082 315.963C174.92 313.287 178.459 310.206 181.638 306.772L183.159 305.129C185.925 302.141 188.476 298.959 190.791 295.608L191.225 294.981C195.159 289.287 198.471 283.186 201.102 276.784L201.345 276.193C203.698 270.467 205.528 264.54 206.813 258.484L207.81 253.779L211.993 238.089L215.144 230.153C216.802 225.976 218.972 222.021 221.605 218.379C225.483 213.015 230.376 208.361 235.912 204.733C238.348 203.137 240.937 201.717 243.595 200.527L245.839 199.522C251.01 197.206 255.938 194.384 260.553 191.096L268.882 185.161L279.967 175.747L286.389 169.46C288.653 167.244 290.646 164.766 292.325 162.079L293 160.998C295.711 156.66 297.418 151.771 297.997 146.688C298.655 140.912 297.835 135.063 295.615 129.689L294.648 127.349C293.232 123.924 291.391 120.691 289.168 117.726L288.371 116.663C284.066 110.921 278.671 106.083 272.496 102.426L271.973 102.116C267.975 99.7483 263.706 97.872 259.258 96.5281L254.503 95.0912C248.782 93.3628 242.839 92.4845 236.864 92.4845C232.981 92.4845 229.107 92.8554 225.294 93.5921L221.824 94.2628C215.702 95.4455 209.482 96.041 203.248 96.041H190.242C178.586 96.041 167.265 92.1439 158.079 84.9695L156.987 84.1165L145.275 73.6564L135.444 62.1503L124.823 52.7235C122.009 50.2262 118.986 47.9754 115.787 45.9963L113.615 44.6528C107.729 41.0119 101.184 38.5647 94.3529 37.4507C88.4653 36.4905 82.4575 36.5359 76.585 37.5848L73.8281 38.0772C69.8761 38.7831 65.9931 39.8318 62.2231 41.2114L57.1416 43.0709C52.8852 44.6285 48.808 46.638 44.9799 49.0648C38.9623 52.8798 33.6305 57.6816 29.2087 63.2684L23.9673 69.8907C17.2071 81.2065 12.8424 93.7899 11.1435 106.861L11 107.965V114.427C11 122.344 12.2333 130.213 14.6554 137.751C15.9808 141.875 17.6552 145.879 19.6606 149.719L20.124 150.606C22.6805 155.501 25.6924 160.144 29.1198 164.475L35.8889 173.027L46.1373 185.37L47.5607 187.137C54.0262 195.161 58.2564 204.751 59.823 214.936C60.733 220.852 60.7291 226.874 59.8114 232.789Z" fill="url(#paint0_radial_87_33)"/>
</g>
<g filter="url(#filter1_d_87_33)">
<circle cx="128.5" cy="128.5" r="78.5" fill="url(#paint1_radial_87_33)"/>
</g>
<g filter="url(#filter2_d_87_33)">
<path d="M64.2848 118.878L64.9669 116.888C66.6238 112.056 69.5754 107.771 73.5 104.5C77.0146 102.263 81.2876 101.552 85.3372 102.53L90.6147 103.804C92.5315 104.266 94.4963 104.5 96.4682 104.5C102.304 104.5 107.955 106.546 112.438 110.282L116.185 113.404C117.06 114.133 117.87 114.937 118.606 115.807C121.452 119.171 123.102 123.394 123.179 127.8C123.253 132.06 123.25 136.5 123 138C122.894 138.634 122.577 139.446 122.136 140.336C119.627 145.402 116.613 150.25 114.877 155.63L113.022 161.383C112.676 162.454 112.5 163.573 112.5 164.699C112.5 170.664 107.664 175.5 101.699 175.5H98.5C89.896 175.5 81.6316 171.839 75.8062 165.507C74.2822 163.85 72.9298 162.018 71.7996 160.071L69.1078 155.436C66.0639 150.193 64.049 144.418 63.1713 138.42L62.7433 135.496C61.9263 129.913 62.4547 124.215 64.2848 118.878Z" fill="#FFE68F" fill-opacity="0.26" shape-rendering="crispEdges"/>
</g>
<g filter="url(#filter3_d_87_33)">
<g filter="url(#filter4_i_87_33)">
<path d="M109.133 241.152L107.941 245.069C107.878 245.276 107.787 245.473 107.671 245.655L107.326 246.198C106.886 246.889 107.021 247.799 107.644 248.332C107.778 248.447 107.929 248.54 108.093 248.606L177.15 276.816L179.233 278.006C179.556 278.19 179.916 278.302 180.287 278.333C181.287 278.416 182.243 277.906 182.73 277.029L182.849 276.816L184.871 273.139L186.526 269.278L187.996 265.602L188.915 262.109L190.018 257.697L190.57 253.101L190.938 248.506L191.121 244.277V240.417L190.754 236.189C190.387 233.742 189.825 231.328 189.075 228.97L188.915 228.468C188.304 226.268 187.46 224.14 186.397 222.12L186.158 221.666L186.033 221.386C185.138 219.37 184.072 217.435 182.849 215.6L180.643 212.659L179.219 210.797C178.579 209.96 178.075 209.027 177.724 208.034L177.661 207.856C177.323 206.898 177.15 205.889 177.15 204.873C177.15 203.702 177.38 202.542 177.826 201.459L177.851 201.398C178.239 200.455 178.78 199.583 179.451 198.815L179.614 198.63C180.536 197.575 181.655 196.711 182.908 196.084L183.035 196.021C183.645 195.716 184.281 195.465 184.935 195.273L185.644 195.065C186.598 194.784 187.572 194.576 188.557 194.441L191.121 194.092L194.43 193.724L198.107 192.805L202.151 191.518C204.47 190.664 206.666 189.509 208.685 188.085L208.769 188.025C210.97 186.558 213.02 184.877 214.89 183.007L215.203 182.694L218.512 179.017L220.902 176.076L223.108 172.767L225.314 168.355L226.968 164.311L228.623 158.428L229.937 153.565C230.271 152.329 230.076 151.01 229.397 149.924C228.893 149.118 228.152 148.488 227.276 148.12L167.775 123.133L165.017 121.846L163.333 121.225C162.221 120.816 160.973 121.056 160.092 121.848C159.824 122.09 159.598 122.376 159.425 122.693L157.48 126.258C156.257 127.971 155.184 129.786 154.273 131.683L153.436 133.427L151.782 138.023L150.311 142.803C149.578 146.225 149.208 149.715 149.208 153.214V153.281V154.142C149.208 157.24 149.454 160.333 149.943 163.392L151.046 167.804L152.333 171.113C153.434 173.436 154.745 175.654 156.25 177.739L156.377 177.914L158.951 181.223L160.789 183.429L161.319 184.065C162.184 185.104 162.858 186.288 163.308 187.563L163.345 187.667C163.601 188.394 163.776 189.147 163.866 189.912L163.9 190.199C164.031 191.313 163.95 192.442 163.661 193.527C163.463 194.268 163.17 194.98 162.79 195.646L162.593 195.99C162.129 196.803 161.542 197.54 160.854 198.175C159.962 198.999 158.915 199.636 157.774 200.051L157.06 200.311C155.997 200.698 154.887 200.943 153.76 201.041L153.285 201.082C151.92 201.201 150.576 201.489 149.282 201.939L147.002 202.732L146.524 202.866C143.784 203.633 141.115 204.633 138.546 205.857L134.502 208.247L130.641 211.004L126.045 214.864L125.702 215.19C123.607 217.175 121.691 219.342 119.979 221.666L117.589 224.975L115.751 228.1L113.361 231.961L111.706 235.637L109.133 241.152Z" fill="#F4F4F4"/>
</g>
<path d="M108.214 243.726C112.101 230.449 126.752 203.794 154.661 200.881C156.029 200.738 157.379 200.392 158.61 199.777L159.217 199.473C161.17 198.497 162.673 196.806 163.412 194.751V194.751C163.745 193.828 163.914 192.855 163.914 191.873V191.368C163.914 189.889 163.626 188.424 163.066 187.055L162.94 186.746C162.489 185.643 161.889 184.607 161.157 183.666L159.686 181.775L156.745 178.466C150.556 171.297 142.186 150.56 158.216 124.971" stroke="#F4F4F4" stroke-width="10"/>
<path d="M184.053 274.656C190.404 262.366 198.201 232.966 180.017 211.594C179.126 210.547 178.388 209.365 177.922 208.071L177.692 207.431C176.953 205.376 177.033 203.116 177.916 201.119V201.119C178.313 200.222 178.862 199.4 179.539 198.69L179.888 198.324C180.909 197.254 182.128 196.393 183.479 195.789L183.783 195.652C184.871 195.166 186.02 194.83 187.199 194.654L189.569 194.301L193.981 193.937C203.408 193.021 223.777 183.795 229.841 154.214" stroke="#F4F4F4" stroke-width="10"/>
<g filter="url(#filter5_d_87_33)">
<path d="M177.109 284.515L103.184 253.66C99.7207 252.215 98.0013 248.306 99.2758 244.777C100.639 241.001 104.881 239.13 108.589 240.668L182.584 271.356C186.193 272.853 187.924 276.977 186.464 280.601C184.981 284.284 180.773 286.044 177.109 284.515Z" fill="#905C2F"/>
</g>
<g filter="url(#filter6_d_87_33)">
<path d="M229.869 157.671L155.943 126.817C152.48 125.371 150.761 121.463 152.035 117.934C153.399 114.158 157.64 112.286 161.349 113.824L235.343 144.513C238.952 146.009 240.683 150.133 239.224 153.757C237.74 157.44 233.533 159.201 229.869 157.671Z" fill="#905C2F"/>
</g>
<g filter="url(#filter7_di_87_33)">
<path d="M174.454 263.245L117.977 239.633C116.35 238.953 115.595 237.07 116.302 235.454L117.589 233.064L119.244 230.306L120.242 228.975C121.043 227.907 121.987 226.954 123.048 226.143L123.085 226.114C124.074 225.358 125.158 224.735 126.309 224.261C127.234 223.88 128.196 223.598 129.18 223.419L131.744 222.953L135.053 222.402L139.281 221.482L143.509 220.563L148.105 219.46L152.701 218.173L154.557 217.555C155.523 217.233 156.454 216.813 157.335 216.303C158.77 215.472 160.058 214.41 161.146 213.158L161.224 213.069C162.516 211.583 163.518 209.868 164.177 208.013L166.12 202.548L167.407 197.952L167.687 196.835C168.112 195.135 168.326 193.389 168.326 191.637V190.96C168.326 190.23 168.266 189.502 168.146 188.782C167.9 187.308 167.407 185.886 166.687 184.576L165.753 182.878L164.724 180.935C164.308 180.148 163.825 179.398 163.282 178.692C162.603 177.809 162.018 176.855 161.539 175.849L160.422 173.503L158.951 170.561L157.855 168.248C157.483 167.463 157.171 166.651 156.922 165.818L156.24 163.546C156.209 163.444 156.194 163.338 156.194 163.231C156.194 162.396 157.091 161.868 157.821 162.274L157.848 162.289L206.196 181.959C207.152 182.394 207.352 183.665 206.574 184.372L206.339 184.586C206.244 184.672 206.139 184.748 206.026 184.81L204.179 185.836C203.319 186.314 202.424 186.728 201.502 187.074L200.702 187.374C199.219 187.93 197.696 188.373 196.146 188.699L191.489 189.68L187.445 190.599L183.033 192.069L180.064 193.495C178.982 194.014 177.945 194.644 176.985 195.364C175.519 196.464 174.215 197.789 173.142 199.274C172.628 199.985 172.167 200.732 171.762 201.509L170.165 204.57L168.043 209.756C167.259 211.673 166.856 213.724 166.856 215.795C166.856 216.887 166.968 217.977 167.191 219.047L167.775 221.85L169.246 226.262L171.452 231.225L171.875 231.978C173.796 235.393 175.99 238.645 178.437 241.704L181.124 245.159C181.901 246.158 182.511 247.276 182.929 248.471C183.363 249.711 183.584 251.015 183.584 252.328V253.14C183.584 254.7 183.363 256.251 182.926 257.748L182.298 259.903C181.089 263.026 177.543 264.536 174.454 263.245Z" fill="#FF367E"/>
</g>
</g>
<defs>
<filter id="filter0_d_87_33" x="4" y="29.7628" width="301.217" height="304.237" filterUnits="userSpaceOnUse" color-interpolation-filters="sRGB">
<feFlood flood-opacity="0" result="BackgroundImageFix"/>
<feColorMatrix in="SourceAlpha" type="matrix" values="0 0 0 0 0 0 0 0 0 0 0 0 0 0 0 0 0 0 127 0" result="hardAlpha"/>
<feOffset/>
<feGaussianBlur stdDeviation="3.5"/>
<feComposite in2="hardAlpha" operator="out"/>
<feColorMatrix type="matrix" values="0 0 0 0 0 0 0 0 0 0 0 0 0 0 0 0 0 0 0.5 0"/>
<feBlend mode="normal" in2="BackgroundImageFix" result="effect1_dropShadow_87_33"/>
<feBlend mode="normal" in="SourceGraphic" in2="effect1_dropShadow_87_33" result="shape"/>
</filter>
<filter id="filter1_d_87_33" x="0" y="0" width="257" height="257" filterUnits="userSpaceOnUse" color-interpolation-filters="sRGB">
<feFlood flood-opacity="0" result="BackgroundImageFix"/>
<feColorMatrix in="SourceAlpha" type="matrix" values="0 0 0 0 0 0 0 0 0 0 0 0 0 0 0 0 0 0 127 0" result="hardAlpha"/>
<feOffset/>
<feGaussianBlur stdDeviation="25"/>
<feComposite in2="hardAlpha" operator="out"/>
<feColorMatrix type="matrix" values="0 0 0 0 1 0 0 0 0 0.96 0 0 0 0 0 0 0 0 1 0"/>
<feBlend mode="normal" in2="BackgroundImageFix" result="effect1_dropShadow_87_33"/>
<feBlend mode="normal" in="SourceGraphic" in2="effect1_dropShadow_87_33" result="shape"/>
</filter>
<filter id="filter2_d_87_33" x="52.37" y="96.1013" width="80.8509" height="93.3987" filterUnits="userSpaceOnUse" color-interpolation-filters="sRGB">
<feFlood flood-opacity="0" result="BackgroundImageFix"/>
<feColorMatrix in="SourceAlpha" type="matrix" values="0 0 0 0 0 0 0 0 0 0 0 0 0 0 0 0 0 0 127 0" result="hardAlpha"/>
<feOffset dy="4"/>
<feGaussianBlur stdDeviation="5"/>
<feComposite in2="hardAlpha" operator="out"/>
<feColorMatrix type="matrix" values="0 0 0 0 0 0 0 0 0 0 0 0 0 0 0 0 0 0 0.25 0"/>
<feBlend mode="normal" in2="BackgroundImageFix" result="effect1_dropShadow_87_33"/>
<feBlend mode="normal" in="SourceGraphic" in2="effect1_dropShadow_87_33" result="shape"/>
</filter>
<filter id="filter3_d_87_33" x="68.8559" y="87.2851" width="227.166" height="231.781" filterUnits="userSpaceOnUse" color-interpolation-filters="sRGB">
<feFlood flood-opacity="0" result="BackgroundImageFix"/>
<feColorMatrix in="SourceAlpha" type="matrix" values="0 0 0 0 0 0 0 0 0 0 0 0 0 0 0 0 0 0 127 0" result="hardAlpha"/>
<feOffset dy="4"/>
<feGaussianBlur stdDeviation="15"/>
<feComposite in2="hardAlpha" operator="out"/>
<feColorMatrix type="matrix" values="0 0 0 0 1 0 0 0 0 1 0 0 0 0 1 0 0 0 0.5 0"/>
<feBlend mode="normal" in2="BackgroundImageFix" result="effect1_dropShadow_87_33"/>
<feBlend mode="normal" in="SourceGraphic" in2="effect1_dropShadow_87_33" result="shape"/>
</filter>
<filter id="filter4_i_87_33" x="107.069" y="121.028" width="123.028" height="157.314" filterUnits="userSpaceOnUse" color-interpolation-filters="sRGB">
<feFlood flood-opacity="0" result="BackgroundImageFix"/>
<feBlend mode="normal" in="SourceGraphic" in2="BackgroundImageFix" result="shape"/>
<feColorMatrix in="SourceAlpha" type="matrix" values="0 0 0 0 0 0 0 0 0 0 0 0 0 0 0 0 0 0 127 0" result="hardAlpha"/>
<feOffset/>
<feGaussianBlur stdDeviation="5"/>
<feComposite in2="hardAlpha" operator="arithmetic" k2="-1" k3="1"/>
<feColorMatrix type="matrix" values="0 0 0 0 0 0 0 0 0 0 0 0 0 0 0 0 0 0 0.5 0"/>
<feBlend mode="normal" in2="shape" result="effect1_innerShadow_87_33"/>
</filter>
<filter id="filter5_d_87_33" x="94.8559" y="240.128" width="96.126" height="52.9379" filterUnits="userSpaceOnUse" color-interpolation-filters="sRGB">
<feFlood flood-opacity="0" result="BackgroundImageFix"/>
<feColorMatrix in="SourceAlpha" type="matrix" values="0 0 0 0 0 0 0 0 0 0 0 0 0 0 0 0 0 0 127 0" result="hardAlpha"/>
<feOffset dy="4"/>
<feGaussianBlur stdDeviation="2"/>
<feComposite in2="hardAlpha" operator="out"/>
<feColorMatrix type="matrix" values="0 0 0 0 0 0 0 0 0 0 0 0 0 0 0 0 0 0 0.25 0"/>
<feBlend mode="normal" in2="BackgroundImageFix" result="effect1_dropShadow_87_33"/>
<feBlend mode="normal" in="SourceGraphic" in2="effect1_dropShadow_87_33" result="shape"/>
</filter>
<filter id="filter6_d_87_33" x="147.615" y="113.285" width="96.126" height="52.9379" filterUnits="userSpaceOnUse" color-interpolation-filters="sRGB">
<feFlood flood-opacity="0" result="BackgroundImageFix"/>
<feColorMatrix in="SourceAlpha" type="matrix" values="0 0 0 0 0 0 0 0 0 0 0 0 0 0 0 0 0 0 127 0" result="hardAlpha"/>
<feOffset dy="4"/>
<feGaussianBlur stdDeviation="2"/>
<feComposite in2="hardAlpha" operator="out"/>
<feColorMatrix type="matrix" values="0 0 0 0 0 0 0 0 0 0 0 0 0 0 0 0 0 0 0.25 0"/>
<feBlend mode="normal" in2="BackgroundImageFix" result="effect1_dropShadow_87_33"/>
<feBlend mode="normal" in="SourceGraphic" in2="effect1_dropShadow_87_33" result="shape"/>
</filter>
<filter id="filter7_di_87_33" x="106.037" y="152.134" width="111.016" height="121.573" filterUnits="userSpaceOnUse" color-interpolation-filters="sRGB">
<feFlood flood-opacity="0" result="BackgroundImageFix"/>
<feColorMatrix in="SourceAlpha" type="matrix" values="0 0 0 0 0 0 0 0 0 0 0 0 0 0 0 0 0 0 127 0" result="hardAlpha"/>
<feOffset/>
<feGaussianBlur stdDeviation="5"/>
<feComposite in2="hardAlpha" operator="out"/>
<feColorMatrix type="matrix" values="0 0 0 0 0 0 0 0 0 0 0 0 0 0 0 0 0 0 0.25 0"/>
<feBlend mode="normal" in2="BackgroundImageFix" result="effect1_dropShadow_87_33"/>
<feBlend mode="normal" in="SourceGraphic" in2="effect1_dropShadow_87_33" result="shape"/>
<feColorMatrix in="SourceAlpha" type="matrix" values="0 0 0 0 0 0 0 0 0 0 0 0 0 0 0 0 0 0 127 0" result="hardAlpha"/>
<feOffset dy="4"/>
<feGaussianBlur stdDeviation="2"/>
<feComposite in2="hardAlpha" operator="arithmetic" k2="-1" k3="1"/>
<feColorMatrix type="matrix" values="0 0 0 0 0 0 0 0 0 0 0 0 0 0 0 0 0 0 0.25 0"/>
<feBlend mode="normal" in2="shape" result="effect2_innerShadow_87_33"/>
</filter>
<radialGradient id="paint0_radial_87_33" cx="0" cy="0" r="1" gradientUnits="userSpaceOnUse" gradientTransform="translate(155 181.5) rotate(90) scale(145.5 144)">
<stop stop-color="#1F0845"/>
<stop offset="1" stop-color="#4B14A3"/>
</radialGradient>
<radialGradient id="paint1_radial_87_33" cx="0" cy="0" r="1" gradientUnits="userSpaceOnUse" gradientTransform="translate(117 103) rotate(78.8305) scale(80.0156)">
<stop offset="0.375" stop-color="#FDDD07"/>
<stop offset="0.875" stop-color="#FFA800"/>
</radialGradient>
</defs>
</svg>
