<svg width="463" height="265" viewBox="0 0 463 265" fill="none" xmlns="http://www.w3.org/2000/svg">
<g filter="url(#filter0_d_17_93)">
<path d="M194.056 10.2897C108.111 30.7732 79.2423 26.4838 51.6249 36.2597C16.6659 48.6344 4.31132 90.2265 8.17008 127.11L8.85272 133.635C10.7449 151.72 18.0407 168.817 29.7894 182.696C34.1863 187.89 39.089 192.604 44.7104 196.439C96.0454 231.467 210.563 282.882 298.3 233.797C336.123 212.637 404.827 224.34 419.491 209.794C449.822 179.706 453.29 155.257 455.713 131.649C458.589 103.632 439.347 71.9379 419.491 51.2136C397.239 30.4893 298.403 -14.5794 194.056 10.2897Z" fill="#4B14A3"/>
<path d="M194.056 10.2897C108.111 30.7732 79.2423 26.4838 51.6249 36.2597C16.6659 48.6344 4.31132 90.2265 8.17008 127.11L8.85272 133.635C10.7449 151.72 18.0407 168.817 29.7894 182.696C34.1863 187.89 39.089 192.604 44.7104 196.439C96.0454 231.467 210.563 282.882 298.3 233.797C336.123 212.637 404.827 224.34 419.491 209.794C449.822 179.706 453.29 155.257 455.713 131.649C458.589 103.632 439.347 71.9379 419.491 51.2136C397.239 30.4893 298.403 -14.5794 194.056 10.2897Z" stroke="#4B14A3" stroke-width="4"/>
</g>
<defs>
<filter id="filter0_d_17_93" x="0.49176" y="-4.57764e-05" width="462.508" height="265" filterUnits="userSpaceOnUse" color-interpolation-filters="sRGB">
<feFlood flood-opacity="0" result="BackgroundImageFix"/>
<feColorMatrix in="SourceAlpha" type="matrix" values="0 0 0 0 0 0 0 0 0 0 0 0 0 0 0 0 0 0 127 0" result="hardAlpha"/>
<feOffset dy="4"/>
<feGaussianBlur stdDeviation="2.5"/>
<feComposite in2="hardAlpha" operator="out"/>
<feColorMatrix type="matrix" values="0 0 0 0 0 0 0 0 0 0 0 0 0 0 0 0 0 0 0.25 0"/>
<feBlend mode="normal" in2="BackgroundImageFix" result="effect1_dropShadow_17_93"/>
<feBlend mode="normal" in="SourceGraphic" in2="effect1_dropShadow_17_93" result="shape"/>
</filter>
</defs>
</svg>
