<svg width="460" height="460" viewBox="0 0 460 460" fill="none" xmlns="http://www.w3.org/2000/svg">
<g filter="url(#filter0_d_29_8)">
<circle cx="230" cy="230" r="180" fill="url(#paint0_linear_29_8)"/>
<g filter="url(#filter1_d_29_8)">
<path d="M90.9528 130.849L77.649 139.718C76.9089 140.211 76.0271 139.329 76.5205 138.589L77.1617 137.307C78.2359 135.158 79.5341 133.13 81.0346 131.254L82.7274 128.433L84.4202 126.176L86.113 123.354L88.37 120.533L90.6271 117.712L94.0126 113.762L96.2697 110.94L99.6553 106.991C101.532 104.738 103.61 102.661 105.862 100.784L107.846 99.1308C108.778 98.3535 109.639 97.4931 110.416 96.5603C111.514 95.2434 112.775 94.0725 114.17 93.0761L116.019 91.7555C119.743 88.7758 124.023 86.5666 128.61 85.2562L129.561 84.9843L143.104 81.5987L153.26 78.7774L157.369 78.1905C167.783 76.7028 178.289 75.9561 188.809 75.9561C199.701 75.9561 210.575 76.8274 221.327 78.5617L222.665 78.7774C232.423 80.6541 242.338 81.5987 252.275 81.5987H255.392H262.144C267.41 81.5987 272.664 81.0785 277.828 80.0457C282.049 79.2016 286.194 78.0181 290.225 76.5067L297.712 73.6991L305.31 70.8045C308.001 69.7792 311.01 70.0131 313.511 71.442L317.461 73.6991L321.411 75.9561L325.925 78.7774L329.875 81.5987L329.977 81.6629C332.914 83.4984 335.709 85.5518 338.339 87.8056L341.724 90.627L345.674 93.4483L350.752 97.9624C353.231 100.441 354.36 103.964 353.784 107.422L353.734 107.724C353.627 108.362 353.467 108.991 353.254 109.602L351.888 113.53C350.017 118.909 347.214 123.917 343.608 128.325C340.489 132.136 336.809 135.451 332.694 138.156L327.337 141.676C321.903 145.246 316.041 148.118 309.889 150.223C301.826 152.981 293.363 154.389 284.842 154.389H270.063L266.705 153.941C252.091 151.992 237.83 147.963 224.357 141.975L217.045 137.404C206.914 131.073 196.018 126.058 184.62 122.482L184.057 122.306C176.706 120 169.169 118.333 161.53 117.324L156.09 116.605C147.474 115.467 138.742 115.526 130.141 116.781C120.78 118.146 111.677 120.912 103.139 124.987L91.4501 130.566C91.2778 130.648 91.1116 130.743 90.9528 130.849Z" fill="#D68A56"/>
<path d="M90.9528 130.849L77.649 139.718C76.9089 140.211 76.0271 139.329 76.5205 138.589L77.1617 137.307C78.2359 135.158 79.5341 133.13 81.0346 131.254L82.7274 128.433L84.4202 126.176L86.113 123.354L88.37 120.533L90.6271 117.712L94.0126 113.762L96.2697 110.94L99.6553 106.991C101.532 104.738 103.61 102.661 105.862 100.784L107.846 99.1308C108.778 98.3535 109.639 97.4931 110.416 96.5603C111.514 95.2434 112.775 94.0725 114.17 93.0761L116.019 91.7555C119.743 88.7758 124.023 86.5666 128.61 85.2562L129.561 84.9843L143.104 81.5987L153.26 78.7774L157.369 78.1905C167.783 76.7028 178.289 75.9561 188.809 75.9561C199.701 75.9561 210.575 76.8274 221.327 78.5617L222.665 78.7774C232.423 80.6541 242.338 81.5987 252.275 81.5987H255.392H262.144C267.41 81.5987 272.664 81.0785 277.828 80.0457C282.049 79.2016 286.194 78.0181 290.225 76.5067L297.712 73.6991L305.31 70.8045C308.001 69.7792 311.01 70.0131 313.511 71.442L317.461 73.6991L321.411 75.9561L325.925 78.7774L329.875 81.5987L329.977 81.6629C332.914 83.4984 335.709 85.5518 338.339 87.8056L341.724 90.627L345.674 93.4483L350.752 97.9624C353.231 100.441 354.36 103.964 353.784 107.422L353.734 107.724C353.627 108.362 353.467 108.991 353.254 109.602L351.888 113.53C350.017 118.909 347.214 123.917 343.608 128.325C340.489 132.136 336.809 135.451 332.694 138.156L327.337 141.676C321.903 145.246 316.041 148.118 309.889 150.223C301.826 152.981 293.363 154.389 284.842 154.389H270.063L266.705 153.941C252.091 151.992 237.83 147.963 224.357 141.975L217.045 137.404C206.914 131.073 196.018 126.058 184.62 122.482L184.057 122.306C176.706 120 169.169 118.333 161.53 117.324L156.09 116.605C147.474 115.467 138.742 115.526 130.141 116.781C120.78 118.146 111.677 120.912 103.139 124.987L91.4501 130.566C91.2778 130.648 91.1116 130.743 90.9528 130.849Z" stroke="#D68A56" stroke-width="2"/>
</g>
<g filter="url(#filter2_d_29_8)">
<path d="M363.325 119.414L364.926 113.808C365.172 112.948 366.184 112.576 366.928 113.072C367.052 113.155 367.162 113.259 367.252 113.378L368.809 115.455L371.066 118.276L373.323 121.097L375.58 123.918L378.401 127.868L381.223 131.818L383.48 135.768L383.524 135.834C384.81 137.764 384.556 140.334 382.915 141.975L377.273 146.489L370.502 152.132L360.909 159.467L354.138 165.674L349.054 170.08C346.822 172.014 344.232 173.49 341.431 174.424L338.051 175.551C336.393 176.103 334.616 176.195 332.91 175.816L331.847 175.579C328.057 174.737 325.361 171.376 325.361 167.493C325.361 166.295 325.621 165.11 326.123 164.022L327.109 161.885C328.189 159.545 329.734 157.449 331.65 155.725L334.389 153.26L340.031 147.618L349.06 139.154L352.432 135.782C355.807 132.406 358.654 128.541 360.878 124.317L362.898 120.479C363.076 120.14 363.219 119.783 363.325 119.414Z" fill="#FB7C45"/>
</g>
<g filter="url(#filter3_d_29_8)">
<path d="M60.1275 207.279L54.9101 212.222C53.5511 213.509 52.6243 215.186 52.2571 217.022C51.8816 219.275 51.6929 221.556 51.6929 223.84V224.357V227.743V231.129V234.938C51.6929 235.031 51.7006 235.125 51.7159 235.217L51.7324 235.315C51.952 236.633 53.5694 237.152 54.5142 236.207L57.8998 232.821L61.2853 230L66.928 223.793L72.0064 218.15L78.7775 211.944C82.1484 208.947 85.8992 206.408 89.9332 204.391L90.627 204.044L92.1006 203.374C95.2446 201.945 98.5498 200.901 101.944 200.264C104.551 199.776 107.197 199.53 109.848 199.53H113.762H123.354H131.818H132.779C138.52 199.53 144.246 200.097 149.875 201.223L156.646 203.48L164.546 206.301L175.267 209.687L183.73 211.379L191.63 213.072L201.223 214.201C203.856 214.577 209.235 215.329 209.687 215.329H218.715H226.615H234.514H241.285H250.314H254.551C256.209 215.329 257.836 215.78 259.257 216.633L260.711 217.505C261.995 218.276 262.895 219.552 263.188 221.02C263.257 221.363 263.292 221.712 263.292 222.062V223.183C263.292 225.019 262.562 226.779 261.264 228.077C260.738 228.603 260.131 229.041 259.466 229.374L258.441 229.886C256.801 230.706 255.015 231.196 253.185 231.326L248.057 231.693H240.157H232.821H227.743H221.536H216.458H210.815H202.915H195.58H189.373H182.038H172.445H165.11L154.953 232.821H150.042C144.302 232.821 138.576 233.388 132.947 234.514L123.354 236.771L113.762 239.592L104.169 242.978L95.7054 246.928L87.8057 251.442L79.3418 256.52L77.977 257.105C76.2586 257.842 74.6246 258.761 73.1033 259.848C71.9975 260.638 70.8316 261.34 69.6162 261.947L69.5214 261.995C67.7973 262.857 66.1691 263.899 64.6638 265.103L64.1067 265.549L60.7211 267.806L58.7804 268.776C57.261 269.536 56.4381 271.218 56.7712 272.884L57.3355 275.705L58.464 279.091L59.5926 283.041C60.4368 285.011 62.9402 285.612 64.5866 284.24L64.6709 284.169L68.6043 280.629C69.7386 279.608 71.0054 278.745 72.3703 278.063C74.7285 276.883 77.3288 276.27 79.9653 276.27H82.1631H90.627H95.1931C97.7619 276.27 100.301 276.82 102.639 277.883C104.4 278.683 106.279 279.194 108.202 279.397L113.001 279.902C115.006 280.113 117.029 280.085 119.027 279.818L122.019 279.419C123.643 279.203 125.202 278.642 126.591 277.773C128.171 276.786 129.488 275.428 130.427 273.819L131.36 272.219C132.411 270.418 133.751 268.802 135.327 267.436L141.411 262.163L147.618 257.085C150.929 254.877 154.82 253.699 158.799 253.699H160.596C165.457 253.699 170.29 254.444 174.926 255.908L178.652 257.085L188.245 258.777L199.53 262.163C205.916 264.041 212.434 265.436 219.029 266.335L221.536 266.677L233.95 268.37H252.571L261.035 267.806L270.063 266.677L271.916 266.35C277.063 265.442 282.112 264.04 286.991 262.163C290.367 261.037 293.619 259.566 296.693 257.773L298.84 256.52L305.047 252.006L310.107 248.114C311.614 246.955 312.92 245.557 313.975 243.975C315.88 241.117 316.897 237.76 316.897 234.325V231.693V223.793C316.709 222.288 316.332 219.166 316.332 218.715C316.332 218.455 316.956 217.434 317.665 216.363C318.625 214.912 319.862 213.669 321.254 212.626C322.851 211.428 324.646 210.522 326.558 209.948L329.31 209.122C332.696 208.182 339.58 206.301 340.031 206.301C340.483 206.301 345.486 204.42 347.931 203.48L350.273 202.543C352.466 201.666 354.551 200.539 356.486 199.184C358.301 197.914 360.248 196.843 362.293 195.991L363.264 195.586C365.077 194.831 366.833 193.944 368.518 192.933L371.63 191.066L377.837 187.116L382.915 183.166C385.161 181.669 387.178 179.856 388.906 177.783L389.122 177.524L392.508 173.009L394.911 170.306C396.217 168.837 396.639 166.781 396.017 164.916C395.935 164.669 395.835 164.429 395.719 164.196L394.201 161.16L392.508 157.21L390.815 153.26L389.122 149.875C388.29 148.209 386.07 147.849 384.753 149.166L384.044 149.875L377.273 157.21C370.891 163.592 363.947 169.387 356.527 174.524L353.009 176.959L341.724 184.295L339.085 186.054C335.213 188.636 331.075 190.792 326.742 192.488C322.448 194.168 317.987 195.386 313.434 196.12L310.282 196.629C305.296 197.433 300.252 197.837 295.201 197.837H288.119L271.191 198.966L246.364 197.837H225.486L205.173 196.708L181.473 195.016L165.11 192.194L151.003 189.937L131.254 188.245H110.941C100.457 189.368 90.1772 191.923 80.3878 195.839L78.2132 196.708L67.7498 201.94C64.9602 203.335 62.3917 205.134 60.1275 207.279Z" fill="#F08C51"/>
<path d="M60.1275 207.279L54.9101 212.222C53.5511 213.509 52.6243 215.186 52.2571 217.022C51.8816 219.275 51.6929 221.556 51.6929 223.84V224.357V227.743V231.129V234.938C51.6929 235.031 51.7006 235.125 51.7159 235.217L51.7324 235.315C51.952 236.633 53.5694 237.152 54.5142 236.207L57.8998 232.821L61.2853 230L66.928 223.793L72.0064 218.15L78.7775 211.944C82.1484 208.947 85.8992 206.408 89.9332 204.391L90.627 204.044L92.1006 203.374C95.2446 201.945 98.5498 200.901 101.944 200.264C104.551 199.776 107.197 199.53 109.848 199.53H113.762H123.354H131.818H132.779C138.52 199.53 144.246 200.097 149.875 201.223L156.646 203.48L164.546 206.301L175.267 209.687L183.73 211.379L191.63 213.072L201.223 214.201C203.856 214.577 209.235 215.329 209.687 215.329H218.715H226.615H234.514H241.285H250.314H254.551C256.209 215.329 257.836 215.78 259.257 216.633L260.711 217.505C261.995 218.276 262.895 219.552 263.188 221.02C263.257 221.363 263.292 221.712 263.292 222.062V223.183C263.292 225.019 262.562 226.779 261.264 228.077C260.738 228.603 260.131 229.041 259.466 229.374L258.441 229.886C256.801 230.706 255.015 231.196 253.185 231.326L248.057 231.693H240.157H232.821H227.743H221.536H216.458H210.815H202.915H195.58H189.373H182.038H172.445H165.11L154.953 232.821H150.042C144.302 232.821 138.576 233.388 132.947 234.514L123.354 236.771L113.762 239.592L104.169 242.978L95.7054 246.928L87.8057 251.442L79.3418 256.52L77.977 257.105C76.2586 257.842 74.6246 258.761 73.1033 259.848C71.9975 260.638 70.8316 261.34 69.6162 261.947L69.5214 261.995C67.7973 262.857 66.1691 263.899 64.6638 265.103L64.1067 265.549L60.7211 267.806L58.7804 268.776C57.261 269.536 56.4381 271.218 56.7712 272.884L57.3355 275.705L58.464 279.091L59.5926 283.041C60.4368 285.011 62.9402 285.612 64.5866 284.24L64.6709 284.169L68.6043 280.629C69.7386 279.608 71.0054 278.745 72.3703 278.063C74.7285 276.883 77.3288 276.27 79.9653 276.27H82.1631H90.627H95.1931C97.7619 276.27 100.301 276.82 102.639 277.883C104.4 278.683 106.279 279.194 108.202 279.397L113.001 279.902C115.006 280.113 117.029 280.085 119.027 279.818L122.019 279.419C123.643 279.203 125.202 278.642 126.591 277.773C128.171 276.786 129.488 275.428 130.427 273.819L131.36 272.219C132.411 270.418 133.751 268.802 135.327 267.436L141.411 262.163L147.618 257.085C150.929 254.877 154.82 253.699 158.799 253.699H160.596C165.457 253.699 170.29 254.444 174.926 255.908L178.652 257.085L188.245 258.777L199.53 262.163C205.916 264.041 212.434 265.436 219.029 266.335L221.536 266.677L233.95 268.37H252.571L261.035 267.806L270.063 266.677L271.916 266.35C277.063 265.442 282.112 264.04 286.991 262.163C290.367 261.037 293.619 259.566 296.693 257.773L298.84 256.52L305.047 252.006L310.107 248.114C311.614 246.955 312.92 245.557 313.975 243.975C315.88 241.117 316.897 237.76 316.897 234.325V231.693V223.793C316.709 222.288 316.332 219.166 316.332 218.715C316.332 218.455 316.956 217.434 317.665 216.363C318.625 214.912 319.862 213.669 321.254 212.626C322.851 211.428 324.646 210.522 326.558 209.948L329.31 209.122C332.696 208.182 339.58 206.301 340.031 206.301C340.483 206.301 345.486 204.42 347.931 203.48L350.273 202.543C352.466 201.666 354.551 200.539 356.486 199.184C358.301 197.914 360.248 196.843 362.293 195.991L363.264 195.586C365.077 194.831 366.833 193.944 368.518 192.933L371.63 191.066L377.837 187.116L382.915 183.166C385.161 181.669 387.178 179.856 388.906 177.783L389.122 177.524L392.508 173.009L394.911 170.306C396.217 168.837 396.639 166.781 396.017 164.916C395.935 164.669 395.835 164.429 395.719 164.196L394.201 161.16L392.508 157.21L390.815 153.26L389.122 149.875C388.29 148.209 386.07 147.849 384.753 149.166L384.044 149.875L377.273 157.21C370.891 163.592 363.947 169.387 356.527 174.524L353.009 176.959L341.724 184.295L339.085 186.054C335.213 188.636 331.075 190.792 326.742 192.488C322.448 194.168 317.987 195.386 313.434 196.12L310.282 196.629C305.296 197.433 300.252 197.837 295.201 197.837H288.119L271.191 198.966L246.364 197.837H225.486L205.173 196.708L181.473 195.016L165.11 192.194L151.003 189.937L131.254 188.245H110.941C100.457 189.368 90.1772 191.923 80.3878 195.839L78.2132 196.708L67.7498 201.94C64.9602 203.335 62.3917 205.134 60.1275 207.279Z" stroke="#F08C51"/>
</g>
<g filter="url(#filter4_d_29_8)">
<path d="M62.9779 292.069L62.2758 290.197C61.6586 288.551 61.9233 286.704 62.9779 285.298L63.3444 284.809C64.2256 283.634 65.2406 282.566 66.3689 281.626C67.4901 280.691 68.7156 279.89 70.0209 279.237L70.3134 279.091L72.5704 277.962L72.9725 277.721C74.5555 276.771 76.3669 276.27 78.2131 276.27H80.4701H83.2914H86.677H90.0626H95.141C97.3674 276.27 99.5633 276.788 101.555 277.784L101.912 277.962L104.733 279.091L106.99 279.655C108.867 280.03 110.776 280.219 112.689 280.219H113.197H116.583H117.916C118.906 280.219 119.895 280.138 120.872 279.975L121.526 279.866C122.366 279.726 123.189 279.496 123.98 279.179C125.061 278.747 126.073 278.157 126.983 277.429L127.131 277.311C127.995 276.62 128.769 275.821 129.433 274.936L130.125 274.013L131.818 271.755L133.022 270.251C133.722 269.376 134.517 268.581 135.392 267.881L135.749 267.595C136.511 266.986 137.193 266.282 137.778 265.502C138.317 264.783 138.938 264.13 139.628 263.555L141.975 261.599L143.633 259.941C144.405 259.168 145.27 258.493 146.207 257.931L146.679 257.648C147.302 257.274 147.877 256.825 148.391 256.311L149.127 255.575C149.618 255.084 150.218 254.713 150.878 254.493C151.334 254.341 151.813 254.263 152.294 254.263H154.953H158.338H160.572C161.714 254.263 162.854 254.358 163.981 254.545L164.227 254.586C165.19 254.747 166.165 254.828 167.141 254.828C168.788 254.828 170.427 255.057 172.011 255.51L173.574 255.956L174.369 256.297C176.464 257.195 178.66 257.838 180.909 258.213L184.859 258.777L188.244 259.342L192.194 260.47L197.273 262.163L202.351 263.856L203.636 264.241C206.536 265.111 209.504 265.737 212.508 266.113L216.458 266.677L218.031 266.82C221.115 267.101 224.174 267.619 227.179 268.37L227.218 268.376C229.822 268.747 232.448 268.934 235.078 268.934H240.721H245.235C248.234 269.309 251.267 269.33 254.271 268.996L254.827 268.934L259.906 268.37L264.42 267.806L268.934 267.241L269.907 267.12C272.262 266.825 274.582 266.299 276.834 265.549L281.348 264.42L284.169 263.292L287.555 262.163L290.94 261.034L294.89 259.342L297.711 257.649L299.398 256.685C300.9 255.827 302.281 254.772 303.504 253.549C304.156 252.897 304.852 252.293 305.589 251.741L306.74 250.878L309.561 248.621C310.676 247.878 311.611 246.896 312.301 245.748L312.947 244.671L314.378 242.881C314.925 242.197 315.369 241.436 315.694 240.623C316.116 239.569 316.332 238.445 316.332 237.311V235.643V232.257V231.152C316.332 230.01 316.238 228.87 316.05 227.743C315.862 226.616 315.768 225.476 315.768 224.334V222.665V220.408V220.091C315.768 218.469 316.32 216.896 317.332 215.63C317.791 215.057 318.336 214.557 318.947 214.15L321.411 212.508L322.447 211.886C323.633 211.174 324.894 210.594 326.206 210.157L326.248 210.143C327.16 209.839 328.094 209.607 329.041 209.449L329.382 209.392C330.46 209.213 331.514 208.918 332.529 208.512C333.391 208.167 334.282 207.902 335.193 207.72L336.646 207.429L338.903 206.865L341.16 206.301L344.545 205.172C346.422 204.797 348.261 204.25 350.038 203.54L350.188 203.48L353.574 201.787L355.266 200.658L358.088 198.966L361.473 197.273C363.349 196.522 365.142 195.579 366.823 194.459L367.68 193.887L371.63 191.63L375.016 189.373L378.401 187.116L381.787 184.859L384.064 182.907C385.177 181.953 386.219 180.894 387.158 179.768C388.083 178.658 389.109 177.615 390.206 176.675L392.176 174.986C392.396 174.798 392.594 174.584 392.765 174.349L393.873 172.825C395.191 171.012 398.006 171.448 398.715 173.574C399.436 176.458 398.953 179.512 397.377 182.034L397.022 182.602L394.765 185.423L390.815 190.502L386.865 195.58L382.351 200.658L376.144 206.301L370.501 211.944L362.602 221.536L356.395 227.743L354.339 229.799C351.577 232.561 348.583 235.082 345.392 237.335C342.2 239.588 339.207 242.11 336.444 244.872L332.696 248.621L325.925 254.828L322.237 259.13C320.191 261.517 317.827 263.611 315.212 265.355C313.33 266.61 311.577 268.047 309.978 269.646L308.769 270.855C307.042 272.582 305.195 274.184 303.241 275.649L299.404 278.527L299.04 278.741C292.905 282.35 286.408 285.304 279.655 287.555L270.627 290.94L262.978 294C260.566 294.965 258.305 296.269 256.262 297.874C253.088 300.368 249.4 302.125 245.464 303.02L239.028 304.483L224.357 308.997L214.957 310.787C213.328 311.098 211.673 311.254 210.014 311.254C208.669 311.254 207.327 311.15 205.996 310.953C203.443 310.575 200.228 310.125 199.53 310.125C198.627 310.125 193.887 308.621 191.63 307.868L183.166 306.176L176.395 304.483L173.795 303.483C170.665 302.279 167.34 301.661 163.986 301.661C162.48 301.661 160.978 301.786 159.493 302.033L158.465 302.205C156.128 302.594 153.83 303.187 151.605 303.999C149.141 304.898 146.523 305.876 145.925 306.176C143.079 307.598 140.314 309.234 137.165 309.684L135.707 309.892C134.621 310.047 133.524 310.125 132.426 310.125H128.432L122.874 310.82C120.565 311.109 118.287 311.603 116.067 312.297C112.295 313.476 108.366 314.075 104.414 314.075H100.784H88.9341H80.4701H77.1197C74.3065 314.075 71.7091 312.568 70.3134 310.125C68.4354 306.745 66.8282 303.221 65.5067 299.587L65.235 298.84L62.9779 292.069Z" fill="#FC5437"/>
<path d="M399.843 198.966L402.465 195.22C403.064 194.364 404.361 194.459 404.829 195.394C404.89 195.517 404.933 195.649 404.956 195.785L405.486 198.966L406.05 202.915L406.614 207.429L407.179 211.944L407.743 216.458V219.843C407.743 221.67 407.121 223.442 405.98 224.868L404.108 227.208C403.523 227.939 402.877 228.62 402.176 229.243L398.15 232.821L391.943 238.464L386.301 244.107L384.371 245.888C380.775 249.208 376.888 252.2 372.758 254.828C369.002 257.833 365.03 260.559 360.874 262.983L360.345 263.292L354.702 266.113C352.445 267.241 347.818 269.611 347.367 270.063C346.802 270.627 341.16 272.32 340.595 272.884C340.031 273.448 335.517 274.577 334.953 274.577C334.522 274.577 331.32 275.603 329.556 276.188C329.393 276.242 329.222 276.27 329.05 276.27C327.506 276.27 326.851 274.305 328.086 273.379L328.641 272.962C328.711 272.91 328.777 272.853 328.838 272.792L332.696 268.934L336.646 265.549L342.288 261.034L347.931 256.52L355.266 250.878L362.037 244.107L367.68 238.464L372.194 232.821L376.708 228.307L381.787 222.1L385.737 217.586L389.686 211.944L393.072 207.994L396.458 203.48L399.843 198.966Z" fill="#FC5437"/>
<path d="M110.94 343.417L100.784 342.853C97.2984 342.272 95.0124 346.336 97.3494 348.986C122.272 377.246 135.959 383.768 157.774 393.636C181.473 404.357 199.53 408.307 239.028 408.307C268.667 408.307 302.94 393.414 319.029 384.582C319.849 384.131 319.525 382.915 318.589 382.915L313.511 383.48H310.125L307.103 383.102C306.128 382.98 305.205 382.59 304.437 381.976L304.376 381.927C303.357 381.112 302.687 379.939 302.503 378.648C302.324 377.399 302.613 376.128 303.312 375.078L303.901 374.196C304.287 373.616 304.748 373.091 305.272 372.632L307.17 370.971C308.384 369.909 309.47 368.71 310.407 367.398C311.345 366.086 312.431 364.887 313.645 363.825L314.786 362.827C315.812 361.928 316.95 361.165 318.17 360.554C320.663 359.308 322.788 357.432 324.334 355.113L325.263 353.72C326.078 352.497 327.012 351.357 328.052 350.318L331.567 346.803L334.953 343.417L340.595 337.21L344.545 333.26L349.059 328.746C350.752 327.241 354.251 324.232 354.702 324.232C355.153 324.232 357.523 320.47 358.652 318.589L359.807 316.278C360.165 315.563 360.586 314.882 361.066 314.243C362.795 311.936 363.73 309.131 363.73 306.248V305.611V304.116C363.73 302.17 363.022 300.287 361.74 298.822C360.477 297.379 358.737 296.434 356.838 296.163C356.169 296.067 355.491 296.057 354.819 296.131L353.216 296.309C351.579 296.491 349.97 296.867 348.423 297.43L344.545 298.84L339.467 301.097L334.953 303.918L331.567 305.611L325.925 308.997L320.846 312.382L319.811 312.947C316.373 314.823 312.748 316.335 308.997 317.461L305.367 318.973C303.277 319.844 301.265 320.893 299.354 322.109C297.136 323.521 294.777 324.695 292.343 325.687C290.319 326.512 288.391 327.345 288.119 327.618C285.25 330.486 281.096 331.651 277.247 332.934L272.884 334.389C268.768 335.885 264.455 336.78 260.082 337.026C258.22 337.13 256.728 337.21 256.52 337.21C256.069 337.21 251.066 338.715 248.621 339.467L239.028 341.724C236.03 342.848 232.905 343.6 229.721 343.936C226.756 344.25 223.795 344.545 223.229 344.545H212.508H201.787L189.937 343.417H178.088H169.059L157.774 344.545L148.182 345.11L134.075 344.545H126.74L110.94 343.417Z" fill="#FC5437"/>
<path d="M62.9779 292.069L62.2758 290.197C61.6586 288.551 61.9233 286.704 62.9779 285.298L63.3444 284.809C64.2256 283.634 65.2406 282.566 66.3689 281.626C67.4901 280.691 68.7156 279.89 70.0209 279.237L70.3134 279.091L72.5704 277.962L72.9725 277.721C74.5555 276.771 76.3669 276.27 78.2131 276.27H80.4701H83.2914H86.677H90.0626H95.141C97.3674 276.27 99.5633 276.788 101.555 277.784L101.912 277.962L104.733 279.091L106.99 279.655C108.867 280.03 110.776 280.219 112.689 280.219H113.197H116.583H117.916C118.906 280.219 119.895 280.138 120.872 279.975L121.526 279.866C122.366 279.726 123.189 279.496 123.98 279.179C125.061 278.747 126.073 278.157 126.983 277.429L127.131 277.311C127.995 276.62 128.769 275.821 129.433 274.936L130.125 274.013L131.818 271.755L133.022 270.251C133.722 269.376 134.517 268.581 135.392 267.881L135.749 267.595C136.511 266.986 137.193 266.282 137.778 265.502C138.317 264.783 138.938 264.13 139.628 263.555L141.975 261.599L143.633 259.941C144.405 259.168 145.27 258.493 146.207 257.931L146.679 257.648C147.302 257.274 147.877 256.825 148.391 256.311L149.127 255.575C149.618 255.084 150.218 254.713 150.878 254.493C151.334 254.341 151.813 254.263 152.294 254.263H154.953H158.338H160.572C161.714 254.263 162.854 254.358 163.981 254.545L164.227 254.586C165.19 254.747 166.165 254.828 167.141 254.828C168.788 254.828 170.427 255.057 172.011 255.51L173.574 255.956L174.369 256.297C176.464 257.195 178.66 257.838 180.909 258.213L184.859 258.777L188.244 259.342L192.194 260.47L197.273 262.163L202.351 263.856L203.636 264.241C206.536 265.111 209.504 265.737 212.508 266.113L216.458 266.677L218.031 266.82C221.115 267.101 224.174 267.619 227.179 268.37L227.218 268.376C229.822 268.747 232.448 268.934 235.078 268.934H240.721H245.235C248.234 269.309 251.267 269.33 254.271 268.996L254.827 268.934L259.906 268.37L264.42 267.806L268.934 267.241L269.907 267.12C272.262 266.825 274.582 266.299 276.834 265.549L281.348 264.42L284.169 263.292L287.555 262.163L290.94 261.034L294.89 259.342L297.711 257.649L299.398 256.685C300.9 255.827 302.281 254.772 303.504 253.549C304.156 252.897 304.852 252.293 305.589 251.741L306.74 250.878L309.561 248.621C310.676 247.878 311.611 246.896 312.301 245.748L312.947 244.671L314.378 242.881C314.925 242.197 315.369 241.436 315.694 240.623C316.116 239.569 316.332 238.445 316.332 237.311V235.643V232.257V231.152C316.332 230.01 316.238 228.87 316.05 227.743C315.862 226.616 315.768 225.476 315.768 224.334V222.665V220.408V220.091C315.768 218.469 316.32 216.896 317.332 215.63C317.791 215.057 318.336 214.557 318.947 214.15L321.411 212.508L322.447 211.886C323.633 211.174 324.894 210.594 326.206 210.157L326.248 210.143C327.16 209.839 328.094 209.607 329.041 209.449L329.382 209.392C330.46 209.213 331.514 208.918 332.529 208.512C333.391 208.167 334.282 207.902 335.193 207.72L336.646 207.429L338.903 206.865L341.16 206.301L344.545 205.172C346.422 204.797 348.261 204.25 350.038 203.54L350.188 203.48L353.574 201.787L355.266 200.658L358.088 198.966L361.473 197.273C363.349 196.522 365.142 195.579 366.823 194.459L367.68 193.887L371.63 191.63L375.016 189.373L378.401 187.116L381.787 184.859L384.064 182.907C385.177 181.953 386.219 180.894 387.158 179.768C388.083 178.658 389.109 177.615 390.206 176.675L392.176 174.986C392.396 174.798 392.594 174.584 392.765 174.349L393.873 172.825C395.191 171.012 398.006 171.448 398.715 173.574C399.436 176.458 398.953 179.512 397.377 182.034L397.022 182.602L394.765 185.423L390.815 190.502L386.865 195.58L382.351 200.658L376.144 206.301L370.501 211.944L362.602 221.536L356.395 227.743L354.339 229.799C351.577 232.561 348.583 235.082 345.392 237.335C342.2 239.588 339.207 242.11 336.444 244.872L332.696 248.621L325.925 254.828L322.237 259.13C320.191 261.517 317.827 263.611 315.212 265.355C313.33 266.61 311.577 268.047 309.978 269.646L308.769 270.855C307.042 272.582 305.195 274.184 303.241 275.649L299.404 278.527L299.04 278.741C292.905 282.35 286.408 285.304 279.655 287.555L270.627 290.94L262.978 294C260.566 294.965 258.305 296.269 256.262 297.874C253.088 300.368 249.4 302.125 245.464 303.02L239.028 304.483L224.357 308.997L214.957 310.787C213.328 311.098 211.673 311.254 210.014 311.254C208.669 311.254 207.327 311.15 205.996 310.953C203.443 310.575 200.228 310.125 199.53 310.125C198.627 310.125 193.887 308.621 191.63 307.868L183.166 306.176L176.395 304.483L173.795 303.483C170.665 302.279 167.34 301.661 163.986 301.661C162.48 301.661 160.978 301.786 159.493 302.033L158.465 302.205C156.128 302.594 153.83 303.187 151.605 303.999C149.141 304.898 146.523 305.876 145.925 306.176C143.079 307.598 140.314 309.234 137.165 309.684L135.707 309.892C134.621 310.047 133.524 310.125 132.426 310.125H128.432L122.874 310.82C120.565 311.109 118.287 311.603 116.067 312.297C112.295 313.476 108.366 314.075 104.414 314.075H100.784H88.9341H80.4701H77.1197C74.3065 314.075 71.7091 312.568 70.3134 310.125C68.4354 306.745 66.8282 303.221 65.5067 299.587L65.235 298.84L62.9779 292.069Z" stroke="#FC5437"/>
<path d="M399.843 198.966L402.465 195.22C403.064 194.364 404.361 194.459 404.829 195.394C404.89 195.517 404.933 195.649 404.956 195.785L405.486 198.966L406.05 202.915L406.614 207.429L407.179 211.944L407.743 216.458V219.843C407.743 221.67 407.121 223.442 405.98 224.868L404.108 227.208C403.523 227.939 402.877 228.62 402.176 229.243L398.15 232.821L391.943 238.464L386.301 244.107L384.371 245.888C380.775 249.208 376.888 252.2 372.758 254.828C369.002 257.833 365.03 260.559 360.874 262.983L360.345 263.292L354.702 266.113C352.445 267.241 347.818 269.611 347.367 270.063C346.802 270.627 341.16 272.32 340.595 272.884C340.031 273.448 335.517 274.577 334.953 274.577C334.522 274.577 331.32 275.603 329.556 276.188C329.393 276.242 329.222 276.27 329.05 276.27C327.506 276.27 326.851 274.305 328.086 273.379L328.641 272.962C328.711 272.91 328.777 272.853 328.838 272.792L332.696 268.934L336.646 265.549L342.288 261.034L347.931 256.52L355.266 250.878L362.037 244.107L367.68 238.464L372.194 232.821L376.708 228.307L381.787 222.1L385.737 217.586L389.686 211.944L393.072 207.994L396.458 203.48L399.843 198.966Z" stroke="#FC5437"/>
<path d="M110.94 343.417L100.784 342.853C97.2984 342.272 95.0124 346.336 97.3494 348.986C122.272 377.246 135.959 383.768 157.774 393.636C181.473 404.357 199.53 408.307 239.028 408.307C268.667 408.307 302.94 393.414 319.029 384.582C319.849 384.131 319.525 382.915 318.589 382.915L313.511 383.48H310.125L307.103 383.102C306.128 382.98 305.205 382.59 304.437 381.976L304.376 381.927C303.357 381.112 302.687 379.939 302.503 378.648C302.324 377.399 302.613 376.128 303.312 375.078L303.901 374.196C304.287 373.616 304.748 373.091 305.272 372.632L307.17 370.971C308.384 369.909 309.47 368.71 310.407 367.398C311.345 366.086 312.431 364.887 313.645 363.825L314.786 362.827C315.812 361.928 316.95 361.165 318.17 360.554C320.663 359.308 322.788 357.432 324.334 355.113L325.263 353.72C326.078 352.497 327.012 351.357 328.052 350.318L331.567 346.803L334.953 343.417L340.595 337.21L344.545 333.26L349.059 328.746C350.752 327.241 354.251 324.232 354.702 324.232C355.153 324.232 357.523 320.47 358.652 318.589L359.807 316.278C360.165 315.563 360.586 314.882 361.066 314.243C362.795 311.936 363.73 309.131 363.73 306.248V305.611V304.116C363.73 302.17 363.022 300.287 361.74 298.822C360.477 297.379 358.737 296.434 356.838 296.163C356.169 296.067 355.491 296.057 354.819 296.131L353.216 296.309C351.579 296.491 349.97 296.867 348.423 297.43L344.545 298.84L339.467 301.097L334.953 303.918L331.567 305.611L325.925 308.997L320.846 312.382L319.811 312.947C316.373 314.823 312.748 316.335 308.997 317.461L305.367 318.973C303.277 319.844 301.265 320.893 299.354 322.109C297.136 323.521 294.777 324.695 292.343 325.687C290.319 326.512 288.391 327.345 288.119 327.618C285.25 330.486 281.096 331.651 277.247 332.934L272.884 334.389C268.768 335.885 264.455 336.78 260.082 337.026C258.22 337.13 256.728 337.21 256.52 337.21C256.069 337.21 251.066 338.715 248.621 339.467L239.028 341.724C236.03 342.848 232.905 343.6 229.721 343.936C226.756 344.25 223.795 344.545 223.229 344.545H212.508H201.787L189.937 343.417H178.088H169.059L157.774 344.545L148.182 345.11L134.075 344.545H126.74L110.94 343.417Z" stroke="#FC5437"/>
</g>
<g filter="url(#filter5_d_29_8)">
<ellipse cx="161.16" cy="266.113" rx="17.4922" ry="9.59248" fill="#FF6C58"/>
</g>
<g filter="url(#filter6_d_29_8)">
<ellipse cx="161.724" cy="312.947" rx="9.02821" ry="6.77116" fill="#FFBC82"/>
</g>
<g filter="url(#filter7_d_29_8)">
<ellipse cx="348.368" cy="310.052" rx="12.4138" ry="6.77116" transform="rotate(-37.2563 348.368 310.052)" fill="#FF6352"/>
</g>
<g filter="url(#filter8_d_29_8)">
<ellipse cx="327.974" cy="221.536" rx="9.92173" ry="8.0501" transform="rotate(-37.2563 327.974 221.536)" fill="#FB714C"/>
</g>
<g filter="url(#filter9_d_29_8)">
<ellipse cx="279.655" cy="134.639" rx="22.0063" ry="12.4138" fill="#F7BF90"/>
</g>
</g>
<defs>
<filter id="filter0_d_29_8" x="0" y="0" width="460" height="460" filterUnits="userSpaceOnUse" color-interpolation-filters="sRGB">
<feFlood flood-opacity="0" result="BackgroundImageFix"/>
<feColorMatrix in="SourceAlpha" type="matrix" values="0 0 0 0 0 0 0 0 0 0 0 0 0 0 0 0 0 0 127 0" result="hardAlpha"/>
<feOffset/>
<feGaussianBlur stdDeviation="25"/>
<feComposite in2="hardAlpha" operator="out"/>
<feColorMatrix type="matrix" values="0 0 0 0 1 0 0 0 0 1 0 0 0 0 1 0 0 0 0.25 0"/>
<feBlend mode="normal" in2="BackgroundImageFix" result="effect1_dropShadow_29_8"/>
<feBlend mode="normal" in="SourceGraphic" in2="effect1_dropShadow_29_8" result="shape"/>
</filter>
<filter id="filter1_d_29_8" x="68.3694" y="62.1739" width="293.562" height="100.215" filterUnits="userSpaceOnUse" color-interpolation-filters="sRGB">
<feFlood flood-opacity="0" result="BackgroundImageFix"/>
<feColorMatrix in="SourceAlpha" type="matrix" values="0 0 0 0 0 0 0 0 0 0 0 0 0 0 0 0 0 0 127 0" result="hardAlpha"/>
<feOffset/>
<feGaussianBlur stdDeviation="3.5"/>
<feComposite in2="hardAlpha" operator="out"/>
<feColorMatrix type="matrix" values="0 0 0 0 0.4375 0 0 0 0 0.157051 0 0 0 0 0 0 0 0 0.75 0"/>
<feBlend mode="normal" in2="BackgroundImageFix" result="effect1_dropShadow_29_8"/>
<feBlend mode="normal" in="SourceGraphic" in2="effect1_dropShadow_29_8" result="shape"/>
</filter>
<filter id="filter2_d_29_8" x="318.361" y="105.85" width="72.9805" height="77.1957" filterUnits="userSpaceOnUse" color-interpolation-filters="sRGB">
<feFlood flood-opacity="0" result="BackgroundImageFix"/>
<feColorMatrix in="SourceAlpha" type="matrix" values="0 0 0 0 0 0 0 0 0 0 0 0 0 0 0 0 0 0 127 0" result="hardAlpha"/>
<feOffset/>
<feGaussianBlur stdDeviation="3.5"/>
<feComposite in2="hardAlpha" operator="out"/>
<feColorMatrix type="matrix" values="0 0 0 0 0.4375 0 0 0 0 0.157051 0 0 0 0 0 0 0 0 0.75 0"/>
<feBlend mode="normal" in2="BackgroundImageFix" result="effect1_dropShadow_29_8"/>
<feBlend mode="normal" in="SourceGraphic" in2="effect1_dropShadow_29_8" result="shape"/>
</filter>
<filter id="filter3_d_29_8" x="44.1929" y="140.866" width="359.606" height="151.617" filterUnits="userSpaceOnUse" color-interpolation-filters="sRGB">
<feFlood flood-opacity="0" result="BackgroundImageFix"/>
<feColorMatrix in="SourceAlpha" type="matrix" values="0 0 0 0 0 0 0 0 0 0 0 0 0 0 0 0 0 0 127 0" result="hardAlpha"/>
<feOffset/>
<feGaussianBlur stdDeviation="3.5"/>
<feComposite in2="hardAlpha" operator="out"/>
<feColorMatrix type="matrix" values="0 0 0 0 0.4375 0 0 0 0 0.157051 0 0 0 0 0 0 0 0 0.75 0"/>
<feBlend mode="normal" in2="BackgroundImageFix" result="effect1_dropShadow_29_8"/>
<feBlend mode="normal" in="SourceGraphic" in2="effect1_dropShadow_29_8" result="shape"/>
</filter>
<filter id="filter4_d_29_8" x="54.4478" y="164.189" width="360.795" height="251.618" filterUnits="userSpaceOnUse" color-interpolation-filters="sRGB">
<feFlood flood-opacity="0" result="BackgroundImageFix"/>
<feColorMatrix in="SourceAlpha" type="matrix" values="0 0 0 0 0 0 0 0 0 0 0 0 0 0 0 0 0 0 127 0" result="hardAlpha"/>
<feOffset/>
<feGaussianBlur stdDeviation="3.5"/>
<feComposite in2="hardAlpha" operator="out"/>
<feColorMatrix type="matrix" values="0 0 0 0 0.4375 0 0 0 0 0.157051 0 0 0 0 0 0 0 0 0.75 0"/>
<feBlend mode="normal" in2="BackgroundImageFix" result="effect1_dropShadow_29_8"/>
<feBlend mode="normal" in="SourceGraphic" in2="effect1_dropShadow_29_8" result="shape"/>
</filter>
<filter id="filter5_d_29_8" x="136.668" y="249.52" width="48.9844" height="33.185" filterUnits="userSpaceOnUse" color-interpolation-filters="sRGB">
<feFlood flood-opacity="0" result="BackgroundImageFix"/>
<feColorMatrix in="SourceAlpha" type="matrix" values="0 0 0 0 0 0 0 0 0 0 0 0 0 0 0 0 0 0 127 0" result="hardAlpha"/>
<feOffset/>
<feGaussianBlur stdDeviation="3.5"/>
<feComposite in2="hardAlpha" operator="out"/>
<feColorMatrix type="matrix" values="0 0 0 0 0 0 0 0 0 0 0 0 0 0 0 0 0 0 0.25 0"/>
<feBlend mode="normal" in2="BackgroundImageFix" result="effect1_dropShadow_29_8"/>
<feBlend mode="normal" in="SourceGraphic" in2="effect1_dropShadow_29_8" result="shape"/>
</filter>
<filter id="filter6_d_29_8" x="145.696" y="299.176" width="32.0564" height="27.5423" filterUnits="userSpaceOnUse" color-interpolation-filters="sRGB">
<feFlood flood-opacity="0" result="BackgroundImageFix"/>
<feColorMatrix in="SourceAlpha" type="matrix" values="0 0 0 0 0 0 0 0 0 0 0 0 0 0 0 0 0 0 127 0" result="hardAlpha"/>
<feOffset/>
<feGaussianBlur stdDeviation="3.5"/>
<feComposite in2="hardAlpha" operator="out"/>
<feColorMatrix type="matrix" values="0 0 0 0 0 0 0 0 0 0 0 0 0 0 0 0 0 0 0.25 0"/>
<feBlend mode="normal" in2="BackgroundImageFix" result="effect1_dropShadow_29_8"/>
<feBlend mode="normal" in="SourceGraphic" in2="effect1_dropShadow_29_8" result="shape"/>
</filter>
<filter id="filter7_d_29_8" x="330.668" y="293.803" width="35.3999" height="32.497" filterUnits="userSpaceOnUse" color-interpolation-filters="sRGB">
<feFlood flood-opacity="0" result="BackgroundImageFix"/>
<feColorMatrix in="SourceAlpha" type="matrix" values="0 0 0 0 0 0 0 0 0 0 0 0 0 0 0 0 0 0 127 0" result="hardAlpha"/>
<feOffset/>
<feGaussianBlur stdDeviation="3.5"/>
<feComposite in2="hardAlpha" operator="out"/>
<feColorMatrix type="matrix" values="0 0 0 0 0 0 0 0 0 0 0 0 0 0 0 0 0 0 0.25 0"/>
<feBlend mode="normal" in2="BackgroundImageFix" result="effect1_dropShadow_29_8"/>
<feBlend mode="normal" in="SourceGraphic" in2="effect1_dropShadow_29_8" result="shape"/>
</filter>
<filter id="filter8_d_29_8" x="311.693" y="205.754" width="32.562" height="31.565" filterUnits="userSpaceOnUse" color-interpolation-filters="sRGB">
<feFlood flood-opacity="0" result="BackgroundImageFix"/>
<feColorMatrix in="SourceAlpha" type="matrix" values="0 0 0 0 0 0 0 0 0 0 0 0 0 0 0 0 0 0 127 0" result="hardAlpha"/>
<feOffset/>
<feGaussianBlur stdDeviation="3.5"/>
<feComposite in2="hardAlpha" operator="out"/>
<feColorMatrix type="matrix" values="0 0 0 0 0 0 0 0 0 0 0 0 0 0 0 0 0 0 0.25 0"/>
<feBlend mode="normal" in2="BackgroundImageFix" result="effect1_dropShadow_29_8"/>
<feBlend mode="normal" in="SourceGraphic" in2="effect1_dropShadow_29_8" result="shape"/>
</filter>
<filter id="filter9_d_29_8" x="247.649" y="112.226" width="64.0125" height="44.8276" filterUnits="userSpaceOnUse" color-interpolation-filters="sRGB">
<feFlood flood-opacity="0" result="BackgroundImageFix"/>
<feColorMatrix in="SourceAlpha" type="matrix" values="0 0 0 0 0 0 0 0 0 0 0 0 0 0 0 0 0 0 127 0" result="hardAlpha"/>
<feOffset/>
<feGaussianBlur stdDeviation="5"/>
<feComposite in2="hardAlpha" operator="out"/>
<feColorMatrix type="matrix" values="0 0 0 0 0 0 0 0 0 0 0 0 0 0 0 0 0 0 0.25 0"/>
<feBlend mode="normal" in2="BackgroundImageFix" result="effect1_dropShadow_29_8"/>
<feBlend mode="normal" in="SourceGraphic" in2="effect1_dropShadow_29_8" result="shape"/>
</filter>
<linearGradient id="paint0_linear_29_8" x1="230" y1="50" x2="230" y2="410" gradientUnits="userSpaceOnUse">
<stop stop-color="#FFB971"/>
<stop offset="0.182292" stop-color="#FFCFA5"/>
<stop offset="1" stop-color="#FF933F"/>
</linearGradient>
</defs>
</svg>
